<svg xmlns="http://www.w3.org/2000/svg" id="reason-3" fill="none" viewBox="0 0 71 88">
    <g clip-path="url(#a)">
        <path fill="#969696" d="M70.9 42.1c0-1.5-.6-2.5-1.9-3.2-.2-.1-.3-.5-.3-.7V28c0-2.4-1.3-3.7-3.7-3.7h-1.8V4.2c0-2.1-.6-3.5-2.7-4.2H30.3c-1.4.5-2.4 1.3-2.6 2.8-.1.5 0 1 0 1.6h-1.9c-3.4-.3-5 1.2-4.8 4.8v1.9h-.8c-4 0-8 .1-12 0C3.6 11 .5 14.4.1 17.7c0 .1-.1.1-.1.2v46.2c.3.9.5 1.8.9 2.6 1.4 2.6 3.7 4 6.7 4.1H64.8c2.6 0 3.9-1.3 3.9-3.9V56.3c1.7-.7 2.3-2 2.2-3.7-.1-3.5 0-7 0-10.5Zm-41-18.6V3.7c0-1.3.3-1.6 1.6-1.6h27.8c1.3 0 1.6.3 1.6 1.6v20.5h-4.4c-1.4-6.4-5.1-10-11.8-9.9-2.7 0-5 1.2-7 3.1-1.9 1.9-3 4.1-3.3 6.8h-4.5v-.7Zm24.2.8H36.8c-.4-3.3 3.8-7.4 8-7.7 5.4-.4 9 4 9.3 7.7ZM23.3 8.1c0-1.2.3-1.5 1.5-1.5h2.7s.1 0 .2.1v17.6h-4.4V8.1ZM5 14c.7-.4 1.6-.7 2.4-.7 4.5-.1 9 0 13.6 0v11c-.2 0-.3.1-.4.1H7.7c-2.5 0-4.7-1.8-5.3-4.2-.6-2.5.4-5 2.6-6.2Zm61.4 53.1c0 1.2-.3 1.5-1.5 1.5H8c-3.5 0-5.8-2.4-5.8-5.8V24.3c1.9 1.8 4.1 2.3 6.5 2.3h56c1.5 0 1.7.3 1.7 1.7v10.5H54.2c-5 0-8.9 4.1-8.8 9 .1 4.7 4 8.6 8.6 8.7h12.3v10.6h.1ZM68.7 53c0 .9-.3 1.2-1.2 1.2H54.2c-3.4 0-6.1-2.6-6.5-6-.4-3.2 1.8-6.3 5-7.1.6-.1 1.1-.2 1.7-.2h13.1c.9 0 1.2.2 1.2 1.2V53Z"/>
        <path style="fill:currentColor" d="M54.3 38.7H66.5V28.2c0-1.4-.3-1.7-1.7-1.7h-56c-2.4 0-4.6-.5-6.5-2.3v38.5c0 3.5 2.4 5.8 5.8 5.8H65c1.2 0 1.5-.4 1.5-1.5V56.4H54.2c-4.7-.1-8.6-4-8.6-8.7-.3-4.9 3.7-9 8.7-9Zm4.9 24.4c1.4 0 1.7-.3 1.7-1.7v-.2c0-.9.4-1.4 1.1-1.5.7 0 1.1.5 1.1 1.5v1.3c-.3 1.7-1.7 2.8-3.5 2.8H10.3c-.9 0-1.4-.4-1.4-1.1 0-.7.5-1.1 1.4-1.1h48.9Zm-48.5-31H10c-.7 0-1.1-.5-1.1-1.1 0-.6.5-1 1.1-1.1h49.3c2.4 0 4.2 1.5 3.8 4.6-.1.6-.6 1-1.1.9-.6 0-1-.4-1.1-1v-1.2c0-.7-.4-1.1-1.1-1.1H10.7Z"/>
        <path fill="#fff" d="M59.3 2.2H31.5c-1.3 0-1.6.3-1.6 1.6v20.6h4.5c.3-2.7 1.4-5 3.3-6.8 1.9-1.9 4.3-3 7-3.1 6.7-.1 10.4 3.5 11.8 9.9h4.4V3.8c0-1.3-.3-1.6-1.6-1.6ZM39.7 6.6s-.1 0 0 0c-1.3-.2-2.3 0-2.9 1.4-.3.7-1.3 1.1-2 1.6-.3.2-.4.3-.4.7v4.9c0 .9-.4 1.4-1.1 1.4-.7 0-1.1-.5-1.1-1.4v-6c0-.9.3-1.3 1.2-1.4 1.2-.1 2-.9 2.1-2.1.1-.8.5-1.2 1.3-1.2h3c.8 0 1.2.4 1.3 1.1-.1.5-.6 1-1.4 1Zm19 5.5v3.1c0 .8-.4 1.3-1.1 1.3-.7 0-1.1-.5-1.1-1.3v-5c0-.3-.1-.5-.4-.7-1.3-.5-2.1-1.3-2.6-2.6-.1-.3-.3-.5-.7-.4H51c-.7 0-1.2-.5-1.2-1.1 0-.6.5-1.1 1.2-1.1h3.2c.7 0 1.1.4 1.2 1.1.2 1.4.8 2 2.2 2.2.7.1 1.1.5 1.1 1.2v3.3ZM67.5 40.9H54.4c-.6 0-1.2.1-1.7.2-3.2.8-5.4 3.9-5 7.1.4 3.4 3.1 5.9 6.5 6h13.3c.9 0 1.2-.2 1.2-1.2V42.1c0-.9-.3-1.2-1.2-1.2Zm-13.3 10c-1.8 0-3.3-1.5-3.3-3.3 0-1.8 1.5-3.3 3.4-3.3 1.8 0 3.3 1.5 3.3 3.3 0 1.8-1.5 3.3-3.4 3.3Z"/>
        <path style="fill:currentColor" d="M21 13.2v11c-.2 0-.3.1-.4.1H7.7c-2.5 0-4.7-1.8-5.3-4.2-.6-2.4.4-5 2.6-6.1.7-.4 1.6-.7 2.4-.7 4.5-.1 9-.1 13.6-.1Z"/>
        <path fill="#fff" d="M54.1 24.3H36.7c-.4-3.3 3.8-7.4 8-7.7 5.5-.4 9.1 4 9.4 7.7ZM27.7 6.7v17.6h-4.4V8.1c0-1.2.3-1.5 1.5-1.5h2.7s.1 0 .2.1Z"/>
        <path fill="#969696" d="M35.1 29.8h24.2c2.4 0 4.2 1.5 3.8 4.6-.1.6-.6 1-1.1.9-.6 0-1-.4-1.1-1v-1.2c0-.7-.4-1.1-1.1-1.1H10c-.7-.1-1.1-.5-1.1-1.1 0-.6.5-1 1.1-1.1h25.1ZM35 65.3H10.3c-.9 0-1.4-.4-1.4-1.1 0-.7.5-1.1 1.4-1.1h49c1.4 0 1.7-.3 1.7-1.7v-.2c0-.9.4-1.4 1.1-1.4.7 0 1.1.5 1.1 1.4 0 .4 0 .9-.1 1.3-.3 1.7-1.7 2.8-3.4 2.8H35ZM32.1 12.1v-3c0-.9.3-1.3 1.2-1.4 1.2-.1 1.9-.9 2.1-2.1.1-.8.5-1.2 1.3-1.2h3c.8 0 1.2.4 1.3 1.1 0 .7-.5 1.1-1.3 1.1h-.1c-1.3-.2-2.2 0-2.9 1.4-.3.7-1.3 1.1-2 1.6-.3.2-.4.3-.4.7v4.9c0 .9-.4 1.4-1.1 1.4-.7 0-1.1-.5-1.1-1.4v-3.1ZM58.7 12.1v3.1c0 .8-.4 1.3-1.1 1.3-.7 0-1.1-.5-1.1-1.3v-5c0-.3-.1-.5-.4-.7-1.3-.5-2.1-1.3-2.6-2.6-.1-.3-.3-.5-.7-.4H51c-.7 0-1.2-.5-1.2-1.1 0-.6.5-1.1 1.2-1.1h3.2c.7 0 1.1.4 1.2 1.1.2 1.4.8 2 2.2 2.2.7.1 1.1.5 1.1 1.2v3.3ZM54.3 44.2c-1.8 0-3.4 1.5-3.4 3.3 0 1.8 1.5 3.3 3.3 3.3 1.8 0 3.4-1.5 3.4-3.3 0-1.7-1.5-3.2-3.3-3.3Zm-.1 4.5c-.6 0-1.1-.5-1.1-1.1 0-.6.5-1.1 1.1-1.1.6 0 1.1.5 1.1 1.1.1.6-.5 1.1-1.1 1.1Z"/>
        <path style="fill:currentColor" d="M55.4 47.6c0 .6-.5 1.1-1.1 1.1-.6 0-1.1-.5-1.1-1.1 0-.6.5-1.1 1.1-1.1.6 0 1.1.5 1.1 1.1Z"/>
        <path fill="#CBCBCB" d="M36.3 88c18.888 0 34.2-1.836 34.2-4.1 0-2.264-15.312-4.1-34.2-4.1-18.888 0-34.2 1.836-34.2 4.1 0 2.264 15.312 4.1 34.2 4.1Z"/>
    </g>
    <defs>
        <clipPath id="a"><path fill="#fff" d="M0 0h70.911v88H0z"/></clipPath>
    </defs>
</svg>