<svg xmlns="http://www.w3.org/2000/svg" id="reason-2" fill="none" viewBox="0 0 73 90">
    <g clip-path="url(#a)">
        <path fill="#fff" d="M30.6.1c-.1.1-.2.1-.3.2-.6.4-.8.9-.7 1.6.2.7.7 1 1.3 1.1h29.7c1.4 0 1.9.5 1.9 1.8v27c0 .3-.2.7-.4.9-4.1 3.4-8.2 6.7-12.2 10-1.6 1.3-3.1 2.5-4.7 3.8-1.4-1-2.8-2-4.1-3-1.6-1.1-3.3-1.7-5.3-1.4-1.4.2-2.5.7-3.6 1.5-1.3 1-2.7 1.9-4 2.9-.2-.1-.3-.2-.3-.3L11.4 32.7c-.4-.3-.6-.7-.6-1.2V4.9c0-1.7.4-2.1 2.1-2.1h6.8c1.2 0 1.9-.7 1.6-1.7-.1-.4-.6-.8-1-1.1l10.3.1Zm20.3 22c0-7.9-6.4-14.3-14.3-14.3s-14.2 6.4-14.3 14.3c-.1 7.9 6.4 14.3 14.3 14.4 7.8 0 14.3-6.5 14.3-14.4Z"/>
        <path fill="#969696" d="M20.2.1c.3.4.8.7 1 1.1.3 1-.4 1.7-1.6 1.7h-6.8c-1.7 0-2.1.4-2.1 2.1v26.6c0 .5.2.9.6 1.2l16.5 13.5c.1.1.2.1.3.3 1.3-1 2.7-1.9 4-2.9 1.1-.8 2.3-1.4 3.6-1.5 2-.2 3.7.3 5.3 1.4 1.4 1 2.7 2 4.1 3 1.6-1.3 3.1-2.6 4.7-3.8 4.1-3.3 8.2-6.7 12.2-10 .2-.2.4-.6.4-.9v-27c0-1.3-.5-1.8-1.9-1.8H30.8c-.7-.1-1.2-.4-1.3-1.1-.1-.7.1-1.2.7-1.6.1-.1.2-.1.3-.2h31.2c2.9 1.2 3.6 2.2 3.6 5.4v14.3c0 .5.1.8.5 1 2.1 1.5 4.1 2.9 6.1 4.4.4.3.7.8 1.1 1.2V67c0 .1-.1.1-.1.2-.7 3.7-3.9 6-7.6 6-19.3-.1-38.5 0-57.8 0-4.4 0-7.5-3.1-7.5-7.5V27.4c0-.9.3-1.5 1.1-2 2.1-1.4 4.1-3 6.1-4.4.4-.3.5-.6.5-1V4.9c0-1.6.5-2.9 1.8-3.8.5-.4 1.1-.5 1.7-.8 3.1-.2 6-.2 9-.2Zm43.3 63.3c-.3-.3-.5-.4-.7-.5C55 57.3 47.3 51.7 39.5 46c-2-1.5-3.8-1.5-5.8 0C23.8 53.2 13.9 60.3 4 67.5c-.2.1-.4.3-.6.5 1 1.6 2.3 2.3 4.1 2.3h58.7c1.3-.1 3.1-1.2 3.3-2.4-.4-.3-.9-.6-1.3-1-.6-.5-1.2-.7-2-.6H49.7c-.3 0-.7 0-1-.1-.6-.2-.9-.7-.9-1.3 0-.7.3-1.1 1-1.3.3-.1.7-.1 1-.1h12.4c.3-.1.7-.1 1.3-.1ZM3 64.7c7.6-5.5 15.1-10.9 22.7-16.4C18 42.1 10.5 36 3 29.8v34.9Zm44.5-16.4c7.6 5.5 15.1 10.9 22.7 16.4V29.8C62.6 36 55.1 42.1 47.5 48.3ZM3.8 26.8c1.3 1.1 2.6 2.1 3.9 3.2v-6c-1.3 1-2.6 1.9-3.9 2.8ZM65.4 30c1.4-1.1 2.6-2.1 3.9-3.2-1.3-.9-2.6-1.9-3.9-2.8v6Z"/>
        <path fill="#969696" d="M50.9 22.1c0 7.9-6.4 14.3-14.3 14.3S22.3 29.9 22.3 22c.1-7.9 6.4-14.3 14.3-14.3 7.8.1 14.3 6.5 14.3 14.4Zm-2.9 0c0-6.3-5.1-11.5-11.5-11.5-6.3 0-11.5 5.2-11.5 11.5s5.2 11.5 11.5 11.5c6.4 0 11.5-5.2 11.5-11.5Z"/>
        <path style="fill:currentColor" d="M63.5 63.5H49.8c-.3 0-.7 0-1 .1-.6.2-1 .7-1 1.3 0 .6.3 1.1.9 1.3.3.1.7.1 1 .1h16.5c.8 0 1.4.1 2 .6.4.4.9.6 1.3 1-.3 1.2-2 2.3-3.3 2.4H7.5c-1.8 0-3.1-.7-4.1-2.3.2-.2.4-.3.6-.5 9.9-7.2 19.8-14.3 29.7-21.5 2.1-1.5 3.8-1.5 5.8 0 7.8 5.6 15.5 11.2 23.3 16.9.1.2.3.4.7.6ZM3 64.7V29.8c7.6 6.2 15.1 12.3 22.7 18.5C18.1 53.8 10.6 59.2 3 64.7ZM47.5 48.3c7.6-6.2 15.1-12.3 22.7-18.5v34.9c-7.6-5.5-15.1-10.9-22.7-16.4ZM3.8 26.8c1.3-.9 2.5-1.8 3.9-2.8v6c-1.3-1.1-2.5-2.1-3.9-3.2ZM65.4 30v-6c1.3 1 2.6 1.9 3.9 2.8-1.3 1.1-2.6 2.1-3.9 3.2Z"/>
        <path fill="#fff" d="M48 22.1c0 6.3-5.1 11.5-11.5 11.5-6.3 0-11.5-5.1-11.5-11.5 0-6.3 5.1-11.5 11.5-11.5S48 15.8 48 22.1Zm-13.4 2c-.8-.8-1.6-1.6-2.3-2.4l-.6-.6c-.7-.6-1.5-.6-2-.1-.6.6-.6 1.4 0 2.1l3.6 3.6c1.1 1.1 1.7 1.1 2.8 0l7.3-7.3c.2-.2.5-.4.5-.7.1-.5.2-1 0-1.4-.2-.3-.8-.6-1.2-.6-.4 0-.9.3-1.2.6-1.4 1.3-2.7 2.7-4.1 4.1-1 .9-1.9 1.8-2.8 2.7Z"/>
        <path fill="#969696" d="m34.6 24.1 2.7-2.7 4.1-4.1c.3-.3.8-.6 1.2-.6.4 0 1 .3 1.2.6.2.3.1.9 0 1.4 0 .2-.3.5-.5.7L36 26.7c-1 1-1.7 1-2.8 0l-3.6-3.6c-.6-.7-.6-1.5 0-2.1.6-.5 1.4-.5 2 .1l.6.6 2.4 2.4Z"/>
        <path fill="#CBCBCB" d="M36.5 89.3c18.888 0 34.2-1.836 34.2-4.1 0-2.264-15.312-4.1-34.2-4.1-18.888 0-34.2 1.836-34.2 4.1 0 2.264 15.312 4.1 34.2 4.1Z"/>
    </g>
    <defs>
        <clipPath id="a"><path fill="#fff" d="M0 0h73v89.3H0z"/></clipPath>
    </defs>
</svg>