<svg xmlns="http://www.w3.org/2000/svg" id="reason-1" fill="none" viewBox="0 0 82 98">
    <g clip-path="url(#a)">
        <path fill="#969696" d="M81.1 22.1c0-3.2-2.2-5.8-5.4-6.4-.6-.1-1.1-.1-1.7-.1h-7.2V8.4c0-5.1-3.3-8.4-8.4-8.4H22.8c-5.1 0-8.4 3.3-8.4 8.4v7.3H7c-4.2 0-7 2.8-7 7V61c0 4.2 2.8 7 6.9 7h18v11.4c0 1.2.4 1.7 1.7 1.7h28c1.2 0 1.7-.4 1.7-1.7V68h17.8c4.3 0 7-2.7 7-7V22.1Zm-64-14.9c.1-2.6 2.4-4.7 5.1-4.8h36.1c3.6 0 5.7 2.1 5.7 5.7v7.3h-2.6V9c0-2.3-1.7-4-4-4H23.5c-2.3 0-3.9 1.7-4 4v6.2s0 .1-.1.2H17l-.1-.1c.1-2.6 0-5.3.2-8.1Zm41.8 2.4v5.9H22.3V8.9c0-.7.5-1.1 1.2-1.2H56.9c1.6 0 1.9.4 2 1.9Zm-5.3 68.6h-26V44.3h18.3v5.8c0 1.7.3 2 2 2h5.8l-.1 26.1Zm-5.1-28.7v-2.9l2.9 2.9h-2.9Zm30 11.6c0 2.5-1.6 4.2-4.1 4.2H56.3V51.4c0-.7-.2-1.2-.7-1.7l-7.2-7.2c-.5-.5-1-.7-1.7-.7H26.6c-1.3 0-1.7.4-1.7 1.7v21.7h-18c-2.7 0-4.3-1.6-4.3-4.3V32.1c1.5 1.1 3 2.4 4.7 3.3 1.7 1 3.7 1.1 5.8 1v2.7c.1 2.2 1.1 3.8 3.1 4.7 2 .9 3.9.6 5.6-.8 1.2-1 1.7-2.3 1.8-3.8v-2.7h34v2.7c.1 2.8 2.4 5.1 5.2 5.1 2.8 0 5.2-2.2 5.2-5.1v-2.8c4.3.4 7.6-1.3 10.4-4.7 0 .5.1.7.1.9v28.5ZM13.1 33.8c0-2.8 2.3-5.2 5.1-5.2 2.9 0 5.3 2.3 5.2 5.2H13.1Zm7.8 5.6c-.1 1.3-1.4 2.3-2.7 2.2-1.3 0-2.4-1.1-2.5-2.4-.1-.9 0-1.8 0-2.8h5.2c0 1.1.1 2.1 0 3Zm10.5-12.1c0-.9.6-1.3 1.5-1.3H48c1.2 0 1.6.5 1.6 1.6v6.2H31.4v-6.5Zm26.2 6.5c-.2-2.7 2.2-5.1 5.1-5.2 2.9 0 5.4 2.4 5.3 5.2H57.6Zm7.8 5.6c-.1 1.3-1.3 2.3-2.7 2.3-1.3 0-2.4-1.1-2.5-2.4v-2.9h5.2v3Zm13-11.9c0 .3-.2.7-.4.9l-3.3 3.3a6.94 6.94 0 0 1-4.1 2c-.9-5.1-3.8-7.8-8.1-7.7-4.2.1-7 2.9-7.8 7.8h-2.5V27.4c0-2.3-1.7-4-4-4H32.8c-2.4 0-4 1.7-4 4.1v6.1c0 .1 0 .1-.1.2h-2.5c-.8-5-3.6-7.8-7.9-7.8-4.3 0-7.1 2.7-8 7.7-1.4-.2-2.7-.7-3.8-1.7-1.3-1.2-2.5-2.4-3.7-3.7-.2-.2-.3-.5-.3-.7V22c0-2.1 1.7-3.7 3.7-3.8h67.5c3 0 4.5 1.5 4.5 4.5.3 1.6.3 3.2.2 4.8Z"/>
        <path style="fill:currentColor" d="M57.5 36.5v2.7c.1 2.8 2.4 5.1 5.2 5.1 2.8 0 5.2-2.2 5.2-5.1v-2.8c4.3.4 7.6-1.3 10.4-4.7 0 .5.1.7.1.9V61c0 2.5-1.6 4.2-4.1 4.2H56.2V51.3c0-.7-.2-1.2-.7-1.7l-7.2-7.2c-.5-.5-1-.7-1.7-.7H26.5c-1.3 0-1.7.4-1.7 1.7v21.7H6.9c-2.7 0-4.3-1.6-4.3-4.3V32c1.5 1.1 3 2.4 4.7 3.3 1.7 1 3.7 1.1 5.8 1V39c.1 2.2 1.1 3.8 3.1 4.7 2 .9 3.9.6 5.6-.8 1.2-1 1.7-2.3 1.8-3.8v-2.7c11.3.1 22.6.1 33.9.1Z"/>
        <path style="fill:currentColor" d="M70.7 33.7c-.9-5.1-3.8-7.8-8.1-7.7-4.2.1-7 2.9-7.8 7.8h-2.5V27.4c0-2.3-1.7-4-4-4H32.9c-2.4 0-4 1.7-4 4.1v6.1s0 .1-.1.2h-2.5c-.8-5-3.6-7.8-7.9-7.8-4.3 0-7.1 2.7-8 7.7C9 33.5 7.7 33 6.6 32c-1.3-1.2-2.5-2.4-3.7-3.7-.2-.2-.3-.5-.3-.7V22c0-2.1 1.7-3.7 3.8-3.8h67.5c3 0 4.5 1.5 4.5 4.5v4.8c0 .3-.1.7-.4.9l-3.3 3.3c-1.1 1.1-2.4 1.8-4 2Z"/>
        <path fill="#fff" d="M47.8 52.1c-1.7 0-2-.3-2-2v-5.8H27.5v33.9h26V52.1h-5.7Zm-17.6-2.5h13v2.5h-13v-2.5Zm-.1 5.2h20.8v2.5H30.1v-2.5Zm0 5.2h20.8v2.5H30.1V60ZM51 73H30.2v-2.5H51V73Zm0-5.2H30.2v-2.5H51v2.5Z"/>
        <path style="fill:currentColor" d="M64.1 15.5h-2.6V9.1c0-2.3-1.7-4-4-4H23.6c-2.3 0-3.9 1.7-4 4v6.2s0 .1-.1.2h-2.4l-.1-.1c0-2.7-.1-5.4 0-8.2.1-2.7 2.4-4.7 5.1-4.8h36.1c3.6 0 5.7 2.1 5.7 5.7v6.5c.2.3.2.6.2.9Z"/>
        <path fill="#fff" d="M49.7 27.6c0-1.2-.5-1.6-1.6-1.6H33c-1 0-1.5.4-1.5 1.3v6.5h18.3c-.1-2.1-.1-4.1-.1-6.2ZM47 31.2H34v-2.5h13v2.5ZM13.1 33.8c0-2.8 2.3-5.2 5.1-5.2 2.9 0 5.2 2.3 5.2 5.2H13.1ZM67.9 33.8H57.6c-.2-2.7 2.2-5.1 5.1-5.2 2.9 0 5.4 2.4 5.2 5.2ZM15.7 36.5h5.2c0 1 .1 2 0 2.9-.1 1.3-1.4 2.3-2.7 2.2-1.3 0-2.4-1.1-2.5-2.4v-2.7ZM60.2 36.5h5.2c0 1 .1 2 0 2.9-.1 1.3-1.3 2.3-2.7 2.3-1.3 0-2.4-1.1-2.5-2.4V36.5ZM51.4 49.5h-2.9v-2.9l2.9 2.9Z"/>
        <path fill="#969696" d="M30.1 57.3v-2.5h20.8v2.5H30.1ZM30.1 62.5V60h20.8v2.5H30.1ZM51 65.3v2.5H30.2v-2.5H51ZM51 70.5V73H30.2v-2.5H51ZM43.1 49.6v2.5h-13v-2.5h13ZM47 31.2H34v-2.5h13v2.5Z"/>
        <path fill="#CBCBCB" d="M40.6 97.3c18.888 0 34.2-1.836 34.2-4.1 0-2.264-15.312-4.1-34.2-4.1-18.888 0-34.2 1.836-34.2 4.1 0 2.264 15.312 4.1 34.2 4.1Z"/>
    </g>
    <defs>
        <clipPath id="a"><path fill="#fff" d="M0 0h81.1v97.3H0z"/></clipPath>
    </defs>
</svg>