<svg xmlns="http://www.w3.org/2000/svg" id="reason-4" fill="none" viewBox="0 0 73 102">
    <g clip-path="url(#a)">
        <path fill="#969696" d="M59.6 14.3C55.1 9.8 50.5 5.3 46 .7c-.5-.5-1-.7-1.8-.7H3.3C1.2 0 .5.7.5 2.8v77.4c0 2.2.7 2.9 2.9 2.9h54c2.1 0 2.9-.7 2.9-2.8V52h-1.5v28.2c0 1.4 0 1.5-1.5 1.5H3.5C2 81.7 2 81.6 2 80.2V2.9c0-1.4.1-1.5 1.4-1.5h40.9v11.7c0 2.2.7 2.9 3 2.9h11.6v15.1h1.5V15.9c-.1-.6-.3-1.1-.8-1.6Zm-6.3.3h-6.6c-.6 0-1-.2-1-.8V2.9l11.7 11.7h-4.1Z"/>
        <path fill="#969696" d="M70.9 32.4c-.5-.7-1.1-1.2-1.7-1.8-1.9-1.9-4-1.9-6 0C56.1 37.7 49 44.8 42 51.9c-1.5 1.5-3.3 2.8-4.4 4.6-1.1 1.8-1.5 4-2.2 6.1v.1c-.4 1-.4 1.9.4 2.7.8.8 1.7.7 2.6.4l5.4-1.8c.5-.2 1-.5 1.4-.9l6.9-6.9 18.4-18.4c.8-.8 1.3-1.7 1.6-3-.3-.8-.7-1.7-1.2-2.4ZM60.2 36c.2.2.5.6.7.8C54 43.7 47 50.6 40.1 57.6l-.8-.8C46.2 49.9 53.2 43 60.2 36Zm2 2.1c.2.2.5.6.7.8L42.1 59.7c-.2-.2-.5-.5-.8-.7 7-7 14-13.9 20.9-20.9ZM37.7 64.4c-.8.2-1.2-.2-1-.9.2-.7.4-1.4.7-2.2.8.9 1.5 1.6 2.2 2.5-.6.1-1.2.4-1.9.6Zm2.8-2.2c-.5-.6-1-1.2-1.7-1.7-.9-.7-1-1.4-.4-2.2 1.4 1.4 2.8 2.9 4.3 4.3-.8.6-1.5.6-2.2-.4Zm3.7-.4c-.2-.3-.5-.6-.7-.9l20.8-20.8c.2.2.5.5.7.8-6.9 7-13.8 13.9-20.8 20.9Zm22.2-21.9c-1.8-1.8-3.4-3.5-5.2-5.2.3-.2.6-.5.8-.7l5.1 5.1c-.2.3-.5.6-.7.8Zm3.5-3.5-1.4 1.4-5.2-5.2c.4-.4.9-.9 1.5-1.4.9-.8 2.1-.8 3 0l2.1 2.1c.8 1 .8 2.1 0 3.1ZM25.3 23.9c-.2-3.9-2-6.7-5.5-8.5-.3-.1-.6-.3-.9-.4 2.5-2.7 2.6-5.6.5-7.7-1.9-2-5.1-2-7.1-.2-2.3 2.1-2.2 5 .3 7.9h-.1c-.2.1-.4.2-.7.3-3.6 1.7-5.5 4.6-5.6 8.6-.1 1.8 0 3.6 0 5.5 0 .9.3 1.2 1.2 1.2h16.7c.8 0 1.1-.3 1.1-1.1.1-1.9.1-3.7.1-5.6Zm-13.1-13c0-2 1.6-3.6 3.7-3.6 2 0 3.6 1.7 3.6 3.7s-1.7 3.6-3.7 3.6-3.6-1.7-3.6-3.7Zm11.6 18.2h-16c.1-2.6-.4-5.2.4-7.7 1.2-3.6 5-6 8.6-5.4 4 .7 6.9 3.8 7 7.8v5.3ZM40.8 43.8H8.3c-1.1.1-2 1-2 2.1s.8 2.1 2 2.2h32.5c1.1-.1 2-1.1 2-2.2s-.9-2-2-2.1Zm-.1 2.8c-.2.1-.5 0-.8 0H9.1c-.2 0-.5.1-.7 0-.3-.1-.6-.5-.6-.6 0-.3.3-.6.6-.7.2-.1.5 0 .8 0h30.7c.3 0 .6-.1.8 0 .2.2.5.5.5.7.1.2-.2.5-.5.6ZM31.5 67.1H8.2c-1 .1-1.8 1-1.9 2-.1 1 .5 1.9 1.5 2.2.4.1.8.1 1.2.1h22.6c1.5 0 2.5-.9 2.5-2.2-.1-1.2-1.1-2.1-2.6-2.1Zm.5 2.8c-.2.1-.5.1-.8.1h-22c-.2 0-.5.1-.7 0-.3-.1-.6-.5-.6-.6 0-.3.3-.6.6-.8.2-.1.5 0 .7 0h22c.3 0 .6-.1.8 0 .2.2.5.5.5.7 0 .2-.3.5-.5.6ZM49 20.4H32.2c-1.5 0-2.5.9-2.5 2.2 0 1.3 1 2.2 2.6 2.2h16.8c1.6 0 2.6-.9 2.6-2.2-.2-1.3-1.2-2.2-2.7-2.2Zm0 2.9H32.2c-.8 0-1.3-.5-1-.9.2-.3.7-.5 1.1-.5H49c.6 0 1.1.1 1.1.8-.1.6-.6.6-1.1.6ZM49.1 26.2h-17c-1.4 0-2.4.9-2.4 2.2 0 1.3 1 2.2 2.5 2.2h17c1 0 1.7-.3 2.2-1.2.7-1.5-.4-3.2-2.3-3.2Zm-.2 3H32.3c-.5 0-1.1 0-1.2-.7 0-.8.6-.8 1.2-.8h16.6c.5 0 1.1 0 1.2.7 0 .8-.7.8-1.2.8ZM25.6 37.9H8.8c-1.6 0-2.6.9-2.6 2.2 0 1.3 1 2.2 2.5 2.2h17c1.5 0 2.5-.9 2.5-2.2 0-1.3-1-2.2-2.6-2.2Zm-.4 2.9H9.6c-.6 0-1.6.3-1.7-.7 0-1.1 1-.7 1.6-.7h15.7c.6 0 1.6-.3 1.6.7-.1 1-1 .7-1.6.7ZM25.8 61.3H9c-1.6 0-2.6.8-2.6 2.2 0 1.3 1 2.2 2.6 2.2h16.9c1 0 1.8-.3 2.2-1.2.6-1.6-.5-3.2-2.3-3.2Zm-.3 2.9H9c-.5 0-1.1 0-1.2-.7 0-.8.6-.8 1.2-.8h16.6c.5 0 1.1 0 1.2.7-.1.8-.7.8-1.3.8Z"/>
        <path fill="#fff" d="M57.4 14.6H46.7c-.6 0-1-.2-1-.8V2.9c3.9 3.8 7.8 7.8 11.7 11.7ZM60.2 36c.2.3.5.6.7.8C54 43.7 47 50.6 40.1 57.6l-.8-.8c7-6.9 13.9-13.8 20.9-20.8ZM44.2 61.8c-.2-.3-.5-.6-.7-.9l20.8-20.8c.2.2.5.5.7.8-6.9 7-13.8 13.9-20.8 20.9Z"/>
        <path style="fill:currentColor" d="M42.1 59.7c-.2-.2-.5-.5-.8-.7l20.9-20.9c.2.3.5.6.7.8L42.1 59.7ZM63.3 32.6c.4-.4.9-.9 1.5-1.4.9-.8 2.1-.8 3 0l2.1 2.1c.9.9.8 2.1 0 3l-1.4 1.4c-1.7-1.6-3.4-3.3-5.2-5.1Z"/>
        <path fill="#fff" d="M67.1 39.1c-.2.2-.5.5-.7.8-1.8-1.8-3.4-3.5-5.2-5.2.3-.2.6-.5.8-.7l5.1 5.1ZM42.8 62.7c-.8.5-1.6.5-2.2-.4-.5-.6-1-1.2-1.7-1.7-.9-.7-1-1.4-.4-2.2l4.3 4.3Z"/>
        <path style="fill:currentColor" d="M39.6 63.7c-.6.2-1.2.4-1.9.6-.8.2-1.2-.2-1-.9.2-.7.4-1.4.7-2.1.8.8 1.5 1.6 2.2 2.4ZM23.8 29.1h-16c.1-2.6-.4-5.1.4-7.6 1.2-3.6 5-5.9 8.6-5.4 4 .6 6.9 3.8 7 7.8.1 1.7 0 3.4 0 5.2ZM19.4 10.9c0 2-1.7 3.6-3.7 3.6s-3.6-1.7-3.6-3.7 1.7-3.6 3.7-3.6c2 .1 3.7 1.7 3.6 3.7Z"/>
        <path fill="#fff" d="M24.6 45.2h15.3c.3 0 .6-.1.8.1.2.1.5.5.5.7 0 .2-.3.5-.5.6-.2.1-.5.1-.8.1H9.1c-.2 0-.5.1-.7 0-.3-.1-.6-.4-.6-.6 0-.3.3-.6.6-.7.2-.1.5 0 .8 0 5.2-.2 10.3-.2 15.4-.2ZM20.3 68.5h10.9c.3 0 .6-.1.8.1.2.2.5.5.5.7 0 .2-.3.5-.5.6-.2.1-.5.1-.8.1h-22c-.2 0-.5.1-.7 0-.3-.1-.6-.5-.6-.6 0-.3.3-.6.6-.7.2-.1.5 0 .7 0 3.7-.2 7.4-.2 11.1-.2Z"/>
        <path style="fill:currentColor" d="M40.6 23.3h-8.4c-.8 0-1.4-.5-1-.9.2-.3.7-.5 1.1-.5H49c.6 0 1.1.1 1.1.8 0 .6-.5.7-1.1.7-2.8-.1-5.6-.1-8.4-.1Z"/>
        <path fill="#fff" d="M40.5 29.2h-8.2c-.5 0-1.1 0-1.2-.7 0-.8.6-.8 1.2-.8h16.6c.5 0 1.1 0 1.2.7 0 .8-.6.8-1.2.8-2.8-.1-5.6 0-8.4 0Z"/>
        <path style="fill:currentColor" d="M17.2 40.8H9.5c-.6 0-1.6.4-1.7-.7 0-1.1 1-.7 1.6-.7H25c.6 0 1.6-.3 1.6.7s-.9.7-1.5.7h-7.9ZM17.2 64.2H9c-.5 0-1.1 0-1.2-.7 0-.8.6-.8 1.2-.8h16.6c.5 0 1.1 0 1.2.7 0 .8-.6.8-1.2.8h-8.4Z"/>
        <path fill="#CBCBCB" d="M32.3 101.3c17.839 0 32.3-1.746 32.3-3.9s-14.461-3.9-32.3-3.9S0 95.246 0 97.4s14.461 3.9 32.3 3.9Z"/>
    </g>
    <defs>
        <clipPath id="a"><path fill="#fff" d="M0 0h72.1v101.3H0z"/></clipPath>
    </defs>
</svg>