<svg xmlns="http://www.w3.org/2000/svg" xml:space="preserve" id="rule-kz-1" x="0" y="0" style="enable-background:new 0 0 46.55 56.06" version="1.1" viewBox="0 0 46.55 56.06">
    <path d="M46.05.5H.5v55.06h5.2v-.04h40.35z" style="fill:#fff"/>

    <path d="M46.05 0H.5C.22 0 0 .22 0 .5v55.06c0 .28.22.5.5.5h5.2c.06 0 .12-.01.18-.04h40.17c.28 0 .5-.22.5-.5V.5c0-.28-.22-.5-.5-.5zM5.2 1v54.02H4.19V1H5.2zM1 1h2.19v54.06H1V1zm44.55 54.02H6.2V1h39.35v54.02z" style="fill:#9f9f9f"/>

    <path d="M11.349 26.953a.01.01 0 0 0-.011-.006l-.02.007c-.205-.021-.465.184-.728.28-.232.086-.772.214-1.02.21a1.198 1.198 0 0 1-.196-.026c-.059-.012-.117-.03-.178-.04a.635.635 0 0 0-.194.009.468.468 0 0 0-.233.107.31.31 0 0 0 .079.49.84.84 0 0 0 .492.113c-.159.02-.345.029-.456.022a2.554 2.554 0 0 1-.458-.068c.004.035.009.069.015.101H8.44a.01.01 0 0 0-.006.01c.072.347.312.54.655.54.057 0 .117-.006.18-.017.3-.052.599-.197.778-.314.355-.233.535-.496.744-.8.054-.08.11-.161.17-.245.106-.144.235-.266.384-.362a.01.01 0 0 0 .004-.011zm-1.794 1.103-.03.008h-.001l.031-.008zm.212-.064a9.148 9.148 0 0 1-.065.02l.065-.02zm-.074.024-.052.016a3.29 3.29 0 0 0 .052-.016zm-.075.023-.037.01.037-.01z" style="fill:currentColor"/>

    <path d="M13.326 20.7c.343-1.662 1.352-3.09 2.77-3.933 1.95-1.16 4.539-1.117 5.505 1.268a3.132 3.132 0 0 0 .478-1.58 2.912 2.912 0 0 0-.352-1.46c-1.059-1.972-3.34-2.011-5.157-1.169-1.357.63-2.704 1.97-3.45 3.242 1.305-1.778 3.257-3.282 5.534-3.163 1.306.068 2.42.925 2.437 2.247 0 .085-.004.17-.014.255a3.95 3.95 0 0 0-2.684-.83c-1.536.086-3.119 1.206-4.01 2.415a6.397 6.397 0 0 0-1.135 2.616l.079.091zM16.215 25.444c-.007-.526-.044-1.242.029-1.705.11-.813.51-1.735 1.321-2.057.394-.156.804-.167 1.189.025.275.138.502.366.635.657.493-.72.28-1.756-.472-2.204-.308-.196-.673-.246-1.028-.246-1.383 0-2.2 1.04-2.206 2.316 0 .185.01.4.032.587-.006-.208-.022-.355.008-.557.152-1.023 1.028-1.97 2.118-1.896.654.036 1.151.434 1.38 1.084-.288-.282-.626-.458-1.05-.453-.556.007-1.088.313-1.428.751-.255.337-.45.877-.535 1.283-.147.534-.009 1.472.007 2.415z" style="fill:currentColor;fill-rule:evenodd;clip-rule:evenodd"/>

    <path d="M26.372 13.573v-.001l-.001-.002v-.001l-.001-.001-.002-.003-.003-.001h-.002l-.978-.021-.322-.925-.001-.001-.002-.002-.002-.002-.002-.001-.001.001-.002-.001-.001.001-.003.002-.002.002-.001.001-.321.924-.975.022h-.002l-.003.001-.002.002-.001.002-.001.001v.003l.001.003.001.003.001.001.776.593-.281.93v.005l.002.003v.001l.002.001.001.001.004.001.005-.001.802-.557.804.56h.001l.004.001.005-.001.001-.001h.001l.001-.002.001-.003v-.005l-.283-.933.779-.592v-.002l.002-.003z" style="fill:currentColor"/>

    <path d="M18.107 17.273c-.25-.011-.5.006-.747.04-1.056.143-1.774.617-2.398 1.22.638-.788 1.476-1.387 2.613-1.586.54-.09 1.249-.053 1.769.144.429.163.79.41 1.042.774l.002.002c.31.455.455 1.139.353 1.684a2.239 2.239 0 0 1-.352.85c-.404-.872-1.202-1.332-2.11-1.394a2.926 2.926 0 0 0-.703.038c-.922.154-1.65.645-2.233 1.405.976-1.85 3.351-2.268 4.912-1.022.063-1.251-.934-2.078-2.148-2.155z" style="fill:currentColor;fill-rule:evenodd;clip-rule:evenodd"/>

    <path d="M41.67 28.152h-.002c.007-.032.012-.066.016-.101a2.542 2.542 0 0 1-.459.068 2.794 2.794 0 0 1-.456-.022.84.84 0 0 0 .493-.113.31.31 0 0 0 .078-.49.468.468 0 0 0-.232-.107.635.635 0 0 0-.194-.009c-.062.01-.12.028-.179.04a1.189 1.189 0 0 1-.195.026c-.248.004-.789-.124-1.02-.21-.264-.096-.524-.301-.728-.28l-.02-.007a.01.01 0 0 0-.011.005.01.01 0 0 0 .003.012c.15.096.278.218.384.362.06.084.116.165.17.244.209.305.389.568.744.8.18.118.478.263.778.315.063.011.123.016.18.016.343 0 .583-.192.655-.538a.009.009 0 0 0-.006-.011zm-1.086-.088-.03-.008.031.009h-.001zm-.242-.072zm.073.023zm.075.023.038.011-.038-.01z" style="fill:currentColor"/>

    <path d="M36.783 20.7c-.342-1.662-1.352-3.09-2.769-3.933-1.95-1.16-4.54-1.117-5.506 1.268a3.132 3.132 0 0 1-.477-1.58 2.912 2.912 0 0 1 .35-1.46c1.06-1.972 3.342-2.011 5.158-1.169 1.357.63 2.704 1.97 3.45 3.242-1.305-1.778-3.257-3.282-5.534-3.163-1.306.068-2.42.925-2.436 2.247 0 .085.004.17.013.255h.001a3.95 3.95 0 0 1 2.684-.83c1.536.086 3.118 1.206 4.01 2.415a6.397 6.397 0 0 1 1.135 2.616l-.08.091zM33.895 25.444c.007-.526.043-1.242-.03-1.705-.11-.813-.51-1.735-1.32-2.057-.395-.156-.805-.167-1.19.025a1.376 1.376 0 0 0-.635.657c-.492-.72-.28-1.756.472-2.204.308-.196.674-.246 1.028-.246 1.383 0 2.2 1.04 2.206 2.316.001.185-.009.4-.031.587.006-.208.021-.355-.009-.557-.152-1.023-1.027-1.97-2.117-1.896-.654.036-1.152.434-1.381 1.084.289-.282.627-.458 1.051-.453.555.007 1.087.313 1.427.751.255.337.451.877.536 1.283.147.534.008 1.472-.007 2.415z" style="fill:currentColor;fill-rule:evenodd;clip-rule:evenodd"/>

    <path d="M32.003 17.273c.249-.011.5.006.747.04 1.055.143 1.773.617 2.397 1.22-.638-.788-1.476-1.387-2.613-1.586-.539-.09-1.248-.053-1.768.144-.43.163-.79.41-1.043.774l-.002.002a2.413 2.413 0 0 0-.352 1.684c.057.304.176.593.351.85.405-.872 1.202-1.332 2.111-1.394.243-.016.464-.002.703.038.922.154 1.65.645 2.233 1.405-.977-1.85-3.352-2.268-4.912-1.022-.064-1.251.933-2.078 2.148-2.155z" style="fill:currentColor;fill-rule:evenodd;clip-rule:evenodd"/>

    <path d="m41.975 29.277-.334-.204.376-.195c.103-.055.151-.2.116-.344a.01.01 0 0 0-.002-.004c-.1-.111-.247-.152-.35-.097l-.628.34-.119-.073a.68.68 0 0 0 .4-.125c.147-.11.234-.287.259-.523a.01.01 0 0 0-.003-.008.01.01 0 0 0-.009-.002 2.57 2.57 0 0 1-.457.068 2.35 2.35 0 0 1-.285-.006.952.952 0 0 0 .327-.112.318.318 0 0 0 .167-.236.314.314 0 0 0-.113-.292l.417.2c.028.013.059.019.09.019a.341.341 0 0 0 .257-.138c.028-.147-.028-.289-.134-.338l-.364-.166.356-.244c.096-.067.126-.217.073-.356a.01.01 0 0 0-.003-.004c-.112-.098-.263-.12-.359-.053l-.478.34a1.5 1.5 0 0 0-.23-1.005l.263-.133a.008.008 0 0 0 .003-.003h.001V25.573l-.003-.003-.084-.068.39.13c.02.008.042.01.064.01.096 0 .2-.062.264-.165a.01.01 0 0 0 .002-.004c.01-.149-.063-.283-.174-.32l-.368-.116.312-.276c.087-.078.1-.23.03-.362a.01.01 0 0 0-.003-.003c-.124-.084-.277-.088-.364-.01l-.12.111c-.031-.283-.15-.549-.343-.761l.154-.107.076.016a.197.197 0 0 0 .039.003c.104 0 .212-.078.268-.198a.009.009 0 0 0 .001-.004c-.008-.15-.097-.274-.211-.296l-.271-.05c.005-.047.007-.095.007-.143v-.015l.158-.178c.077-.088.07-.241-.015-.363a1.247 1.247 0 0 0-.562-.366l.165-.148.002-.003.001-.002v-.006l-.003-.003-.002-.001-.21-.09.014-.063a.341.341 0 0 0 .192-.222c-.02-.121-.095-.22-.19-.255a1.217 1.217 0 0 0-.182-.442c.03-.095-.003-.214-.084-.304a.38.38 0 0 0-.188-.022l.06-.094.001-.003.001-.002-.001-.004v-.002c-.002 0-.003-.001-.003-.002l-.002-.001-.146-.046a1.104 1.104 0 0 0-.616-1.112l.065-.126v-.002l.001-.003-.001-.003s0-.002-.002-.003h-.002l-.003-.002-.134-.03a1.076 1.076 0 0 0-.668-.95l.05-.122a.009.009 0 0 0-.002-.009l-.001-.002h-.003l-.003-.002-.136-.011a1.04 1.04 0 0 0-.674-.799v-.001l.015-.117v-.005l-.002-.002-.002-.002-.003-.001h-.001l-.113-.008-.037-.168a18.463 18.463 0 0 0-3.41-2.831.01.01 0 0 0-.011 0l-.033.02h-.001l-.102.06a5.68 5.68 0 0 0-1.154-.526c.035-.105-.014-.236-.122-.324a.01.01 0 0 0-.005-.002c-.146-.028-.288.028-.337.134l-.025.054a4.883 4.883 0 0 0-1.087-.13l.142-.378c.04-.11-.021-.25-.145-.333a.01.01 0 0 0-.004-.002c-.149-.015-.285.053-.325.163l-.207.584-.111.016a3.247 3.247 0 0 0-1.061.361l.378-1.36c.027-.102-.035-.195-.185-.278a.012.012 0 0 0-.004-.002c-.17-.003-.271.047-.298.149l-.501 1.94a3.294 3.294 0 0 0-.63.834c-.248.46-.366.953-.353 1.466.008.307.061.61.157.899L26.21 24.97a4.644 4.644 0 0 0-.163-.036L28.45 12c.02-.115-.064-.242-.2-.303a.009.009 0 0 0-.005 0c-.149.01-.271.1-.292.216l-2.167 12.976a4.92 4.92 0 0 0-.164-.021l1.266-13.11c.01-.116-.085-.236-.226-.284a.01.01 0 0 0-.004 0c-.148.023-.262.124-.272.24l-.145 1.855a.01.01 0 0 0 .01.01l.086.002-.1.076a.01.01 0 0 0-.003.007l-.877 11.18a4.926 4.926 0 0 0-.168-.007l.092-10.142a.01.01 0 0 0-.004-.007l-.216-.15a.01.01 0 0 0-.01 0l-.216.15a.01.01 0 0 0-.004.007l.092 10.142a4.932 4.932 0 0 0-.168.008l-.877-11.183a.009.009 0 0 0-.004-.007l-.096-.074.084-.001a.01.01 0 0 0 .009-.01l-.146-1.856c-.01-.116-.124-.217-.271-.24h-.005c-.141.048-.236.168-.226.284l1.267 13.11-.165.021-2.167-12.976c-.02-.115-.143-.206-.292-.217l-.004.001c-.136.06-.22.188-.2.303l2.401 12.935c-.055.011-.109.023-.163.036l-1.967-7.617a3.13 3.13 0 0 0 .156-.898 2.904 2.904 0 0 0-.352-1.466 3.297 3.297 0 0 0-.63-.835l-.502-1.94c-.027-.1-.128-.15-.298-.147h-.004c-.15.084-.211.177-.184.278l.378 1.361a3.246 3.246 0 0 0-1.173-.377l-.207-.584c-.04-.11-.176-.178-.324-.163a.01.01 0 0 0-.005.002c-.123.083-.184.224-.144.333l.141.378c-.353.001-.718.045-1.086.13l-.025-.054c-.05-.106-.192-.162-.338-.134a.01.01 0 0 0-.004.002c-.109.088-.158.22-.123.324a5.68 5.68 0 0 0-1.154.526l-.101-.06h-.002l-.033-.02a.01.01 0 0 0-.01 0 18.459 18.459 0 0 0-3.408 2.826.01.01 0 0 0-.003.005l-.037.168-.112.007h-.002l-.002.001-.003.003-.001.002v.003l-.001.002.014.117.001.002a1.04 1.04 0 0 0-.674.798l-.136.011-.002.001-.003.001-.002.002c-.001.003-.002.006-.001.009l.05.122c-.39.16-.65.53-.669.95l-.134.03-.003.001-.002.001-.002.004v.007l.065.126a1.104 1.104 0 0 0-.616 1.112l-.145.046-.002.001-.003.002v.002l-.002.004v.002l.001.003.061.093a.38.38 0 0 0-.188.023c-.081.09-.114.21-.084.304-.09.134-.151.284-.182.442-.094.034-.169.134-.19.256a1.283 1.283 0 0 0 .207.285l-.21.089h-.001l-.002.002-.002.002v.003c-.001 0-.002.002-.001.003v.003l.002.002.166.148a1.249 1.249 0 0 0-.271.344.341.341 0 0 0-.29.022c-.086.122-.093.275-.016.363l.159.179-.001.015c0 .048.002.095.007.142l-.27.05c-.115.022-.204.147-.212.296l.001.004c.056.12.165.198.268.198a.197.197 0 0 0 .039-.003l.076-.016.154.107a1.348 1.348 0 0 0-.342.762l-.121-.111c-.087-.079-.24-.075-.363.009a.008.008 0 0 0-.003.003c-.07.132-.058.284.029.362l.313.276-.369.117c-.111.036-.184.17-.173.319v.004c.065.103.17.166.265.166a.205.205 0 0 0 .064-.01l.39-.131-.084.068-.002.003-.001.002v.006l.001.001.003.003.264.133a1.485 1.485 0 0 0-.231 1.005l-.478-.34c-.096-.067-.247-.045-.36.053a.009.009 0 0 0-.002.004c-.053.14-.022.289.074.356l.355.244-.364.166c-.106.05-.162.192-.133.338a.341.341 0 0 0 .256.138.213.213 0 0 0 .09-.02l.417-.199a.314.314 0 0 0-.112.292.318.318 0 0 0 .166.236c.121.064.226.099.328.112-.11.008-.216.01-.286.006a2.57 2.57 0 0 1-.457-.068.01.01 0 0 0-.008.002.01.01 0 0 0-.003.008c.025.237.112.413.258.523a.68.68 0 0 0 .4.125l-.119.073-.627-.34c-.103-.055-.25-.014-.35.097a.009.009 0 0 0-.002.004c-.036.145.013.29.116.344l.375.195-.334.205c-.098.061-.137.21-.09.351a.353.353 0 0 0 .24.107.22.22 0 0 0 .118-.031l.575-.368.26.136.003.006c.19.263.307.56.35.875l-.467.373-.675-.266c-.109-.042-.25.017-.335.139a.009.009 0 0 0-.002.004c-.018.148.048.286.157.328l.407.151-.312.248c-.09.074-.11.225-.047.36a.364.364 0 0 0 .218.08.231.231 0 0 0 .147-.048l.531-.44.268.1.004.002-.015.046-.13.2c-.057.11-.076.441.009.629.023.057.1.141.174.222l.078.087-.085.086-.702-.181c-.113-.028-.246.047-.316.178a.01.01 0 0 0-.001.005c0 .149.082.278.196.306l.422.1-.28.285c-.08.084-.082.237-.003.363a.375.375 0 0 0 .188.055c.07 0 .135-.023.179-.068l.474-.5 1.253.299-.785 1.024-.72-.094c-.115-.014-.238.077-.291.216v.004c.017.148.115.266.23.28l.432.049-.242.316c-.07.093-.053.245.04.36a.384.384 0 0 0 .153.034.257.257 0 0 0 .21-.091l.409-.555.462.052c-.027.245-.047.492-.059.74a5.885 5.885 0 0 0 0 .464l-.502-.004c-.117 0-.228.105-.264.25v.004c.036.145.147.25.264.25l.434-.005-.202.343c-.058.102-.023.25.085.354a.39.39 0 0 0 .111.018c.1 0 .188-.04.234-.11.18.715.505 1.425.976 2.122l-1.538 1.292a.01.01 0 0 0-.001.013l.618.778a.01.01 0 0 0 .004.003l1.432.405c.757.758 1.53 1.424 2.364 2.037l.436.313.298.202-.364.997v.007l.001.002a1.324 1.324 0 0 0 .708.45.01.01 0 0 0 .007-.002l.728-.727.328.173.476.253a.01.01 0 0 0 .007 0l1.101-.291a16.834 16.834 0 0 0 6.55 1.313c2.27 0 4.474-.442 6.549-1.313l1.102.292h.002a.01.01 0 0 0 .004-.001l.477-.252.327-.174.729.727a.01.01 0 0 0 .009.002c.293-.08.543-.24.705-.45l.002-.003v-.006l-.365-.997.298-.203.436-.312a20.285 20.285 0 0 0 2.364-2.037l1.432-.405a.01.01 0 0 0 .005-.003l.618-.778a.01.01 0 0 0-.001-.013l-1.51-1.268-.028-.024c.47-.697.797-1.407.976-2.122.046.07.135.11.234.11a.39.39 0 0 0 .111-.019c.108-.103.143-.252.085-.353l-.202-.343.434.004c.117 0 .228-.105.264-.25v-.004c-.036-.145-.147-.25-.264-.25l-.501.004a5.147 5.147 0 0 0-.001-.463c-.012-.249-.032-.495-.059-.74l.462-.052.41.555c.045.06.123.091.209.091a.385.385 0 0 0 .153-.034c.093-.115.11-.267.04-.36l-.242-.316.432-.05c.115-.013.213-.131.231-.279a.01.01 0 0 0 0-.004c-.054-.14-.176-.23-.293-.216l-.719.094-.785-1.024 1.253-.3.474.5a.243.243 0 0 0 .178.069.374.374 0 0 0 .188-.055c.08-.126.078-.28-.003-.363l-.28-.284.423-.101c.113-.028.196-.157.196-.306a.01.01 0 0 0-.001-.005c-.07-.131-.203-.206-.317-.178l-.702.18-.084-.085.078-.087c.074-.08.15-.165.174-.222.085-.188.066-.52.009-.628v-.001l-.13-.2a2.711 2.711 0 0 1-.016-.046l.272-.101.532.439c.04.032.092.048.147.048a.364.364 0 0 0 .218-.08c.063-.135.043-.286-.048-.36l-.311-.248.407-.151c.109-.042.175-.18.157-.328l-.002-.004c-.086-.122-.227-.18-.336-.139l-.674.266-.468-.373a1.936 1.936 0 0 1 .353-.881l.26-.136.576.368a.22.22 0 0 0 .118.032.352.352 0 0 0 .24-.108c.046-.142.008-.29-.091-.352zM20.38 20.405a.01.01 0 0 0 .008.005.01.01 0 0 0 .009-.004l.044-.067 2.397 5.02c-.05.025-.1.05-.149.077l-3.17-5.61.005-.412c.369.238.663.574.857.99zm-.791 1.505-.007.024-.018.058-.009.024c-.013.036-.027.071-.042.106l-.01.022a1.48 1.48 0 0 1-.112.201 1.39 1.39 0 0 0-.995-.767l-.002-.002a1.393 1.393 0 0 0-.469-.003l-.003.001a1.69 1.69 0 0 0-.6.219h-.001c-.378.227-.628.58-.792.93a3.46 3.46 0 0 0-.277.897v.002l-.003.02a3.588 3.588 0 0 0-.024.16l-.002.017-.007.062v.005a4.39 4.39 0 0 0-.007.07l-.001.017a5.621 5.621 0 0 0-.005.064v.01a5.484 5.484 0 0 0-.004.073l-.001.02a6.309 6.309 0 0 0-.005.154v.02l-.002.065v.017a10 10 0 0 0 0 .078V24.65l-.006-.098c-.018-.31-.035-.6-.035-.858 0-.257.017-.482.067-.663.076-.365.262-.92.534-1.279.358-.462.889-.741 1.42-.748l.047.001h.032l.041.003.03.003c.014 0 .027.003.041.004l.028.004.042.007.027.005c.014.002.027.006.04.009l.028.006.04.011.027.008.038.013.028.01.036.014.029.012.034.016.03.014.033.017.03.017.032.018.03.019.032.02.03.02.031.023.03.022.033.026.027.022.037.031.023.02.058.055.003.002h.002l.001.001h.003l.002-.001h.001l.001-.001.001-.002.002-.002v-.006c-.232-.658-.738-1.055-1.39-1.09-.511-.035-1.014.157-1.417.539a2.405 2.405 0 0 0-.717 1.421l-.002.02a1.507 1.507 0 0 0-.003.034l-.002.022-.002.031v.022l-.001.018v-.002a4.97 4.97 0 0 1-.003-.102v-.026c-.001-.034-.002-.068-.001-.102.007-1.358.91-2.307 2.196-2.307a3.246 3.246 0 0 1 .238.01c.32.023.574.1.785.235.351.21.605.566.696.98.056.256.048.518-.02.762zm12.598-.336-.003-.001a1.396 1.396 0 0 0-.468.003l-.003.002a1.391 1.391 0 0 0-.995.767 1.476 1.476 0 0 1-.144-.275l-.013-.037a1.401 1.401 0 0 1-.044-.137l-.011-.044a1.588 1.588 0 0 1-.004-.704c.091-.414.345-.77.696-.98.26-.167.586-.245 1.022-.245 1.287 0 2.19.949 2.197 2.307v.102l-.001.026-.003.102v.002-.017l-.002-.023c0-.01 0-.02-.002-.03l-.001-.023-.003-.034-.002-.02a2.405 2.405 0 0 0-.717-1.421c-.403-.383-.907-.574-1.418-.54-.651.036-1.157.433-1.39 1.09v.006h.001l.001.003.002.002h.001l.003.001h.006l.002-.002c.315-.307.656-.455 1.045-.45.531.006 1.062.286 1.42.748.272.36.457.913.534 1.28.05.18.066.405.067.662 0 .257-.017.547-.035.858l-.006.098v-.272l-.002-.064v-.02l-.002-.076v-.014l-.003-.065-.001-.018a4.256 4.256 0 0 0-.004-.075v-.009a4.023 4.023 0 0 0-.005-.064l-.002-.018a3.485 3.485 0 0 0-.006-.07v-.004a2.708 2.708 0 0 0-.008-.063l-.002-.016a2.61 2.61 0 0 0-.023-.16l-.004-.02v-.003a3.46 3.46 0 0 0-.277-.897c-.197-.42-.516-.844-1.033-1.049a1.702 1.702 0 0 0-.36-.1zm-2.464-3.71zm.16 10.78 1.961-.508c-.056.117-.108.23-.157.342l-1.768.328a4.606 4.606 0 0 0-.037-.163zm-8.118 4.869-.014.016a.528.528 0 0 0-.265.03l.156-.16c.04.04.082.077.123.114zm1.877 1.045-.805 2.899a7.923 7.923 0 0 1-.358-.113l1.004-2.837c.053.018.106.035.16.05zm.42.105-.549 2.958a8.188 8.188 0 0 1-.366-.081l.752-2.914c.054.013.109.026.163.037zm.428.067-.289 2.996a8.036 8.036 0 0 1-.372-.05l.496-2.967c.054.008.11.015.165.021zm.432.03-.033 3.608-.382-.455.248-3.16c.055.004.11.006.167.008zm.433-.007.247 3.157-.382.455-.033-3.604a5.13 5.13 0 0 0 .168-.008zm.43-.044.496 2.967c-.123.02-.249.036-.372.05l-.29-2.996c.056-.006.111-.013.166-.021zm.425-.083.753 2.913c-.121.03-.244.058-.367.082l-.549-2.958c.055-.011.11-.024.163-.037zm.417-.119 1.003 2.837c-.118.04-.238.078-.358.113l-.805-2.9c.054-.015.107-.032.16-.05zm1.84-1.107.157.159a.52.52 0 0 0-.266-.03l-.014-.016c.042-.037.083-.075.123-.113zm1.55-3.468 1.24.011a3.159 3.159 0 0 0-.023.252l-1.225-.096.008-.167zm8.42-8.083.158.19-.192.056c.012-.082.023-.163.033-.246zm-19.633 7.805a5.094 5.094 0 0 0-.06-.261l1.356.106a5.136 5.136 0 0 0-.007.167l-1.29-.012zm8.471 9.094c-.148.036-.299.07-.451.1l-.149-.803a8.5 8.5 0 0 0 .396-.088l.204.791zm.5-.997.273.774a8.942 8.942 0 0 1-.441.137l-.22-.79c.13-.037.26-.078.387-.121zm-3.68 1.076-.014.143a10.306 10.306 0 0 1-.458-.063l.09-.535.381.455zm2.302-.457.09.537c-.152.024-.305.046-.458.063l-.014-.145.382-.456zm2.563-4.335a.523.523 0 0 0-.031-.166l.142.146-.11.02zm.522 3.774c-.147.122-.225.17-.283.207-.022.014-.042.026-.06.04l-.036.019-.349-.73c.121-.06.242-.122.36-.187l.368.651zm-.686.42a6.934 6.934 0 0 1-.425.18l-.288-.77c.125-.049.25-.1.374-.155l.34.744zm-2.416.04-.173-.145.145-.022.028.167zm-.3.081-.1.119-.02-.22.12.101zm-.431.152-.124-.103.106-.126.017.23zm.039.502a9.61 9.61 0 0 1-.462.026l-.005-.553.455.382.012.145zm-1.266 0 .012-.148.454-.381-.005.555a9.713 9.713 0 0 1-.461-.026zm.04-.504.017-.224.103.122-.12.102zm-.333-.028-.102-.122.124-.104-.022.226zm-.399-.206.028-.164c.047.008.095.015.142.021l-.17.143zm-.895.482.204-.79c.13.032.263.061.396.087l-.15.802c-.151-.03-.302-.063-.45-.099zm-1.686-4.713-.11-.02.142-.145a.52.52 0 0 0-.032.165zm1.186 3.716c.128.043.257.084.387.122l-.22.789a8.942 8.942 0 0 1-.44-.137l.273-.774zm-.682-.267c.123.054.249.106.374.155l-.288.77a6.934 6.934 0 0 1-.425-.18l.339-.745zm-.657-.326c.117.065.238.127.36.187l-.349.73-.036-.02a1.134 1.134 0 0 0-.06-.04c-.059-.035-.136-.084-.284-.205l.369-.652zm15.832-11.176-.078-.093.089-.118c.145-.201.281-.404.407-.605l.178-.05.471.56-1.067.306zm.737-1.37c.125-.235.238-.472.336-.708l.032-.08.237-.068.47.561-1.066.306-.009-.01zm-5.01.49a.66.66 0 0 0-.237-.185l.117-.08c.044.086.083.175.12.264zm-13.68 5.093a2.783 2.783 0 0 0-.023-.252l1.24-.011.008.167-1.225.096zm-1.321-5.094c.038-.089.076-.178.12-.265l.118.081a.66.66 0 0 0-.238.184zm-5.848-3.006-.192-.055.16-.19c.01.082.02.163.032.245zm.47 1.729.033.08c.098.236.21.473.335.708l-.009.011-1.066-.306.47-.561.237.068zm.688 1.342a10.608 10.608 0 0 0 .496.723l-.079.093-1.066-.306.47-.56.179.05zm23.131 1.639c.042-.057.086-.115.133-.173l.366-.105a2.89 2.89 0 0 0-.502.282l.003-.004zm-5.986 2.694 1.357-.106a5.067 5.067 0 0 0-.06.261l-1.29.012a4.85 4.85 0 0 0-.007-.167zm-2.218 4.44.124.18a.52.52 0 0 0 .268.391l1.312 1.91a8.01 8.01 0 0 1-.316.202l-1.53-2.594c.048-.029.095-.059.142-.09zm-.37.223 1.48 2.62c-.109.06-.22.118-.333.173l-1.296-2.716c.05-.025.1-.05.148-.077zm-.39.19 1.247 2.739c-.114.05-.23.098-.347.143l-1.054-2.818c.052-.02.103-.042.154-.064zm-4.852 2.882a7.99 7.99 0 0 1-.347-.143l1.247-2.74c.05.023.102.045.154.065l-1.055 2.818zm-.638-.279a8.05 8.05 0 0 1-.333-.173l1.482-2.62c.048.027.098.052.148.077l-1.297 2.716zm-.61-.333a8.02 8.02 0 0 1-.317-.202l1.312-1.91a.526.526 0 0 0 .268-.39l.125-.182c.046.031.093.061.14.09l-1.528 2.594zm-2.275-7.53a5.933 5.933 0 0 0-.102-.29l1.591.266-.022.166-1.467-.142zm-6.864-6.524a7.756 7.756 0 0 0 .044.197c.027.112.058.224.09.336l-.137.163-.934-.268.022-.194.334-.4.581.166zm27.462.428-.934.268-.137-.163a7.344 7.344 0 0 0 .134-.533l.581-.166.335.4.021.194zm-7.699 5.807c-.038.1-.072.196-.102.29l-1.467.141a4.757 4.757 0 0 0-.021-.166l1.59-.265zm-1.569 1.56 1.246.121.012.248v.012l-1.28-.214c.009-.055.016-.11.022-.166zm-.067.429 1.351.25c.013.097.03.191.05.284l-1.438-.371a5.15 5.15 0 0 0 .037-.163zm-.106.42 1.596.443a3.8 3.8 0 0 0 .131.345l-1.777-.629a4.92 4.92 0 0 0 .05-.16zm-.141.409 2.063.772c.077.139.162.278.254.42l-.043.027-2.338-1.065c.022-.05.043-.102.064-.154zm-.177.395 2.139 1.021c-.111.067-.223.13-.335.191l-1.881-1.064a5.34 5.34 0 0 0 .077-.148zm-.21.378 1.692.998c-.107.052-.214.1-.322.147l-1.461-1.004.09-.14zm-.244.359 1.285.917a7.425 7.425 0 0 1-.306.105l-1.08-.89c.034-.043.068-.087.101-.132zm-.273.336.92.785c-.095.025-.19.05-.285.072l-.747-.734c.038-.04.075-.082.112-.123zm-8.06.857a7.842 7.842 0 0 1-.285-.072l.918-.785.113.123-.747.734zm-.618-.17a7.43 7.43 0 0 1-.307-.106l1.285-.917c.033.045.068.089.102.132l-1.08.89zm-.635-.237a7.468 7.468 0 0 1-.322-.147l1.693-.998c.029.048.059.095.09.141l-1.461 1.004zm-.644-.31a8.269 8.269 0 0 1-.335-.192l2.139-1.02c.025.05.05.099.077.148l-1.881 1.063zm-.648-.389-.043-.028a6.56 6.56 0 0 0 .254-.419l2.064-.772c.02.052.042.103.064.154l-2.338 1.065zm.406-.84c.05-.114.094-.229.132-.345l1.595-.443.05.16L18.57 32zm.221-.674c.02-.093.037-.187.05-.283l1.35-.251.037.163-1.437.371zm.075-.582v-.012c.006-.086.01-.168.012-.248l1.246-.12.022.166-1.28.214zm-.443-2.266a9.252 9.252 0 0 0-.157-.342l1.962.507a4.65 4.65 0 0 0-.036.163l-1.769-.328zm-7.36-6.568-.052-.015.158-.651.363.104-.47.562zm2.92 4.722a4.555 4.555 0 0 1 .135.176 2.879 2.879 0 0 0-.5-.28l.365.104zm25.058-.262-.387-.462.513-.147-.126.61zm.06-4.475-.052.015-.47-.562.363-.104.159.651zm-8.354 2.44a.929.929 0 0 0 .239.28l-2.216 1.894a5.043 5.043 0 0 0-.113-.123l2.09-2.051zm.552.435c.316.075.597-.073.757-.401.077.054.142.116.198.184l-3.211 2.292a4.853 4.853 0 0 0-.102-.132l2.358-1.943zm.082.791a.655.655 0 0 0 .118.338l-2.214 1.305a4.8 4.8 0 0 0-.09-.141l2.186-1.502zm.382.547a.49.49 0 0 0 .16.027h.003a.493.493 0 0 0 .355-.154c.095.155.143.352.137.56a.492.492 0 0 0-.777.017l-2.145 1.024a4.96 4.96 0 0 0-.077-.149l2.344-1.325zm-.21.83a.493.493 0 0 0 .156.277l-2.036.762a5.23 5.23 0 0 0-.064-.154l1.944-.886zm.424.506a2.587 2.587 0 0 1-.054.357l-2.109.585a5.012 5.012 0 0 0-.05-.16l2.212-.782zm-5.426.216.161.054.062.14-.69.69-.162-.047-.046-.162.675-.675zm-2.99 4.278-.162-.054-.062-.139.69-.69.163.046.045.162-.675.675zm2.315-.675.045-.162.163-.046.685.69-.065.146-.151.05-.677-.678zm.644-2.284-.163-.046-.046-.162.69-.685.146.064.051.152-.678.677zm.62 2.477-.138.062-.69-.69.045-.163.163-.046.675.675-.054.162zm-3.386-2.523-.163.046-.675-.675.054-.161.14-.062.69.69-.046.162zm-.163 1.686.163.046.046.162-.69.685-.146-.064-.051-.152.678-.677zm.599-2.122-.163.046-.685-.69.065-.146.151-.05.677.678-.045.162zm-6.001-.696a2.574 2.574 0 0 1-.054-.357l2.212.783a4.842 4.842 0 0 0-.05.16l-2.108-.586zm.213-.586a.492.492 0 0 0 .156-.278l1.945.885a4.873 4.873 0 0 0-.065.155l-2.036-.762zm.069-.657a.49.49 0 0 0-.777-.018 1.013 1.013 0 0 1 .136-.56.492.492 0 0 0 .356.156h.002a.49.49 0 0 0 .161-.028l2.344 1.325a4.96 4.96 0 0 0-.077.149l-2.145-1.024zm2.355.645L18.612 25.9c.07-.1.11-.216.117-.338l2.186 1.502-.09.14zm-2.969-2.65c.056-.068.121-.13.198-.184.16.328.442.476.758.4l2.358 1.944a5.23 5.23 0 0 0-.102.132l-3.212-2.292zm1.269.062a.928.928 0 0 0 .239-.28l2.09 2.051c-.039.04-.076.082-.113.123l-2.216-1.894zm-7.668 1.293-.388.462-.125-.609.513.147zm26.742.13.21.251a2.825 2.825 0 0 0-.592-.073c-.1 0-.202.006-.302.019l.684-.197zm-8.47-8.166.002-.002c.237-.343.577-.595 1.038-.77.487-.185 1.18-.242 1.764-.144l.094.018.03.006a4.3 4.3 0 0 1 .064.013l.035.009.058.013.037.01.055.013.038.01.052.016.039.011.051.016.039.012.05.017.038.013.05.018.038.014.049.019.037.015a3.484 3.484 0 0 1 .17.073l.048.023a3.965 3.965 0 0 1 .2.102l.047.026.033.02a3.319 3.319 0 0 1 .159.097l.05.032.028.018.056.039.02.014.074.053.003.003.076.058.013.01.061.049.025.02.049.041.028.025.044.038.03.027.042.038.031.03.04.037.031.032a3.422 3.422 0 0 1 .07.07l.038.039.032.034.036.039.032.035a7.055 7.055 0 0 1 .068.077l.016.018-.017-.015-.02-.019-.03-.027-.021-.018-.032-.028-.02-.018a5.82 5.82 0 0 0-.108-.09l-.001-.002a4.205 4.205 0 0 0-.055-.044l-.018-.015-.04-.03-.022-.017-.036-.028-.026-.019a3.254 3.254 0 0 0-.035-.025l-.027-.02-.036-.025-.028-.019a3.297 3.297 0 0 0-.065-.043l-.037-.024-.03-.019a3.626 3.626 0 0 0-.108-.066l-.03-.017a2.921 2.921 0 0 0-.043-.024l-.029-.016-.047-.025-.027-.015-.058-.03-.018-.008a3.997 3.997 0 0 0-.077-.037l-.02-.008-.06-.028-.03-.012-.052-.022-.034-.013a3.679 3.679 0 0 0-.05-.02l-.036-.013a3.196 3.196 0 0 0-.05-.018l-.038-.014a3.24 3.24 0 0 0-.05-.016l-.039-.013a5.14 5.14 0 0 0-.05-.016l-.041-.012a3.989 3.989 0 0 0-.148-.04l-.042-.01-.056-.012-.042-.01a3.793 3.793 0 0 0-.06-.012l-.04-.007c-.022-.005-.045-.008-.068-.012l-.034-.006a4.181 4.181 0 0 0-.828-.056h-.026c-.611.04-1.165.267-1.56.64-.42.4-.627.927-.597 1.525l.001.003.001.002.001.001.002.001.002.001h.007l.001-.001a3.252 3.252 0 0 1 2.789-.622l.03.008.055.014.035.01.05.014.036.01.047.016.038.012.045.016.038.014.044.016.038.015.042.018.038.016.042.018.038.018.04.019.038.018a5.01 5.01 0 0 1 .191.104 3.11 3.11 0 0 1 .357.244l.032.025.035.029.032.026.034.03.031.027.034.032.03.027.034.033.027.028.035.035.026.027.037.04.022.023.046.053.011.013.056.067.013.018.04.051.019.025.034.046.02.028.03.044.02.03.029.044.019.03a3.348 3.348 0 0 1 .046.077l.019.032-.024-.029-.026-.032-.032-.038-.026-.03a4.037 4.037 0 0 0-.033-.038l-.026-.029a4.096 4.096 0 0 0-.034-.037l-.025-.027-.037-.039-.024-.024a4.38 4.38 0 0 0-.078-.078l-.044-.042-.027-.024-.035-.033-.03-.025-.033-.03-.03-.026-.034-.027-.032-.026-.033-.026-.032-.025-.033-.025-.033-.024-.033-.024a3.978 3.978 0 0 0-.067-.046l-.034-.022-.034-.022-.034-.021-.035-.021a2.427 2.427 0 0 0-.069-.04l-.035-.02a2.398 2.398 0 0 0-.07-.038l-.036-.019-.036-.017a2.405 2.405 0 0 0-.072-.035l-.037-.016a2.846 2.846 0 0 0-.074-.032l-.036-.015-.038-.015a3.92 3.92 0 0 0-.037-.014l-.039-.014-.036-.013-.04-.013-.037-.012a2.806 2.806 0 0 0-.041-.013l-.036-.01c-.014-.005-.028-.009-.043-.012l-.035-.01-.045-.011-.035-.01-.047-.01-.033-.007-.053-.011-.027-.006a2.947 2.947 0 0 0-.876-.045 2.6 2.6 0 0 0-1.155.387 2.35 2.35 0 0 0-.868.99 2.383 2.383 0 0 1-.084-.136l-.022-.039a2.221 2.221 0 0 1-.035-.068l-.015-.03a2.091 2.091 0 0 1-.035-.076l-.011-.026a2.4 2.4 0 0 1-.139-.457c-.101-.546.04-1.22.352-1.678zm-.06 2.467.044.067a.01.01 0 0 0 .008.004.01.01 0 0 0 .008-.005c.193-.417.488-.753.857-.991l.005.412-3.17 5.61a4.716 4.716 0 0 0-.149-.077l2.397-5.02zm1.214-.252.286.077a1.539 1.539 0 0 0-.686.98c-.045.205-.049.415-.015.616l-2.677 3.9a4.996 4.996 0 0 0-.14-.09l3.232-5.483zm-.28 2.093c.032.065.068.129.11.19a.01.01 0 0 0 .016-.001 1.372 1.372 0 0 1 .963-.768l-3.551 4.313a5.027 5.027 0 0 0-.132-.102l2.594-3.632zm1.583-.587a1.67 1.67 0 0 1 .569.202c-.325.04-.642.215-.815.449a.722.722 0 0 0-.133.585c.011.089.091.205.19.324a1.323 1.323 0 0 0-.342-.102.977.977 0 0 0-.73.204.797.797 0 0 0-.29.555.963.963 0 0 0 .002.178l-2.17 2.21a5.222 5.222 0 0 0-.122-.113l3.841-4.492zm-10.544 4.605-2.17-2.21a.968.968 0 0 0 .003-.177.797.797 0 0 0-.291-.556.977.977 0 0 0-.73-.204c-.147.027-.26.061-.341.102.098-.119.178-.235.189-.324a.722.722 0 0 0-.133-.585c-.172-.234-.49-.408-.814-.449a1.625 1.625 0 0 1 .569-.202l3.84 4.492a5.218 5.218 0 0 0-.122.113zM18.417 21.6a1.372 1.372 0 0 1 .964.767.01.01 0 0 0 .008.005.01.01 0 0 0 .008-.004c.041-.06.078-.124.11-.19l2.594 3.633a4.82 4.82 0 0 0-.132.102l-3.552-4.313zm3.902 4.058-2.678-3.9c.034-.2.03-.41-.015-.614a1.539 1.539 0 0 0-.686-.981l.287-.077 3.232 5.483a4.92 4.92 0 0 0-.14.09zm-10.408.38.684.196a2.526 2.526 0 0 0-.302-.02c-.18 0-.393.029-.593.074l.21-.25zm27.11-.696v.01l-.672.193-.471-.56 1.066-.307.313.372a.353.353 0 0 0-.236.292zm.282-1.215-.208.06-.471-.562.66-.19a.318.318 0 0 0 .028.48l-.01.212zm-.811-3.204c.002-.38-.019-.773-.064-1.175l.332.848a.25.25 0 0 0 .001.25l-.27.077zm-8.785-3.051a2.409 2.409 0 0 0-.347 1.68c.023.123.056.244.099.36l-2.428 5.333a4.86 4.86 0 0 0-.154-.064l2.744-7.332.086.023zm-9.088 2.07-.023.058-.02.045-.026.057-.024.049-.026.05-.032.056-.023.039a2.277 2.277 0 0 1-.054.085 2.348 2.348 0 0 0-.872-.995 2.601 2.601 0 0 0-1.15-.382 3.224 3.224 0 0 0-.183-.012h-.033l-.059-.002h-.03a2.8 2.8 0 0 0-.086.002l-.03.001a2.959 2.959 0 0 0-.11.007l-.02.002a3.3 3.3 0 0 0-.096.01l-.031.005a3.267 3.267 0 0 0-.199.032l-.027.005-.054.011-.031.007-.049.011-.033.009-.046.011-.033.01-.046.012-.033.01-.044.014-.033.01a3.24 3.24 0 0 0-.044.015l-.032.012a3.272 3.272 0 0 0-.12.045l-.03.012-.044.018-.029.013a4.39 4.39 0 0 0-.044.02l-.028.013a3.156 3.156 0 0 0-.118.059l-.024.013a4.33 4.33 0 0 0-.119.066l-.02.013-.05.03-.02.012a2.887 2.887 0 0 0-.122.081l-.012.008-.058.042-.008.006a3.474 3.474 0 0 0-.063.048l-.002.002c-.238.184-.46.405-.669.665l.017-.03.021-.036.025-.04.022-.034.026-.04.022-.034.028-.04.023-.032.03-.04.022-.03c.01-.015.022-.03.034-.044l.02-.025.055-.067.02-.022.037-.044.025-.027c.011-.012.022-.025.034-.036l.027-.029.033-.034.03-.028.032-.032.03-.028.034-.03.03-.028.035-.03.032-.026.034-.029.033-.026.035-.027.034-.025.036-.027.034-.024a4.772 4.772 0 0 1 .182-.119 2.573 2.573 0 0 1 .227-.125l.037-.018.042-.02.037-.017.042-.019.037-.016.044-.017a4.138 4.138 0 0 1 .082-.032c.012-.004.024-.01.037-.013l.046-.016.036-.013.049-.015.035-.01.051-.015.033-.01.058-.014.028-.007.086-.02c.957-.2 1.942.034 2.703.641l.002.002h.007l.001-.001h.001v-.001l.002-.001v-.002l.001-.002v-.001a1.905 1.905 0 0 0-.673-1.593c-.388-.333-.91-.535-1.483-.571a4.136 4.136 0 0 0-.854.054l-.034.006-.068.012-.04.008-.06.012-.042.01a4.265 4.265 0 0 0-.056.012l-.042.01a3.85 3.85 0 0 0-.24.067l-.038.013a3.72 3.72 0 0 0-.088.03l-.051.018-.035.013-.052.02a4.062 4.062 0 0 0-.088.036l-.025.012a4.02 4.02 0 0 0-.07.03l-.01.005a4.164 4.164 0 0 0-.08.038l-.004.002a3.651 3.651 0 0 0-.071.036l-.018.01a3.72 3.72 0 0 0-.057.03l-.021.012-.051.028c-.008.005-.015.01-.023.013l-.048.03-.022.013a4.244 4.244 0 0 0-.115.072l-.02.013-.047.032-.017.012-.05.034-.013.01a4.447 4.447 0 0 0-.052.038l-.009.006a5.175 5.175 0 0 0-.424.355l.015-.018.034-.038.034-.039.033-.036.035-.038.033-.035.036-.038.033-.033.038-.038a4.919 4.919 0 0 1 .07-.068l.033-.03.04-.037.032-.029.042-.037.03-.026.047-.039.027-.022.056-.045.018-.014.075-.058.012-.008a3.69 3.69 0 0 1 .065-.047l.025-.018.052-.035.03-.02.047-.032.033-.02.046-.029.034-.02c.015-.01.03-.018.046-.027a4.097 4.097 0 0 1 .08-.046l.037-.02.045-.023.037-.02.045-.022.038-.018a3.764 3.764 0 0 1 .084-.039l.046-.02.04-.016.046-.02.04-.015a3.78 3.78 0 0 1 .046-.018l.04-.015.048-.017.04-.014.048-.016c.014-.005.027-.01.04-.013l.05-.015.04-.012.05-.015.04-.01.053-.014.04-.01.055-.013.037-.009.062-.013.032-.006.095-.018c.583-.098 1.276-.041 1.763.144.461.175.8.427 1.038.77l.002.002c.313.458.454 1.132.351 1.678a2.19 2.19 0 0 1-.112.394zm-9.245.842a.251.251 0 0 0-.024-.188l.33-.847c-.044.401-.065.794-.063 1.174l-.269-.077a.249.249 0 0 0 .026-.062zm-.454 2.903.001-.023a.318.318 0 0 0-.095-.228l.66.189-.471.561-.208-.06-.01-.21a.318.318 0 0 0 .123-.23zm.245.991 1.067.306-.471.561-.672-.192v-.01a.353.353 0 0 0-.236-.292l.312-.373zm12.068.503a4.86 4.86 0 0 0-.154.064l-2.428-5.333c.042-.117.076-.237.099-.36a2.41 2.41 0 0 0-.347-1.68l.086-.023 2.744 7.331zm-12.93 7.349a4.412 4.412 0 0 0 .179-.045l.205-.127c.025.002.053.006.083.01l.022.003.043.007h.003l.038.005.009.001.04.005h.001a1.183 1.183 0 0 0 .043.004.606.606 0 0 0 .089.001c.12 0 .29-.064.406-.132a15.852 15.852 0 0 1-.237.834l-1.174-.303.25-.263zm.582 2.088-.194-.025.258-.35c-.024.125-.044.25-.064.375zm28.276-.375.258.35-.195.025c-.02-.125-.04-.25-.063-.375zm-.329-1.316a15.81 15.81 0 0 1-.187-.665.948.948 0 0 0 .407.132h.008a.59.59 0 0 0 .08-.001h.004a1.51 1.51 0 0 0 .04-.004h.002l.038-.005.012-.001.03-.004a.532.532 0 0 0 .041-.006l.01-.002.105-.014.204.128h.003c.059.016.118.03.178.044l.25.264-1.174.303-.05-.17zm-9.706-15.22v.004l.002.001v.002l.004.002h.001l.093.026-2.599 7.348a4.837 4.837 0 0 0-.16-.05l1.972-7.102.061.1a.01.01 0 0 0 .009.005.01.01 0 0 0 .008-.006 3.45 3.45 0 0 1 .617-1.01l-.008.68zm-7.456.23 1.972 7.102a5.006 5.006 0 0 0-.16.05l-2.598-7.347.092-.025h.002a.009.009 0 0 0 .003-.003v-.002l.002-.001v-.003l-.008-.68c.252.282.46.62.618 1.01a.01.01 0 0 0 .007.005.01.01 0 0 0 .01-.004l.06-.102zm19.556 10.19c.16-.01.334-.035.447-.065a1.042 1.042 0 0 1-.026.136c-.066.125-.183.266-.315.324-.116.051-.29.03-.411.015a1.977 1.977 0 0 1-.868-.317c-.48-.313-.904-1.109-1.24-1.25l.014.003.01.002.031.01.006.001a.479.479 0 0 1 .025.01l.012.005a.552.552 0 0 1 .02.01l.012.006.017.01a.929.929 0 0 1 .03.018l.014.01a.851.851 0 0 1 .017.011l.013.01a.948.948 0 0 1 .048.037l.012.011.019.016.012.01c.006.007.013.012.02.018l.01.01.023.022.008.008.03.027.001.002.068.067c.119.117.252.249.421.372a2.22 2.22 0 0 0 .702.346l.02.006.044.014.026.007.035.01.03.008.018.005.008.002a2.788 2.788 0 0 0 .636.053zm.188-.375a.3.3 0 0 1-.157.222.83.83 0 0 1-.484.113 1.653 1.653 0 0 1-.36-.083 9.124 9.124 0 0 1-.162-.055c-.458-.171-.731-.44-.953-.659l-.031-.03-.011-.011a3.88 3.88 0 0 0-.021-.02l-.013-.013-.018-.018-.013-.012-.02-.018a1.186 1.186 0 0 0-.07-.063l-.01-.008a1.361 1.361 0 0 0-.05-.04h-.002c.32.142.642.804 1.517.846.142.007.426-.001.55-.062.061-.03.107-.078.113-.157.007-.085-.058-.135-.13-.14-.088-.007-.194.044-.288.058-.055.009-.11.015-.166.02-.886.066-1.304-.465-1.602-.57l-.003-.003a1.04 1.04 0 0 0-.019-.013L39 27.03a.606.606 0 0 0-.023-.014l-.007-.004a.607.607 0 0 0-.029-.016l-.01-.005a.546.546 0 0 0-.064-.026l-.006-.002h.004a.43.43 0 0 1 .038.007h.001a.56.56 0 0 1 .087.027l.01.003a1.411 1.411 0 0 1 .128.058l.011.005a5.153 5.153 0 0 1 .056.029l.039.02.009.004a2.43 2.43 0 0 0 .313.141l.003.001.045.015.006.002.044.013.015.005.037.01c.212.06.498.124.706.144l.022.002a2.168 2.168 0 0 0 .068.004h.037a1.12 1.12 0 0 0 .197-.026l.068-.016c.036-.009.073-.018.11-.024h.007a.779.779 0 0 1 .04-.003h.043l.016.001c.01 0 .02.001.029.003l.015.001a.463.463 0 0 1 .269.111.296.296 0 0 1 .08.253zm-.304-.375-.012-.002.015-.01.059.027a.757.757 0 0 0-.062-.015zM28.39 14.999c1.055-1.964 3.345-2 5.146-1.164 1.141.529 2.375 1.633 3.186 2.829l.013.019.061.092.024.037.048.075.013.02-.009-.01c-.018-.025-.037-.048-.056-.072-.025-.033-.05-.066-.077-.098l-.058-.073-.077-.093-.061-.072a8.404 8.404 0 0 0-.077-.09l-.063-.071a10.818 10.818 0 0 0-.364-.39 8.25 8.25 0 0 0-.363-.347l-.083-.074a9.214 9.214 0 0 0-.068-.059l-.085-.072-.067-.056a7.88 7.88 0 0 0-.088-.07l-.066-.053-.09-.069-.065-.049-.095-.069-.062-.044-.105-.072-.052-.035a7.044 7.044 0 0 0-.158-.102c-1.017-.634-2.072-.927-3.137-.871-.657.034-1.263.267-1.708.655a2.108 2.108 0 0 0-.735 1.704V16.285l.01.123a.01.01 0 0 0 .007.008c.003 0 .006 0 .009-.002h.001a3.84 3.84 0 0 1 1.476-.718c.386-.095.79-.133 1.201-.11 1.603.09 3.166 1.276 4.003 2.411.036.048.07.096.104.145l.026.039c.025.036.05.072.074.11l.038.06.057.09.038.065.053.089.038.07.049.086.04.077.042.082.038.079.04.082.038.083.036.08.036.087c.011.027.023.053.033.08l.034.086.031.081.03.086.03.083.028.087.027.085.026.087.025.085.023.087.022.087.02.085.021.09.017.085.019.09-.024.027-.04.046-.015-.068-.017-.077-.02-.078-.018-.074-.022-.08-.02-.072-.024-.08-.022-.07-.026-.08-.023-.068-.029-.08c-.008-.023-.015-.045-.024-.067l-.03-.08c-.01-.022-.017-.044-.026-.065l-.034-.081-.026-.063-.036-.08-.028-.061c-.012-.027-.026-.054-.039-.08l-.028-.06-.041-.08-.03-.058-.043-.08-.03-.055-.046-.08c-.01-.018-.02-.036-.032-.054l-.048-.079-.032-.052-.05-.078-.034-.051-.053-.077-.034-.05-.055-.077-.035-.048-.058-.075-.036-.047-.059-.073-.037-.046-.06-.072-.04-.045c-.02-.024-.04-.047-.062-.07l-.04-.045-.063-.067-.042-.044-.065-.065-.043-.044-.066-.063-.045-.043-.068-.062-.046-.041-.069-.06-.047-.04c-.023-.02-.046-.038-.069-.056l-.05-.041-.07-.054-.052-.04-.072-.053-.053-.038c-.024-.018-.05-.034-.075-.052l-.051-.035-.083-.054-.047-.03a5.518 5.518 0 0 0-1.815-.736c-.021-.004-.042-.01-.064-.013l-.013-.002a4.339 4.339 0 0 0-.832-.073 3.561 3.561 0 0 0-.92.132l-.011.003-.121.038-.003.001h-.002c-.025.01-.05.018-.076.027l-.029.011-.047.018-.027.012-.049.02-.02.01c-.019.007-.037.015-.055.024l-.013.006a2.766 2.766 0 0 0-.067.033c-.32.16-.605.375-.849.644l-.002.004a3.454 3.454 0 0 0-.629 1.015 3.127 3.127 0 0 1-.122-.215l-.015-.031a3.518 3.518 0 0 1-.027-.055l-.007-.015a3.131 3.131 0 0 1-.138-.347h-.001a3.109 3.109 0 0 1-.156-.896c-.013-.509.105-.999.35-1.456zm-11.816-1.164c1.8-.836 4.09-.8 5.145 1.164.246.457.364.947.35 1.456a3.11 3.11 0 0 1-.156.896l-.021.063a.957.957 0 0 1-.028.075l-.009.022-.037.09-.016.039-.017.036a3.003 3.003 0 0 1-.024.052l-.014.028a2.984 2.984 0 0 1-.144.258A3.456 3.456 0 0 0 20.974 17c0-.001 0-.003-.002-.004a2.886 2.886 0 0 0-.847-.644l-.006-.003a2.65 2.65 0 0 0-.13-.06l-.022-.01a2.398 2.398 0 0 0-.046-.02l-.03-.011-.043-.017-.032-.012a2.824 2.824 0 0 0-.078-.027l-.006-.003a3.1 3.1 0 0 0-.087-.027l-.02-.006a3.48 3.48 0 0 0-.087-.024l-.007-.002a3.538 3.538 0 0 0-1.107-.107l-.105.007-.026.002a4.444 4.444 0 0 0-.23.024l-.058.009a4.677 4.677 0 0 0-.11.017l-.03.005a5.23 5.23 0 0 0-1.455.497l-.019.01a5.539 5.539 0 0 0-.124.066l-.035.02a5.91 5.91 0 0 0-.273.161l-.032.02a5.304 5.304 0 0 0-.098.064l-.036.025-.09.063-.035.025-.09.065-.035.027-.087.067-.035.03-.084.067-.035.03-.081.07-.033.03-.081.074-.032.03-.079.076-.032.032-.076.076-.032.034-.073.078-.032.035-.07.08-.032.036-.068.08-.03.038c-.023.027-.045.054-.066.082l-.03.04-.064.082-.03.041-.06.084-.03.043-.057.084-.029.044-.055.085-.028.046-.052.085-.029.05-.049.083-.028.052-.046.084-.027.053c-.015.028-.03.056-.043.085-.01.018-.018.037-.027.056l-.04.083-.026.058-.038.084-.025.06-.035.083-.024.063-.032.082-.024.065-.03.082-.022.067-.026.081-.022.07-.024.08-.02.072-.022.08-.018.074-.02.079-.017.076-.015.069-.04-.047-.023-.027.017-.089.018-.085.02-.09.02-.086.024-.088.022-.086.025-.084.026-.088.026-.083.03-.089c.008-.027.018-.054.028-.08l.031-.089.03-.079.035-.089.032-.075.037-.09.034-.076.04-.088.037-.076.041-.085.038-.072.045-.087.038-.068.048-.088.043-.072.049-.082.052-.083.043-.068c.021-.033.044-.066.066-.098l.033-.05.104-.145c.837-1.135 2.4-2.321 4.003-2.41a3.945 3.945 0 0 1 2.679.827l.002.001h.001a.01.01 0 0 0 .004 0h.002l.002-.001.002-.001a2.103 2.103 0 0 0-.723-1.861c-.444-.39-1.05-.622-1.707-.656-1.065-.056-2.12.237-3.137.871a7.039 7.039 0 0 0-.159.102l-.052.036-.105.071-.062.045-.094.068-.066.05-.09.068-.066.053a9.167 9.167 0 0 0-.087.07l-.068.056a7.072 7.072 0 0 0-.085.072l-.067.059-.084.075-.066.06a8.573 8.573 0 0 0-.377.368l-.063.066a9.68 9.68 0 0 0-.081.087l-.062.066a8.84 8.84 0 0 0-.08.091l-.06.067-.08.095-.058.067-.08.1-.055.066-.082.105-.051.066-.01.011.013-.02a7.2 7.2 0 0 1 .05-.077l.021-.034.065-.097.01-.014c.81-1.196 2.045-2.3 3.187-2.83zm-7.578 13.53.016.01-.012.003a.755.755 0 0 0-.062.015l.058-.028zm-.144.61a.3.3 0 0 1-.157-.222.296.296 0 0 1 .08-.252c.061-.06.158-.09.229-.105a.661.661 0 0 1 .053-.008l.011-.001a.594.594 0 0 1 .054-.003h.01c.02 0 .039.001.059.003h.003c.038.006.075.015.11.024a1.662 1.662 0 0 0 .094.021c.065.013.129.02.172.021h.012c.022 0 .045 0 .07-.002l.022-.002.023-.002a4.436 4.436 0 0 0 .742-.154l.015-.004a7.209 7.209 0 0 0 .095-.03l.003-.001a2.516 2.516 0 0 0 .322-.146l.04-.02.014-.008.042-.021.009-.004.035-.018.011-.005.04-.018.01-.004a1.31 1.31 0 0 1 .036-.014l.007-.003a.781.781 0 0 1 .127-.033h.003c-.002 0-.004 0-.006.002a.65.65 0 0 0-.031.01l-.013.006a.45.45 0 0 0-.02.01c-.003 0-.006.002-.01.004a.644.644 0 0 0-.029.016l-.007.004a.753.753 0 0 0-.052.034l-.003.002c-.299.107-.717.637-1.603.57a2.158 2.158 0 0 1-.165-.019c-.094-.014-.2-.065-.29-.058-.07.005-.136.055-.129.14.006.08.052.127.114.157.123.061.407.07.55.062.875-.042 1.197-.704 1.516-.847l-.002.002a.75.75 0 0 0-.018.014l-.012.009-.02.016-.009.008-.03.026-.003.003a1.983 1.983 0 0 0-.027.024l-.01.01-.02.019-.012.01a3.85 3.85 0 0 0-.02.02l-.012.011-.023.022-.009.01-.032.03c-.221.22-.494.488-.953.66a2.353 2.353 0 0 1-.2.066 2.753 2.753 0 0 1-.137.039c-.05.012-.115.023-.184.032a.835.835 0 0 1-.485-.113zm.032.153a2.785 2.785 0 0 0 .636-.053l.008-.002.019-.005.03-.008.034-.01.026-.007.043-.014.022-.006L9.77 28c.19-.062.35-.14.49-.227a3.174 3.174 0 0 0 .597-.502l.011-.01.022-.021.013-.013.019-.018.013-.013a2.82 2.82 0 0 1 .018-.017l.014-.012.017-.016.014-.012a1.96 1.96 0 0 1 .017-.015l.013-.01a1.731 1.731 0 0 1 .03-.025l.017-.013a1.13 1.13 0 0 1 .03-.022l.014-.008a.46.46 0 0 1 .03-.02l.018-.01.012-.006.02-.01c.004 0 .007-.002.01-.004a.45.45 0 0 1 .028-.01l.004-.002a.393.393 0 0 1 .032-.009l.009-.002a.329.329 0 0 1 .014-.003c-.335.141-.76.937-1.24 1.25-.27.177-.541.275-.867.317-.122.016-.295.037-.411-.014-.132-.058-.25-.2-.316-.325a1.025 1.025 0 0 1-.025-.136c.113.03.286.055.447.065z" style="fill:#9f9f9f"/>

    <path d="M24.825 13.287h.002a.01.01 0 0 0 .009-.007l.219-.63.219.63a.01.01 0 0 0 .01.006.01.01 0 0 0 .008-.01l.015-1.613c0-.117-.105-.228-.25-.264h-.004c-.145.036-.25.147-.25.264l.015 1.614a.01.01 0 0 0 .007.01z" style="fill:#9f9f9f"/>
</svg>