<svg xmlns="http://www.w3.org/2000/svg" xml:space="preserve" id="Layer_1" x="0" y="0" style="enable-background:new 0 0 46.55 56.06" version="1.1" viewBox="0 0 46.55 56.06">
    <path d="M46.05.5H.5v55.06h5.2v-.04h40.35z" style="fill:#fff"/>

    <path d="M46.05 0H.5C.22 0 0 .22 0 .5v55.06c0 .28.22.5.5.5h5.2c.06 0 .12-.01.18-.04h40.17c.28 0 .5-.22.5-.5V.5c0-.28-.22-.5-.5-.5zM5.2 1v54.02H4.19V1H5.2zM1 1h2.19v54.06H1V1zm44.55 54.02H6.2V1h39.35v54.02z" style="fill:#9f9f9f"/>

    <path d="M40.22 29.46c.03-.27-.12-.54-.46-.82l-.01-.01c-.67-.49-1.37-.81-2.1-1.1.6-.12 1.19-.36 1.71-.74 1.02-.73 1.63-1.83 1.56-2.78l-.04-.55-.39.4c-.05.06-.1.11-.15.17-.29.34-.56.67-2.33.4-.13-.02-.26-.04-.4-.05.74-.29 1.34-.7 1.78-1.22.73-.85 1.04-1.97.92-3.33l-.06-.7-.39.58c-.72 1.06-1.57 1.62-2.76 1.8 1.72-1.4 2.36-3.2 1.92-5.45l-.26-1.29-.23 1.3c-.13.72-.25 1.4-1.47 1.83-.72.31-1.32.76-1.8 1.36 0-.25-.1-.46-.28-.57.23-.21.37-.52.26-1.08-.18-.93-.71-1.6-1.58-1.98-.42-.18-.8-.21-1.1-.08-.22.09-.4.26-.55.5l-.02-.04v.06c-.06.1-.11.21-.16.33l-.01.06c-.24-.3-.6-.51-1.06-.6-.07-.01-.12 0-.18.01a.72.72 0 0 0-.08-.26c.09-.06.16-.16.16-.27 0-.16-.12-.28-.27-.32a.341.341 0 0 0-.33-.22c-.16 0-.28.1-.33.23a.33.33 0 0 0-.23.31c0 .12.07.21.17.27-.04.06-.06.13-.07.21a.585.585 0 0 0-.24.03c-.32.11-.72.27-1.03.64-.44.54-.25 1.04-.1 1.44.03.08.06.16.08.23.04.12.09.22.14.32 0 .01.01.02.01.02-.05.08-.06.15-.05.21-.05-.01-.11-.01-.15-.02l-.38-.07.09.38c.01.04.03.07.05.11-.14.08-.27.17-.41.29h-.01c-.08-.01-.13-.03-.19-.05.09-.1.13-.2.13-.28 0-.07-.03-.14-.07-.2.03-.04.06-.08.08-.12.03-.08.04-.2-.02-.36a.38.38 0 0 0 .08-.17c.01-.1-.03-.19-.11-.27.4-.79.64-1.46.74-2.1.1-.63-.08-1.16-.57-1.6-.41-.37-.86-.63-1.38-.81l-.32-.1c-.02-.01-.03-.02-.05-.02h-.02l-.17-.05.03.05c-.07.01-.15.04-.24.09 0-.04.02-.08.02-.13 0-.16-.04-.3-.09-.42l-.11-.28.27.06v-1.05l-.24.1.1-.26-1.05.02.07.26-.31-.13v1.05l.32-.07-.01.03a.99.99 0 0 0-.25.68c0 .05.01.08.02.13a.577.577 0 0 0-.23-.08l.04-.07-.21.07h-.01l-.36.12c-.53.18-.98.44-1.39.81-.49.44-.67.96-.56 1.6.1.64.34 1.31.72 2.07-.08.11-.12.23-.08.35.01.04.05.08.08.11-.03.11-.04.21-.02.27.02.05.05.09.08.14-.08.08-.13.17-.13.27 0 .09.04.17.08.23-.03.01-.05.02-.09.03l-.07.02c-.12-.1-.24-.18-.36-.25.02-.03.03-.07.04-.1l.09-.38-.38.07c-.05.01-.1.01-.15.02.01-.06.01-.13-.05-.21.01-.02.01-.03.02-.05.05-.09.1-.19.14-.3.02-.08.05-.16.08-.24.14-.4.32-.89-.11-1.42-.31-.37-.71-.54-1.02-.64a.872.872 0 0 0-.25-.04.65.65 0 0 0-.07-.21c.1-.06.17-.16.17-.28 0-.14-.09-.26-.22-.31a.363.363 0 0 0-.67-.01c-.15.04-.26.16-.26.32 0 .11.06.21.16.27a.72.72 0 0 0-.08.26c-.06 0-.11-.02-.18-.01-.45.09-.81.29-1.05.58l-.02-.05c-.12-.29-.32-.69-.74-.86-.31-.13-.68-.1-1.1.08-.85.38-1.38 1.04-1.57 1.98-.11.56.03.87.27 1.08-.2.13-.28.35-.28.57-.49-.6-1.08-1.06-1.82-1.37-1.21-.42-1.33-1.1-1.46-1.82l-.23-1.3-.26 1.29c-.45 2.25.19 4.05 1.91 5.45-1.51-.25-2.27-1.07-2.76-1.8l-.4-.58-.06.7c-.12 1.36.19 2.48.92 3.33.45.52 1.04.92 1.78 1.22-.14.02-.27.03-.4.05-1.76.27-2.04-.05-2.33-.4-.05-.06-.1-.12-.15-.17l-.38-.4-.05.55c-.08.95.52 2.04 1.54 2.78.53.38 1.12.62 1.73.75-.75.29-1.44.61-2.1 1.1-.34.28-.5.55-.47.82.01.07.02.13.05.19l-.63.32.73-.17c.1.11.25.22.46.32.66.15 1.28.23 1.88.23.39 0 .77-.05 1.14-.11-.82.58-1.52 1.18-1.98 1.93-.07.21-.13.48.01.71.11.19.33.3.65.35l.04.01.04-.01c.99-.15 1.92-.5 2.84-1.02-.55.77-1.07 1.58-1.29 2.56-.07.24-.04.43.08.55.1.1.22.13.35.13.13 0 .25-.03.36-.06l.06-.03c.81-.5 1.47-1.08 2.02-1.74-.21.79-.41 1.61-.27 2.59.04.11.1.2.17.26l-.04.32.13-.27c.02.01.03.01.05.02.15.04.3 0 .46-.12l.05-.05c.5-.69.89-1.43 1.18-2.21.02.63.07 1.28.24 1.96.07.13.19.39.44.4h.08l.13.69.07-.79c.05-.04.1-.1.14-.17l.02-.03c.26-.55.43-1.15.52-1.83.17.57.42 1.11.75 1.63.13.14.27.21.4.21.04 0 .07-.01.11-.02.05-.01.09-.04.13-.07l.01.13.03-.16a.55.55 0 0 0 .07-.09l.18.35c0 .01-.01.01-.01.02l-.1.02c-1.07.2-1.79.92-2.12 2.12l-.06.03c-.11.07-.21.16-.28.27l-.02-.04c-.64.28-1.12.58-1.5.89l-.29.09-.26-.02c-.41-.03-.71.05-.91.24-.14.14-.21.34-.21.57-.07.06-.13.19-.06.55l.06.24h.02v.09l.05-.08c.01.09.01.17.04.26l.4 1.02.08-1.09c.01-.16.05-.24.08-.25l.2-.1c-.03.28 0 .62.26.83l.46.38-.05-.59c-.01-.16.02-.33.1-.51l.02-.06c.02-.01.04 0 .06-.01l.06-.03.02-.03c.15.3.5.4.63.43l.88.19-.64-.55c-.13-.12-.2-.23-.22-.31.05-.04.1-.07.13-.12.05-.08.09-.21.04-.4l-.02-.09-.08-.05c.27-.19.54-.36.79-.51-.01.07-.02.13-.02.19l-.08 1.46.56-1.35c.2-.47.49-.77.92-.97-.37.66-.61 1.4-.31 2.33l-.19.67.28-.43c.02.06.05.11.08.17l.4.84.08-.93c.04-.49.31-.91.61-1.29-.22.85-.19 1.6.1 2.24l-.09.76.23-.51c.05.09.11.18.18.27l.63.84-.18-1.01c-.05-.29-.01-.56.08-.82l.05.04c.06.04.12.07.17.11l.54.38-.15-.64c-.06-.26-.01-.52.1-.78.04.45.21.95.74 1.54l.89.99-.47-1.24c-.15-.41-.03-1.13.08-1.74.13.33.3.61.53.84l.17.17.18-.17c.26-.24.41-.52.53-.8.11.6.22 1.3.07 1.7l-.47 1.24.89-.99c.53-.59.7-1.09.74-1.54.11.26.16.52.1.79l-.13.59.75-.48c.08.26.13.53.08.82l-.19 1.04.63-.84c.07-.09.13-.18.18-.27l.23.51-.09-.77c.29-.64.31-1.39.09-2.25.31.38.58.81.63 1.3l.09.9.39-.82c.02-.05.05-.1.07-.15l.26.41-.17-.64c.31-.93.07-1.68-.31-2.36.41.17.72.48.92.97l.56 1.35-.08-1.46c0-.07-.01-.13-.02-.19.26.15.52.32.79.51l-.08.05-.02.1c-.05.22.02.38.18.51-.01.09-.09.19-.21.32l-.61.61.84-.19c.13-.03.47-.12.62-.43l.02.03.07.03c.02.01.04.01.06.02l.02.05c.08.19.11.35.1.51l-.05.59.46-.38c.26-.21.29-.54.26-.82l.19.09c.01 0 .06.04.09.26l.13 1.08.36-1.03c.03-.08.03-.16.04-.24l.05.07.01-.12.04-.01.04-.2c.08-.36.01-.49-.06-.55-.01-.23-.07-.43-.21-.57-.2-.19-.49-.27-.91-.24l-.25.02-.31-.1c-.38-.32-.85-.61-1.48-.88l-.02.05a.839.839 0 0 0-.26-.27l-.08-.05c-.34-1.2-1.05-1.9-2.12-2.11l-.1-.02c0-.01-.01-.01-.01-.02l.18-.35c.03.04.06.08.1.11l.01.08.01-.07c.04.03.08.06.13.07.03.01.07.02.11.02.11 0 .25-.05.4-.21l.03-.04c.32-.5.56-1.02.72-1.59.09.68.27 1.3.53 1.86.04.07.09.12.14.16l.07.84.14-.74c.03 0 .05.01.08 0 .25-.01.38-.27.44-.4l.02-.05c.16-.64.2-1.27.22-1.9.29.77.68 1.5 1.18 2.19l.05.05c.16.12.31.16.46.12.02-.01.04-.01.06-.02l.14.27-.04-.33a.7.7 0 0 0 .18-.3c.13-.93-.07-1.75-.28-2.54.55.65 1.22 1.23 2.02 1.74l.06.03c.11.03.24.06.36.06.13 0 .26-.03.36-.13.13-.13.15-.31.09-.54-.23-.99-.75-1.8-1.3-2.57.92.53 1.85.87 2.84 1.02l.04.01.04-.01c.32-.05.53-.16.64-.35.14-.23.09-.49-.01-.77-.44-.71-1.13-1.3-1.96-1.89.36.06.73.11 1.12.11.62 0 1.27-.08 1.95-.25.18-.09.32-.19.42-.3l.73.17-.63-.32c-.05-.06-.03-.13-.02-.19zM21.6 35.74c-.1-.47-.04-.87.18-1.23l.01-.01c.07-.12.11-.26.17-.39.02.57.12 1.08.27 1.53-.22.1-.41.23-.57.39l-.06-.29zm10.29-17.65c.02.46-.03.82-.21 1.06-.02-.02-.04-.05-.07-.07l.03-.03c.01-.04 0-.08.01-.13.05-.04.08-.09.1-.14.03-.09 0-.17-.06-.25l.15-.33c.01-.03.03-.07.05-.11zm.78-1.1c.25-.18.58-.16.82-.1.38.09.63.21.8.34l-.1.11c.04.07.03.28-.01.38a.656.656 0 0 0-.45.05c-.24.1-.42.31-.52.58-.02-.14-.06-.29-.13-.45l-.05-.08c-.21-.21-.37-.39-.5-.65.05-.06.08-.13.14-.18zm-16.14 1.89c.1.38.42.7.94.97-.23.3-.27.69-.07 1.15l.14.33-.46-.28.2.46-.2-.23v.03c-.27-.26-.6-.46-.9-.62-.53-.2-.75-.46-.89-.74l.22-.08c.01 0 .03-.01.04-.02l.08.26.09-.34c.35-.15.7-.5.81-.89zm16.67.01c.11.38.44.72.78.91l.11.46.1-.36c.01 0 .01.01.02.01l.23.08c-.13.27-.37.54-.92.75-.29.16-.59.35-.85.59v-.02l-.09.1c-.03.03-.06.06-.08.09l-.05.06.21-.49-.46.27.14-.33c.2-.46.16-.85-.07-1.15.52-.28.83-.6.93-.97zm-2.83 8.01.04.08c-.01.03-.01.06-.01.09-.02-.04-.04-.07-.06-.11l.03-.07c-.01.01-.01.01 0 .01zm-11.03.18c-.01-.03-.01-.07-.01-.1l.04-.08s0-.01.01-.01l.03.08c-.03.03-.05.07-.07.11zm11.32-4.09-.2.13c-.58.37-.84.96-.71 1.62l.15.75.1-.22.04.07c0 .05-.01.09 0 .13l.04 1.07.08-.18v.11l-.05.11.05-.04v.22c-.18-.22-.39-.42-.63-.57l-.09-.06c-.12-.48-.31-.82-.59-1.06.04-.2.05-.39.01-.58.17-.41-.02-.68-.14-.84l-.11-.16c0-.06-.01-.12-.01-.17l.76.38-.58-.81c-.07-.09-.09-.21-.08-.35l.04-.05c.26-.3.5-.45.72-.45.19 0 .4.13.6.37l.43.51.01-.66c0-.09-.01-.18-.02-.28.44.23.79.36 1.09.36.03 0 .05-.01.08-.01-.31.24-.64.45-.99.66zm1.33-1.53c-.29.17-.52.12-.81-.2-.14-.1-.29-.16-.43-.22v-.01c.1.01.19.02.27.04l.15.03.1-.12c.18-.23.29-.27.32-.25.03 0 .14.03.31.3l.22.35-.13.08zm-14.15-.41c.18-.28.28-.3.31-.31.02-.01.13.02.31.25l.1.12.15-.03c.09-.02.18-.03.27-.04v.01c-.14.06-.29.12-.43.22l-.05.04c-.24.28-.48.33-.76.16l-.12-.07.22-.35zm.32 1.29c.3 0 .65-.13 1.09-.36-.02.1-.03.19-.03.28v.68l.44-.52c.21-.25.41-.37.6-.37.22 0 .46.15.72.45l.05.06c0 .13-.02.25-.09.34l-.58.81.76-.38c0 .06-.01.11-.01.17l-.11.16c-.12.16-.31.43-.14.84-.04.19-.03.39.01.58-.28.24-.48.59-.59 1.08l-.08.05c-.25.15-.46.35-.64.58v-.23l.05.04-.05-.11v-.11l.08.18.04-1.07v-.14l.05-.08.11.25.14-.77c.12-.66-.14-1.25-.72-1.62l-.24-.15c-.31-.19-.63-.4-.92-.63.02-.02.04-.01.06-.01zm8.34-2.18-.04.03c-.27.3-.43.37-.51.38l-.86.07.67.36c-.04.05-.09.09-.13.14l-.43.29.28-.08c-.03.05-.07.11-.1.17l-.24.27c-.12.13-.2.28-.28.45-.07-.16-.16-.32-.28-.45l-.24-.26c-.03-.06-.07-.12-.1-.17l.37.11-.58-.39c-.02-.03-.05-.05-.07-.07l.69-.36-.88-.07c-.13-.01-.31-.15-.55-.42 0 0-.01 0-.01-.01.18-.09.35-.19.48-.32.4.04.78.06 1.15.06.51 0 .96-.03 1.31-.09.12.11.26.21.43.3-.02.02-.05.03-.08.06zm-8.43-1.26c0 .06.01.11.03.15 0 .01.01.02.02.02-.03.02-.05.04-.07.07-.19-.27-.21-.65-.2-1.07.02.04.03.08.05.11l.16.36c-.06.08-.09.16-.06.25.01.04.03.08.07.11zm-.26-.9-.14-.01v-.15h.06c.02.05.05.1.08.16zm-.75-1.01c.06.04.09.12.14.18-.13.26-.29.44-.5.65l-.05.08c-.07.16-.11.31-.13.45-.1-.27-.28-.48-.52-.58a.79.79 0 0 0-.45-.05.782.782 0 0 1-.03-.36l.02-.02-.1-.11c.17-.14.42-.26.81-.35.22-.04.56-.07.81.11zm15 .85v.15l-.13.01c.03-.05.06-.11.08-.16h.05zm-12.03-2.49c0 .02-.01.03-.02.05-.01-.01-.01-.02-.02-.03l.01-.01c0-.01-.01-.02-.02-.04.01-.02.02-.03.02-.04.01.02.03.04.03.07zm8.09 20.39-.06.3c-.16-.16-.35-.3-.57-.4.15-.45.24-.96.27-1.53.06.13.11.27.18.4.22.35.28.76.18 1.23zm2.27-20.28c0-.02-.01-.04-.01-.06.01-.01.03-.03.03-.04 0-.03-.01-.05-.03-.06.01-.02.01-.04.02-.06.03.03.06.07.06.12-.02.04-.04.08-.07.1zm-.34-.48c.04 0 .08.03.11.07-.01 0-.02.01-.03.02-.02 0-.04-.03-.06-.03-.02 0-.04.02-.06.02a.145.145 0 0 0-.07-.02c.03-.04.07-.06.11-.06zm-.32.29c.01.02.02.03.03.04 0 .01-.01.02-.01.04v.01c-.01.01-.02.03-.02.04-.01-.02-.02-.03-.02-.05-.01-.03 0-.05.02-.08zm-10.05-.29c.04 0 .08.02.11.06-.02.01-.04.01-.06.02-.02 0-.04-.02-.06-.02-.02 0-.04.02-.06.03-.01 0-.02-.01-.02-.02.01-.05.05-.07.09-.07zm-.33.25c.01.02.01.04.02.06-.01.02-.03.04-.03.06 0 .02.02.03.02.04-.01.02-.01.04-.01.07-.03-.02-.05-.06-.05-.11-.01-.05.01-.09.05-.12z" style="fill:#9f9f9f"/>

    <path d="M22.55 18.31c1.5-.53 3.07-.49 4.71-.02.17-.02.14-.17.02-.22-1.64-.45-3.24-.46-4.81-.02-.1.11-.02.24.08.26z" style="fill:#9f9f9f"/>

    <path d="M24.94 18.33c.06 0 .1-.04.1-.09 0-.05-.04-.08-.1-.08s-.1.03-.1.08.04.09.1.09zM23.73 18.39c.06 0 .1-.04.1-.09 0-.04-.04-.08-.1-.08s-.1.04-.1.08c0 .05.04.09.1.09zM26.08 18.37c.06 0 .11-.04.11-.09 0-.05-.05-.08-.11-.08s-.1.03-.1.08.04.09.1.09zM22.89 18.58c.06 0 .11-.04.11-.09 0-.05-.05-.09-.11-.09s-.1.04-.1.09c0 .05.04.09.1.09zM26.97 18.58c.06 0 .1-.04.1-.09 0-.05-.04-.09-.1-.09s-.11.04-.11.09c0 .05.05.09.11.09z" style="fill:#9f9f9f"/>

    <path d="m18.37 18.55.05-.02.08-.03.08-.02.08-.02.08-.02.09-.02.08-.02.08-.02.08-.01.08-.02.08-.01.09-.01h.08l.08-.01h.33l.08.01.09.01.08.01.08.01.08.02.09.01.08.02.08.02.09.02.08.02.08.02.09.02.08.02.06.02c.05-.14.16-.28.21-.45.14-.47.44-.92.02-1.44-.24-.29-.56-.45-.91-.57-.2-.07-.3.02-.37.18.07.07.13.17.17.29v-.03h-.01V16.42l-.01-.01v-.02l-.01-.01v-.06l.02-.02.02-.02.02-.01h.08l.02.01.02.02.02.02.01.02v.17l.01.01V16.88h.04V17.01h-.01v.08h-.01v.01-.1.04l-.01.01V17.11h-.01v.05h-.01v.05l-.01.01v.04h-.01v.05h-.01v.04l-.01.01v.02l-.01.01v.03l-.01.01v.03h.01v.03l-.01.01v.03l-.01.01v.02l-.01.01v.03h-.01v.03h-.01v.03h-.01v.03h-.01v.02l-.01.01v.02l-.01.01v.02h-.01v.02l-.01.01v.02l-.01.01v.02l-.01.01v.01l-.01.01v.01l-.01.02v.02h-.01v.01l-.01.02v.01l-.01.01v.01l-.01.01v.03l-.01.02v.02l-.01.02-.02.02-.02.02-.02.01h-.02l-.02-.01-.02-.01-.02-.01-.02-.01-.01-.02-.03.06-.02-.2-.01-.04v.04l-.01.02v.02l-.01.02v.02l-.01.02v.02l-.01.02v.02l-.01.02.05-.12v.02l-.01.02-.01.02-.01.02-.01.02v.02l-.01.02-.06.14-.04-.15v-.02l-.01-.02-.01-.02-.01-.02v-.02l-.01-.02v-.02l-.01-.02v.02l-.04-.07v.02l-.02.02-.02.01-.02.01-.02.01-.02.01h-.02l-.02-.01-.02-.02-.02-.02-.01-.02v-.02l-.01-.02v-.03l-.01-.01v-.01l-.01-.01v-.03l-.01-.01v-.02h-.01v-.03h-.01v-.02l-.01-.01v-.01l-.01-.01v.01-.01l-.01-.01v-.02h-.01v-.03h-.01v-.02l-.01-.01v-.01.01l-.01-.01v-.02h-.01v-.03h-.01v-.03h-.01v-.02.01h-.01v-.03l-.01-.01v-.02l-.01-.01v-.03l-.01-.01v.01-.02h-.01v-.03l-.01-.01v-.03l-.01-.01v-.01.01l-.01-.01v-.04h-.01v-.05h-.01v-.01.01-.02l-.01-.01v-.05h-.01v-.03.01-.01h-.01V17.03l-.01-.01v-.03.01-.03h.07v-.08.01V16.79v.01h-.01V16.69v.01V16.59v.01V16.49v.01l.01-.01V16.39v.01-.06l.01-.02.02-.02.02-.02.02-.01h.08l.02.01.02.02.02.02v.06l-.01.01v.02l-.01.01V16.54h-.01v.04c.03-.12.1-.22.17-.3h-.01c-.04-.12-.12-.22-.35-.17-.5.1-.89.35-1.08.78-.15.33-.08.73.17 1.19l.19.47z" style="fill:currentColor"/>

    <path d="M19.7 16.19c-.24 0-.43.27-.43.61 0 .18.05.34.14.46h.02l.03.01.03.02.02.02.02.02.02.02v-.01l.01-.03.02-.03.02-.02.02-.02.02-.01h.05l.03.01.03.01.02.02.02.02.02.03v.04c.01 0 .02-.01.02-.01l.02-.03.02-.02.02-.02.03-.02.03-.01c.09-.11.15-.27.15-.46.04-.32-.16-.6-.4-.6z" style="fill:currentColor"/>

    <path d="M19.69 15.58c-.14 0-.25.16-.25.35 0 .11.03.21.08.27.05-.03.11-.05.17-.05.06 0 .11.02.17.04.05-.07.08-.16.08-.27.01-.18-.1-.34-.25-.34z" style="fill:currentColor"/>

    <path d="M19.59 17.38c-.02.26 0 .51.07.77.08-.2.12-.46.12-.75.01-.06 0-.11-.09-.12-.05-.01-.1.02-.1.1zM19.4 17.29c.02.17.06.35.15.52.03-.3 0-.5-.15-.52zM19.86 17.81c.09-.17.13-.34.16-.52-.16.02-.18.22-.16.52z" style="fill:#9f9f9f"/>

    <path d="M20.19 16.6v.16c-.01.02-.01.03-.01.04v.04c0 .02 0 .03-.01.05v.04c0 .02-.01.02-.01.04s0 .03-.01.04c0 .02 0 .03-.01.05 0 .02 0 .02-.01.04 0 .02 0 .03-.01.05 0 .01 0 .02-.01.04 0 .02-.01.03-.01.05-.01.01-.01.02-.01.04-.01.02-.01.03-.02.05 0 .02-.01.02-.02.04 0 .02-.01.03-.01.05-.01.02-.01.03-.02.05-.01.01-.01.02-.02.04s-.01.03-.02.05c.02.04.02.06.01.07-.01.02-.02.03-.02.05-.01.01-.02.02-.02.04-.01 0-.01 0-.01.01l-.02.04c-.02.03-.05.06-.04.09.01.02.05.05.07.03.03-.01.02-.06.04-.09.01-.02.02-.03.02-.05 0-.02.01-.03.02-.05.01-.02.02-.03.02-.05.01-.02.02-.03.02-.05.01-.01.02-.02.02-.04s.01-.03.02-.05c0-.02.01-.03.01-.05.01-.02.02-.03.02-.05.01-.02.01-.03.02-.05 0-.02.01-.02.01-.04.01-.02.01-.03.02-.05 0-.02.01-.03.01-.05.01-.02.01-.02.01-.04.01-.02.01-.03.01-.05.01-.02.01-.03.01-.04.01-.02.01-.03.01-.05.01-.02.01-.03.01-.04 0-.02.01-.03.01-.05v-.04c.01-.02.01-.03.01-.05v-.04c0-.02.01-.03.01-.04v-.26c-.01-.01-.01-.02-.01-.04v-.04c0-.02.01-.06-.01-.08-.02-.02-.07-.02-.08 0-.02.02 0 .06.01.09v.08c.01.01.01.02.01.03v.01c-.01 0-.01.01-.01.03zM19.15 17c0 .01 0 .02.01.04 0 .02 0 .03.01.05 0 .01 0 .02.01.04 0 .02 0 .03.01.05 0 .02 0 .02.01.04 0 .02.01.03.01.05.01.02.01.03.02.05 0 .02.01.02.01.04.01.02.01.03.02.05 0 .02.01.03.02.05 0 .02.01.03.01.05.01.02.02.03.02.05.01.02.02.03.02.04.01.02.02.03.02.05 0 .02.01.03.02.05.01.02.02.03.02.05.01.02.02.03.02.05.02.03.01.08.04.09.02.02.07-.01.07-.03.01-.03-.02-.06-.04-.09l-.02-.04c0-.01 0-.01-.01-.01 0-.02-.01-.03-.02-.04 0-.02-.01-.03-.02-.05-.01-.02-.01-.03-.02-.05-.01-.02-.01-.03-.02-.05-.01-.02-.01-.03-.02-.04-.01-.02-.01-.03-.02-.05 0-.02-.01-.03-.01-.05-.01-.02-.02-.02-.02-.04-.01-.02-.01-.03-.02-.05 0-.02 0-.03-.01-.04 0-.02-.01-.03-.01-.05-.01-.02-.01-.03-.01-.04-.01-.02-.01-.03-.01-.05-.01-.02-.01-.02-.01-.04-.01-.02-.01-.03-.01-.05-.01-.01-.01-.02-.01-.04s-.01-.02-.01-.04v-.04c-.01-.02-.01-.03-.01-.05v-.04c0-.01 0-.02-.01-.04V16.57c0-.02 0-.02.01-.03v-.08c.01-.03.03-.07.01-.09a.06.06 0 0 0-.08 0c-.02.02-.01.06-.01.08v.04c0 .02 0 .03-.01.04v.26c0 .01.01.02.01.04v.04c0 .02 0 .03.01.05v.04c.03.01.03.02.03.04z" style="fill:#9f9f9f"/>

    <path d="M19.93 15.41c.05 0 .1-.04.1-.08 0-.05-.05-.08-.1-.08-.06 0-.11.03-.11.08 0 .04.05.08.11.08zM19.72 15.2c.06 0 .11-.03.11-.08 0-.04-.05-.08-.11-.08s-.1.04-.1.08c0 .05.04.08.1.08zM19.63 15.33c0 .03.03.06.07.06.05 0 .08-.02.08-.06 0-.03-.03-.07-.08-.07-.04 0-.07.04-.07.07zM19.48 15.41c.06 0 .1-.04.1-.08 0-.05-.04-.08-.1-.08s-.1.03-.1.08c0 .04.04.08.1.08zM19.72 15.58c.06 0 .11-.03.11-.08 0-.04-.05-.08-.11-.08s-.1.04-.1.08.04.08.1.08zM28.78 18.54l.05-.02.09-.02.08-.02.08-.02.09-.02.08-.02.08-.02.09-.02.08-.01.08-.02.08-.01.09-.01.08-.01.08-.01h.33l.08.01h.09l.08.01.08.01.08.02.08.01.09.02.08.02.08.02.08.02.08.02.08.02.08.03.05.02.22-.48c.26-.46.32-.86.17-1.19-.19-.43-.58-.68-1.07-.78-.24-.04-.32.06-.35.17h-.02c.08.07.14.17.17.3v-.07.01h-.01v-.09l-.01-.02v.01l-.01-.02v-.02l.01-.02.01-.02.02-.02.02-.01h.08l.02.01.02.02.01.02.01.02V16.49l.01.01V16.94h-.01V17.05h.06v.08V17 17.06l-.01.01v.05l-.01.01v.04l-.01.01v.04l-.01.01v.04l-.01.01v.03l-.01.01v.04h-.01v.03l-.01.01v.04h-.01v.03l-.01.01v.02l-.01.01v.03h.01v.03h-.01v.03l-.01.01v.02l-.01.01v.02l-.01.01v.02l-.01.01v.02l-.01.01v.01l-.01.01v.02l-.01.01v.02l-.01.01v.02h-.01v.03l-.01.01v.01l-.01.01v.01l-.01.01v.02h-.01v.02l-.01.01v.02l-.01.01V18l-.01.02v.01l-.01.02v.02l-.01.02-.02.02-.02.02-.02.01h-.02l-.02-.01-.02-.01-.02-.01-.02-.01-.01-.02-.01-.02-.03.07-.01-.02v.03l-.01.02-.01.02v.02l-.01.02-.01.02v.02l-.01.02-.04.15-.05-.14-.01-.02-.01-.02-.01-.02-.01-.02-.01-.02v-.02l.05-.17-.01-.02v-.02l-.01-.02-.01-.02v-.02l-.01-.02v-.02l-.01-.02V17.72l-.01.04-.02.2-.02-.06-.02.02-.01.01-.02.01-.02.01-.02.01h-.02l-.02-.01-.02-.02-.01-.02-.01-.02-.01-.02v-.02l-.01-.01v-.03h-.01v-.02l-.01-.01-.01-.02v-.01l-.01-.01v-.01l-.01-.02v-.02h-.01v-.02l-.01-.01v-.01l-.01-.01v-.02l-.01-.01v-.02l-.01-.01v-.02l-.01-.01v.05-.01h-.01v-.02l-.01-.01v-.02l-.01-.02v-.01l-.01-.02v.01l-.01-.01v-.03l-.01-.01v-.02l-.01-.01v-.03h-.01v.01-.02l-.01-.01v-.03l-.01-.01v-.02l-.01-.01v-.02l-.01-.01v-.03l-.01-.01v-.03l-.01-.01v.01-.03l-.01-.01v-.04l-.01-.01v-.02.01-.02l-.01-.01v-.05l-.01-.02v-.01.01-.04l-.01-.01v-.08l-.01-.01v-.09.03-.04l-.01-.01V16.69v.01V16.59v.01V16.52l.01-.01v-.02.01V16.39v.01-.06l.01-.02.02-.02.02-.02.02-.01h.08l.02.01.02.02.02.02v.06l-.01.01v.04h-.01V16.57c.03-.12.09-.22.17-.29-.07-.16-.17-.26-.37-.18-.35.12-.67.27-.91.57-.42.52-.12.96.02 1.44.07.15.17.29.23.43z" style="fill:currentColor"/>

    <path d="M30.11 16.19c-.24 0-.44.27-.44.61 0 .18.06.35.15.46h.01l.03.01.02.02.02.02.02.02.02.03c.01 0 .01.01.02.01v-.02l.01-.02.01-.03.02-.02.02-.02.03-.01.03-.01h.05l.03.01.02.01.02.02.02.03.01.03v.01l.02-.02.02-.02.03-.02.02-.02.03-.01h.02c.09-.12.15-.27.15-.46.03-.33-.17-.61-.41-.61z" style="fill:currentColor"/>

    <path d="M30.11 15.58c-.14 0-.26.16-.26.35 0 .11.03.2.09.27.05-.02.11-.04.17-.04.06 0 .12.02.17.05.06-.07.09-.17.09-.27 0-.2-.12-.36-.26-.36z" style="fill:currentColor"/>

    <path d="M30.26 17.81c.09-.17.13-.34.16-.52-.16.02-.19.22-.16.52zM29.79 17.29c.02.17.07.35.16.52.03-.3 0-.5-.16-.52zM30.11 17.28c-.09.01-.1.06-.09.12.01.29.04.55.12.75.07-.26.09-.51.08-.77 0-.08-.05-.11-.11-.1z" style="fill:#9f9f9f"/>

    <path d="M29.56 17c0 .01.01.02.01.04s.01.03.01.05c0 .01 0 .02.01.04 0 .02.01.03.01.05 0 .02.01.02.01.04.01.02.01.03.01.05.01.02.01.03.02.05 0 .02.01.02.01.04.01.02.02.03.02.05.01.02.01.03.02.05 0 .02.01.03.02.05 0 .02.01.03.02.05 0 .02.01.03.02.04 0 .02.01.03.02.05.01.02.01.03.02.05.01.02.02.03.02.05.01.02.01.03.02.05.02.03.01.08.04.09.02.02.07-.01.07-.03.01-.03-.02-.06-.03-.09-.01-.02-.02-.02-.02-.04v-.01c-.01-.02-.02-.03-.02-.04-.01-.02-.02-.03-.02-.05 0-.02-.01-.03-.02-.05 0-.02-.01-.03-.02-.05 0-.02-.01-.03-.02-.04 0-.02-.01-.03-.02-.05 0-.02-.01-.03-.01-.05l-.02-.04c0-.02-.01-.03-.01-.05-.01-.02-.01-.03-.02-.04 0-.02-.01-.03-.01-.05 0-.02-.01-.03-.01-.04-.01-.02-.01-.03-.01-.05-.01-.02-.01-.02-.01-.04-.01-.02-.01-.03-.01-.05 0-.01-.01-.02-.01-.04s0-.02-.01-.04v-.04c0-.02 0-.03-.01-.05v-.12c-.01-.02-.01-.02-.01-.04v-.08c0-.02.01-.03.01-.04v-.12c.01-.03.03-.07.02-.09-.02-.02-.07-.02-.09 0-.02.02 0 .06-.01.08v.08c0 .02 0 .03-.01.04v.17c0 .02.01.03.01.05v.08c0 .02.01.03.01.05V17zM30.6 16.56v.2c0 .02 0 .03-.01.04v.09c-.01.01-.01.02-.01.04s0 .02-.01.04v.04c-.01.02-.01.03-.01.05-.01.02-.01.02-.01.04-.01.02-.01.03-.01.05-.01.01-.01.02-.02.04 0 .02 0 .03-.01.05 0 .01-.01.02-.01.04-.01.02-.01.03-.02.05 0 .02-.01.02-.01.04-.01.02-.01.03-.02.05-.01.02-.01.03-.02.05 0 .01-.01.02-.02.04 0 .02-.01.03-.02.05 0 .02-.01.03-.02.05-.01.02-.01.03-.02.05-.01.01-.02.02-.02.04l-.01.01c0 .02-.01.02-.02.04-.02.03-.05.06-.04.09.01.02.05.05.07.03.03-.01.03-.06.04-.09.01-.02.02-.03.02-.05.01-.02.01-.03.02-.05.01-.02.02-.03.02-.05 0-.02.01-.03.02-.05 0-.01.01-.02.02-.04 0-.02.01-.03.02-.05 0-.02.01-.03.02-.05 0-.02.01-.03.01-.05.01-.02.02-.03.02-.05l.02-.04c0-.02.01-.03.01-.05 0-.02.01-.03.01-.05l.02-.04c0-.02 0-.03.01-.05 0-.02 0-.03.01-.04 0-.02 0-.03.01-.05v-.04c.01-.02.01-.03.01-.05 0-.02 0-.03.01-.04v-.05c0-.02 0-.02.01-.04v-.3c0-.01 0-.02-.01-.04v-.04c0-.02.02-.06-.01-.08-.02-.02-.07-.02-.08 0-.02.02.01.06.01.09v.04c0 .02.01.02.01.04.02.02.02.02.02.05 0-.01 0-.01 0 0z" style="fill:#9f9f9f"/>

    <path d="M30.33 15.41c.06 0 .11-.04.11-.08 0-.05-.05-.08-.11-.08s-.1.03-.1.08c0 .04.04.08.1.08zM29.89 15.41c.06 0 .1-.04.1-.08 0-.05-.04-.08-.1-.08s-.11.03-.11.08c0 .04.05.08.11.08zM29.99 15.49c0 .05.04.08.1.08s.1-.03.1-.08c0-.04-.04-.08-.1-.08s-.1.04-.1.08zM30.18 15.33c0-.03-.03-.07-.07-.07-.04 0-.07.03-.07.07 0 .03.03.06.07.06.04 0 .07-.03.07-.06zM30.09 15.2c.06 0 .1-.03.1-.08 0-.04-.04-.08-.1-.08s-.1.04-.1.08c0 .05.04.08.1.08zM24.3 14.66c-.09 0-.17.08-.17.18 0 .1.07.18.17.18.09 0 .17-.08.17-.18 0-.09-.08-.18-.17-.18zM24.63 14.26c.09 0 .17-.08.17-.18 0-.1-.07-.18-.17-.18-.09 0-.17.08-.17.18.01.1.08.18.17.18zM25.25 15.27c0 .1.07.18.17.18.09 0 .17-.08.17-.18 0-.11-.07-.19-.17-.19s-.17.08-.17.19zM25.19 13.88c-.09 0-.17.08-.17.19 0 .1.07.18.17.18.09 0 .17-.08.17-.18 0-.11-.08-.19-.17-.19zM25.25 14.44c0 .1.07.18.17.18.09 0 .17-.08.17-.18 0-.1-.07-.18-.17-.18s-.17.08-.17.18zM24.82 15.6c0-.11-.07-.19-.17-.19-.09 0-.17.08-.17.19 0 .1.07.18.17.18.09.01.17-.08.17-.18zM25.68 14.89c0-.11-.07-.19-.17-.19s-.17.08-.17.19c0 .1.07.18.17.18s.17-.08.17-.18zM25.13 15.41c-.1 0-.17.08-.17.19 0 .1.07.18.17.18.09 0 .17-.08.17-.18 0-.11-.08-.19-.17-.19zM24.4 15.07c-.09 0-.17.08-.17.18 0 .1.07.18.17.18.09 0 .17-.08.17-.18 0-.1-.08-.18-.17-.18zM24.24 14.43c0 .1.07.18.17.18s.17-.08.17-.18c0-.11-.07-.19-.17-.19-.09 0-.17.08-.17.19zM24.5 13.28c0 .36.18.64.41.64.22 0 .4-.28.4-.64 0-.35-.17-.63-.4-.63s-.41.28-.41.63z" style="fill:currentColor"/>

    <path d="M24.8 17.47c0 .09.05.17.12.17.07 0 .12-.07.12-.17 0-.08-.05-.16-.12-.16-.07 0-.12.07-.12.16zM24.02 16.5c-.12.37.02.67.75.76-.45-.14-.73-.37-.75-.76zM26.46 17.35c-.51.16-1.09.17-1.38.29.59.1 1.12.09 1.38-.29zM24.75 17.64c-.29-.12-.87-.13-1.38-.29.27.38.79.39 1.38.29zM25.07 17.27c.72-.1.86-.39.74-.76-.03.38-.3.61-.74.76z" style="fill:#9f9f9f"/>

    <path d="M24.79 17.36c-.57-.12-.98-.41-1.16-.91-.09.62.4.86 1.16.91zM26.21 16.45c-.18.5-.6.78-1.16.91.75-.05 1.24-.29 1.16-.91z" style="fill:#9f9f9f"/>

    <path d="M26.45 16.72c-.31.46-.79.67-1.36.75.82.01 1.33-.2 1.36-.75zM23.38 16.72c.03.56.53.76 1.36.75-.57-.09-1.06-.3-1.36-.75z" style="fill:#9f9f9f"/>

    <path d="m25.18 15.86-.02.01h-.06l-.03-.01h-.02l-.03-.02h-.01l-.03-.02-.01-.02-.02-.01-.02-.02-.01-.03-.01-.01-.01-.03-.01-.02-.01.02-.01.03-.01.01-.02.03-.02.02-.01.01-.02.02-.02.02h-.02l-.02.02h-.03l-.02.01h-.02l.07 1.34h.01l.18.06.15-.05z" style="fill:currentColor"/>

    <path d="M24.22 15.44v.01z" style="fill:#9f9f9f"/>

    <path d="m25.58 15.46-.02.02-.02.02-.02.01-.02.01-.02.01-.02.01h-.06v.01l.01.02v.05l-.01.02-.01.02-.01.02-.01.02-.01.02-.02.02-.02.02-.02.02-.02.02-.1 1.14c.16-.48.3-.98.4-1.48zM24.58 15.86l-.02-.02-.02-.01-.02-.02-.02-.02-.02-.02-.02-.02-.02-.02-.01-.02-.01-.02-.01-.02-.01-.02v-.02l-.01-.02.01-.03v-.02l.01-.02-.01.01-.02-.01h-.02l-.02-.01-.04-.03-.02-.02-.02-.01-.02-.02-.01-.01c.1.5.25 1.01.41 1.51l-.06-1.09zM24.06 14.36c0 .12.02.22.03.33l.02-.02.01-.02.02-.02.02-.01.02-.02.02-.02h.02l-.02-.02-.01-.02-.01-.02-.01-.02-.01-.02-.01-.02v-.06l.01-.02.01-.02.01-.02.01-.02.01-.02.02-.02.02-.02.02-.02.02-.02.02-.02.02-.01.02-.01c-.18-.18-.28-.12-.28.18zM25.5 14.19h.02l.02.02.02.02.02.01.02.02.02.02.02.02.01.02.02.02.01.02v.02l.01.02v.04l-.01.02v.02l-.01.02-.02.02-.01.02-.02.02v.01c0 .01.01.02.01.02l.02.01.02.02.02.02.02.02.02.02.02.02.01.02c.02-.12.04-.26.04-.39-.03-.27-.13-.33-.3-.14z" style="fill:currentColor"/>

    <path d="M23.86 14.21c-.05.93.16 1.9.68 2.92l.01.01.03.01.03.02-.07-.23-.02-.04-.02-.05-.02-.05-.02-.04-.02-.05-.02-.05-.01-.05-.02-.04-.02-.05-.02-.05-.01-.05-.02-.04-.02-.05-.01-.05-.02-.05-.01-.04-.02-.05-.01-.05-.02-.05-.01-.04-.02-.05-.01-.05-.02-.05-.01-.05-.01-.04-.02-.05-.01-.05-.01-.05-.02-.04-.01-.05.01-.27v-.05l.01-.02.01-.02.01-.02.02-.02.01-.01-.02-.02-.02-.01-.02-.02-.02-.02-.01-.02.05-.02-.02-.02-.01-.02-.01-.02v-.04l-.05-.21v-.04l-.01-.02v-.04l-.01-.02v-.04l-.01-.02V14.28l.01-.05.01-.04.02-.04.02-.04.02-.03.03-.02.02-.02c-.1-.11-.19-.03-.24.17zM25.97 14.21c-.06-.21-.15-.28-.26-.21l.03.01.03.03.02.03.02.03.02.04.01.05.01.05V14.48l-.01.02v.02l-.01.02v.04l-.01.02v.02l-.01.02v.02l-.07.22v.02l-.02.02-.01.02-.02.02-.02.02-.02.02-.02.02-.02.02h-.01l.01.02.02.02.01.02v.02l.01.02v.02l-.01.27-.01.05-.02.04-.01.05-.01.05-.01.04-.02.05-.01.05-.02.04-.01.05.03.15-.02.04-.01.05-.02.05-.01.04-.02.05-.02.04-.01.05-.02.05-.01.04-.02.05-.02.05-.01.04-.02.05-.02.05-.02.04-.02.05-.01.05-.02.04-.02.05-.02.04-.07.24.02-.01.03-.02.03-.01.02-.01c.57-.99.77-1.96.73-2.9z" style="fill:currentColor"/>

    <path d="M23.94 16.7v-.03l.01-.03v-.04l.01-.03.01-.03.07-.25.02.26v.03l.01.02.01.03.01.03.01.03.01.02.02.02.01.03.02.02.02.02.02.02.02.02.02.02.02.02.02.02.02.02.02.02.02.02.02.02.02.02.02.01-.04-.08-.04-.09-.04-.1-.04-.09-.04-.05-.04-.1-.03-.09-.03-.09-.03-.1-.03-.09-.04-.09-.02-.1-.02-.09-.02-.09-.02-.09-.02-.09-.02-.09-.02-.1-.01-.09-.02-.09-.03-.11-.01-.09-.01-.09-.01-.08v-.09l-.01-.09v-.36l.01-.1.01-.05.02-.03.01-.04.02-.02.02-.03.02-.02.02-.02.02-.02.02-.02.03-.02.04-.03h.06l.03.01.03.02.15.09-.02.01.02.01.03.02.03.02.03.03v-.05l.01-.02v-.02l.01-.02.01-.02.01-.02c-.13-.27-.31-.4-.5-.37-.28.05-.47.4-.57 1.01.02.77.14 1.51.61 2.1zM25.42 13.96l.01.02.01.02V14.09l-.01.01.04-.04.03-.02.03-.02.02-.02-.02-.01.17-.1.03-.01.03-.01h.06l.03.01.02.02.02.02.02.02.02.02.02.02.05.07.02.03.02.03.01.03.02.05v.18l.01.09-.01.09v.18l-.01.09-.01.09-.01.08-.01.09-.02.09-.01.12-.02.1-.02.09-.02.09-.02.09-.02.09-.02.09-.02.1-.03.09-.02.09-.03.09-.03.1-.03.09-.03.09-.04.1-.03.09-.04.1-.04.09-.05.1-.04.07.02-.01.03-.02.02-.02.02-.02.02-.02.02-.02.02-.02.02-.02.02-.02.02-.02.02-.02.01-.02.02-.02.02-.03.01-.02.02-.02.01-.03.01-.03.01-.03v-.02l.01-.03.02-.26.07.25.01.03.01.03.01.04v.03l.01.02c.47-.58.57-1.31.57-2.1-.09-.62-.28-.96-.57-1.01-.19-.03-.36.09-.49.36l.01.02-.03-.03z" style="fill:currentColor"/><ellipse cx="24.91" cy="14.83" style="fill:currentColor" rx=".35" ry=".57"/>

    <path d="m22.55 17.94.06-.01.15-.04.15-.03.15-.03.15-.03.14-.02.15-.02.15-.02.15-.02h.02l-.02-.01-.04-.02-.04-.01-.04-.02-.04-.02-.03-.02-.04-.02-.03-.02-.03-.02-.03-.02-.03-.03-.03-.03-.02-.03-.11-.14.17.05.04.02.05.02.05.01.05.02.05.01.05.01.04.01.05.02.05.01.05.01.05.01.01-.06.05.01-.06-.02-.05-.02-.06-.02-.05-.02-.05-.02-.04-.02-.05-.02-.04-.03-.04-.02-.03-.03-.03-.02-.03-.04-.03-.03-.02-.03-.02-.04-.02-.04-.02-.05-.02-.04-.01-.05-.02-.05v-.05l-.02-.21.12.17.02.03.03.04.02.03.03.04.03.03.03.03.03.02.04.03.03.02.02.02-.03-.03-.03-.03-.02-.04-.02-.04-.02-.04-.02-.05-.02-.05-.01-.05-.01-.05v-.05l-.01-.06.01-.06.02-.19-.02-.04-.03-.07-.02-.07-.02-.07-.02-.06-.02-.07-.02-.07-.03-.06-.02-.07-.02-.07-.02-.07-.01-.07-.02-.07-.01-.07-.01-.07-.01-.07-.01-.07-.01-.07v-.07l-.01-.07v-.07l-.01-.07V14.6l.01-.06.02-.06.01-.06.01-.05.02-.06.01-.05.02-.04.01-.05.02-.05.02-.04.01-.04.02-.04.02-.04.02-.04.02-.03.02-.03.02-.03.02-.03.02-.03.02-.02.01-.02c-.49.17-.92.42-1.31.76-.36.32-.59.75-.48 1.37.11.69.4 1.39.75 2.08z" style="fill:currentColor"/>

    <path d="m23.84 16.69-.05-.06-.05-.05-.03-.06-.04-.07.01.03.02.05.02.04.02.04.02.03.03.04.02.05.03.03.03.03.02.04.04.03.02.03.04.04-.01-.03-.02-.03v-.01zM26.11 16.52l-.04.06-.04.05-.04.06-.13.17v.01l-.01.03-.02.03h.01l.02-.04.04-.03.03-.03.03-.04.02-.03.03-.03.03-.05.02-.04.02-.03.03-.04.01-.04.02-.05.02-.03h-.01z" style="fill:#9f9f9f"/>

    <path d="m26.27 13.73.02.03.02.03.02.03.02.03.02.03.02.04.02.04.02.04.02.04.02.04.02.05.01.05.02.04.01.05.02.06.01.05.01.06.01.06.02.06v.08l-.01.07V14.92l-.01.07-.01.07v.07l-.01.07-.01.07-.01.07-.02.07-.01.07-.02.07-.02.07-.02.07-.02.07-.02.07-.02.07-.04.1-.02.07-.02.07-.02.07-.03.07-.02.04.02.19V16.68l-.01.05-.01.05-.02.05-.02.05-.02.04-.02.04-.03.04-.02.03-.03.03.02-.02.03-.02.03-.03.03-.02.03-.03.03-.03.03-.04.03-.03.03-.04.02-.03.12-.17-.02.21-.01.05-.01.05-.02.05-.02.04-.02.05-.02.04-.02.04-.03.03-.02.03-.03.04-.03.02-.04.03-.04.02-.04.03-.04.02-.05.02-.04.02-.06.02-.05.02-.06.02-.05.02.04-.01.05-.01.05-.01.05-.01.04-.01.05-.02.05-.01.05-.01.05-.01.05-.02.04-.01.05-.02.05-.02.17-.05-.1.14-.02.03-.03.03-.03.03-.03.02-.03.02-.04.02-.03.02-.04.02-.03.02-.04.02-.04.01-.05.02-.04.05h.02l.15.02.15.02.15.02.15.02.15.03.15.03.15.03.15.04.05.01c.36-.69.65-1.39.76-2.12.1-.62-.13-1.05-.49-1.37-.38-.34-.81-.59-1.3-.76l.01.02.02.04zM24.99 12.02l.13-.33-.36.01.08.32zM25.06 12.25l.31.08v-.36l-.31.13zM25.12 12.65l-.14-.32h-.15l-.08.31zM24.77 12.1l-.33-.13v.36l.33-.08zM25.04 12.18c0-.07-.06-.14-.13-.14s-.12.07-.12.14.06.13.12.13c.07 0 .13-.06.13-.13z" style="fill:currentColor"/>
</svg>