<svg xmlns="http://www.w3.org/2000/svg" xml:space="preserve" id="Layer_1" x="0" y="0" style="enable-background:new 0 0 40.64 59.01" version="1.1" viewBox="0 0 40.64 59.01">
    <style>.st0{fill:#9f9f9f}.st2{fill:#ffc500}</style>

    <path d="M32.84 59.01H7.8c-4.3 0-7.8-3.2-7.8-7.12V7.12C0 3.2 3.5 0 7.8 0h25.03c4.3 0 7.8 3.2 7.8 7.12v44.76c.01 3.93-3.49 7.13-7.79 7.13zM7.8 1.16c-3.66 0-6.65 2.67-6.65 5.96v44.76c0 3.29 2.98 5.96 6.65 5.96h25.03c3.66 0 6.64-2.67 6.64-5.96V7.12c0-3.29-2.98-5.96-6.64-5.96H7.8z" style="fill:#9f9f9f"/>

    <path d="M7.8 1.03c-3.73 0-6.77 2.73-6.77 6.09v44.76c0 3.36 3.04 6.09 6.77 6.09h25.03c3.73 0 6.77-2.73 6.77-6.09V7.12c0-3.36-3.04-6.09-6.77-6.09H7.8z" style="fill:#fff"/>

    <path d="M30.2 52.77H10.31c-3.05 0-5.53-2.27-5.53-5.06V11.3c0-2.79 2.48-5.06 5.53-5.06H30.2c3.05 0 5.53 2.27 5.53 5.06v36.42c0 2.78-2.48 5.05-5.53 5.05zM10.31 7.39c-2.41 0-4.37 1.75-4.37 3.9v36.42c0 2.15 1.96 3.9 4.37 3.9H30.2c2.41 0 4.37-1.75 4.37-3.9V11.3c0-2.15-1.96-3.9-4.37-3.9H10.31z" style="fill:#9f9f9f"/>

    <path d="M30.64 33.19H9.88c-.27 0-.49-.26-.49-.58 0-.32.22-.58.49-.58h20.76c.27 0 .49.26.49.58 0 .32-.22.58-.49.58zM34.47 14.35H5.76c-.38 0-.68-.26-.68-.58 0-.32.3-.58.68-.58h28.71c.38 0 .68.26.68.58 0 .32-.3.58-.68.58z" style="fill:#9f9f9f"/>

    <path d="M24.17 4.45h-7.7c-.1 0-.18-.26-.18-.58 0-.32.08-.58.18-.58h7.7c.1 0 .18.26.18.58 0 .32-.08.58-.18.58zM30.64 36.57H9.88c-.27 0-.49-.26-.49-.58 0-.32.22-.58.49-.58h20.76c.27 0 .49.26.49.58 0 .32-.22.58-.49.58z" style="fill:currentColor"/>

    <path d="M30.64 39.95H9.88c-.27 0-.49-.26-.49-.58 0-.32.22-.58.49-.58h20.76c.27 0 .49.26.49.58 0 .32-.22.58-.49.58z" style="fill:#9f9f9f"/><circle cx="11.09" cy="3.56" r="1.59" style="fill:currentColor"/>
</svg>