<svg xmlns="http://www.w3.org/2000/svg" xml:space="preserve" id="Layer_1" x="0" y="0" style="enable-background:new 0 0 51.36 61.04" version="1.1" viewBox="0 0 51.36 61.04">
    <path d="M27.86 58.18c8.81-.54 16.81-2.64 23.01-8.53-.61-2.48-1.5-5.96-2.8-6.24-3.31-.71-11.68-2.74-11.68-2.74L33.33 39l-.2.04c-.02-.01-.03-.02-.05-.03l-.02-.01s-5.33 1-7.12 1.01c-1.85.01-7.16-1.01-7.16-1.01h-.02c-.02.01-.04.03-.06.04l-2.99 1.61c-4.11 1.69-9.01 2.02-12.38 2.74-1.32.28-2.22 3.83-2.83 6.38 6.2 5.83 14.18 7.97 22.96 8.39.71.04 1.43.07 2.15.07.75.02 1.5 0 2.25-.05z" style="fill:#fff"/>

    <path d="M25.6 58.79c-.73 0-1.46-.03-2.18-.08-10.2-.49-17.59-3.2-23.26-8.52a.556.556 0 0 1-.15-.54c.78-3.25 1.67-6.44 3.22-6.77 1.02-.22 2.18-.4 3.41-.6 2.84-.45 6.06-.96 8.89-2.12l2.94-1.59a.59.59 0 0 1 .26-.1c.04 0 .09 0 .13.01.05.01 5.25 1 7.05 1 1.74-.01 7-.99 7.05-1 .07-.01.15-.01.22.01l.05-.01c.11-.02.22 0 .32.05l3 1.63c.77.19 8.49 2.05 11.61 2.72 1.51.32 2.37 3.32 3.18 6.63.05.2-.01.4-.15.54-5.55 5.28-12.96 8.03-23.31 8.66-.8.05-1.54.08-2.28.08zM1.06 49.6c5.46 5.01 12.59 7.57 22.42 8.04 1.41.09 2.78.1 4.35 0 9.97-.61 17.12-3.21 22.47-8.18-.45-1.82-1.37-5.33-2.33-5.53-3.28-.71-11.61-2.72-11.69-2.74a.612.612 0 0 1-.12-.05l-2.91-1.58-.03.01c-.08.02-.16.01-.23-.01-.9.17-5.4.98-7.05.99-1.74 0-6.16-.81-7.08-.99l-2.92 1.58c-2.97 1.22-6.25 1.74-9.14 2.2-1.21.19-2.36.37-3.36.59-1.01.22-1.95 3.91-2.38 5.67z" style="fill:#9f9f9f"/>

    <path d="M49.7 47.63H2.46c-.28 0-.5-.22-.5-.5s.22-.5.5-.5H49.7c.28 0 .5.22.5.5s-.22.5-.5.5z" style="fill:#9f9f9f"/>

    <path d="M40.4 16.78c-.34-9.2-5.68-14.66-14.47-14.66-8.78 0-14.13 5.47-14.46 14.66-1.21.86-1.77 2.71-1.09 5.04.43 1.46 1.2 2.61 2.06 3.22 2.02 7.31 6.94 13.42 13.49 13.42 6.54 0 11.46-6.11 13.49-13.42.86-.62 1.63-1.76 2.06-3.22.68-2.33.12-4.18-1.08-5.04z" style="fill:#fff"/>

    <path d="M25.93 38.96c-6.13 0-11.58-5.34-13.92-13.62-.92-.72-1.69-1.94-2.11-3.38-.67-2.28-.25-4.34 1.08-5.44.43-9.34 6.01-14.91 14.95-14.91s14.52 5.57 14.95 14.91c1.33 1.1 1.74 3.16 1.08 5.44-.42 1.44-1.18 2.66-2.11 3.38-2.34 8.28-7.79 13.62-13.92 13.62zm0-36.34c-8.54 0-13.63 5.17-13.97 14.18-.01.16-.08.3-.21.39-1.13.8-1.47 2.53-.9 4.5.38 1.3 1.06 2.38 1.87 2.96.09.07.16.16.19.27 2.19 7.93 7.3 13.05 13 13.05s10.81-5.12 13-13.06c.03-.11.1-.21.19-.27.81-.58 1.49-1.66 1.87-2.96.58-1.97.23-3.69-.9-4.49a.497.497 0 0 1-.21-.39c-.3-9.02-5.38-14.18-13.93-14.18z" style="fill:#9f9f9f"/>

    <path d="M12.53 45.74h26.99v14.8H12.53z" style="fill:currentColor"/>

    <path d="M39.52 61.04H12.53c-.28 0-.5-.22-.5-.5v-14.8c0-.28.22-.5.5-.5h26.99c.28 0 .5.22.5.5v14.8c0 .28-.22.5-.5.5zm-26.49-1h25.99v-13.8H13.03v13.8z" style="fill:#9f9f9f"/>

    <path d="M36.62 51.88H15.54c-.28 0-.5-.22-.5-.5s.22-.5.5-.5h21.08c.28 0 .5.22.5.5s-.22.5-.5.5zM36.62 48.97H15.54c-.28 0-.5-.22-.5-.5s.22-.5.5-.5h21.08c.28 0 .5.22.5.5 0 .27-.22.5-.5.5zM36.62 54.79H15.54c-.28 0-.5-.22-.5-.5s.22-.5.5-.5h21.08c.28 0 .5.22.5.5s-.22.5-.5.5zM36.62 57.71H15.54c-.28 0-.5-.22-.5-.5s.22-.5.5-.5h21.08c.28 0 .5.22.5.5 0 .27-.22.5-.5.5zM49.7 36.49H2.46c-.28 0-.5-.22-.5-.5s.22-.5.5-.5H49.7c.28 0 .5.22.5.5s-.22.5-.5.5zM49.7 41.56H2.46c-.28 0-.5-.22-.5-.5s.22-.5.5-.5H49.7c.28 0 .5.22.5.5s-.22.5-.5.5zM49.76 26.35H2.52c-.28 0-.5-.22-.5-.5s.22-.5.5-.5h47.24c.28 0 .5.22.5.5s-.22.5-.5.5zM49.76 31.42H2.52c-.28 0-.5-.22-.5-.5s.22-.5.5-.5h47.24c.28 0 .5.22.5.5s-.22.5-.5.5zM49.81 16.21H2.57c-.28 0-.5-.22-.5-.5s.22-.5.5-.5h47.24c.28 0 .5.22.5.5s-.22.5-.5.5zM49.81 21.28H2.57c-.28 0-.5-.22-.5-.5s.22-.5.5-.5h47.24c.28 0 .5.22.5.5s-.22.5-.5.5zM49.87 6.07H2.63c-.28 0-.5-.22-.5-.5s.22-.5.5-.5h47.24c.28 0 .5.22.5.5s-.22.5-.5.5zM49.87 11.14H2.63c-.28 0-.5-.22-.5-.5s.22-.5.5-.5h47.24c.28 0 .5.22.5.5s-.22.5-.5.5zM49.93 1H2.68c-.28 0-.5-.22-.5-.5s.23-.5.5-.5h47.24c.28 0 .5.22.5.5s-.22.5-.49.5z" style="fill:#9f9f9f"/>
</svg>