<svg xmlns="http://www.w3.org/2000/svg" xml:space="preserve" id="steps-kz-money" x="0" y="0" style="enable-background:new 0 0 496 496" version="1.1" viewBox="0 0 496 496">
    <path d="M296 200c0-26.5-21.5-48-48-48s-48 21.5-48 48 21.5 48 48 48 48-21.5 48-48M392 336c4.1 0 8.2-1.1 12-3.4 1.2-.7 2.6-1.1 4-1.1s2.8.4 4 1.1c3.8 2.2 7.9 3.4 12 3.4 13.2 0 24-10.8 24-24s-10.8-24-24-24c-4.1 0-8.2 1.1-12 3.4-2.5 1.5-5.6 1.5-8 0-3.8-2.2-7.9-3.4-12-3.4-13.2 0-24 10.8-24 24s10.8 24 24 24zM336 432h32v16h-32zM256 432h32v16h-32zM176 432h32v16h-32zM416 432h32v16h-32z" style="fill:currentColor"/>

    <path d="M392 352c5.5 0 10.9-1.2 16-3.5 5.1 2.3 10.5 3.5 16 3.5 22 0 40-18 40-40s-18-40-40-40c-5.5 0-10.9 1.2-16 3.5-5.1-2.3-10.5-3.5-16-3.5-22 0-40 18-40 40s18 40 40 40zm0-64c4.1 0 8.2 1.1 12 3.4 2.5 1.5 5.6 1.5 8 0 3.8-2.2 7.9-3.4 12-3.4 13.2 0 24 10.8 24 24s-10.8 24-24 24c-4.1 0-8.2-1.1-12-3.4-1.2-.7-2.6-1.1-4-1.1s-2.8.4-4 1.1c-3.8 2.2-7.9 3.4-12 3.4-13.2 0-24-10.8-24-24s10.8-24 24-24zM448 416h-32c-8.8 0-16 7.2-16 16v16c0 8.8 7.2 16 16 16h32c8.8 0 16-7.2 16-16v-16c0-8.8-7.2-16-16-16zm0 32h-32v-16h32v16zM336 464h32c8.8 0 16-7.2 16-16v-16c0-8.8-7.2-16-16-16h-32c-8.8 0-16 7.2-16 16v16c0 8.8 7.2 16 16 16zm0-32h32v16h-32v-16zM256 416c-8.8 0-16 7.2-16 16v16c0 8.8 7.2 16 16 16h32c8.8 0 16-7.2 16-16v-16c0-8.8-7.2-16-16-16h-32zm32 32h-32v-16h32v16zM208 416h-32c-8.8 0-16 7.2-16 16v16c0 8.8 7.2 16 16 16h32c8.8 0 16-7.2 16-16v-16c0-8.8-7.2-16-16-16zm0 32h-32v-16h32v16zM176 288h112v16H176zM176 320h112v16H176zM176 352h112v16H176z" style="fill:#969696"/>

    <path d="M488 0H8C3.6 0 0 3.6 0 8v312c0 4.4 3.6 8 8 8h120v160c0 4.4 3.6 8 8 8h352c4.4 0 8-3.6 8-8V8c0-4.4-3.6-8-8-8zM130.4 280H79.2C76 264.4 63.6 252 48 248.8v-97.6c15.6-3.2 28-15.5 31.2-31.2h337.6c3.2 15.6 15.5 28 31.2 31.2V240H297.9c9-11.1 14.1-25.1 14.1-40 0-35.3-28.7-64-64-64s-64 28.7-64 64c0 14.9 5.1 28.9 14.1 40H184c-25.3 0-46.7 16.9-53.6 40zM296 200c0 16.3-8.1 31.1-21.6 40h-52.8c-13.5-8.9-21.6-23.7-21.6-40 0-26.5 21.5-48 48-48s48 21.5 48 48zm184 280H144V296c0-22 17.9-40 40-40h296v224zm0-240h-16v-96c0-4.4-3.6-8-8-8-13.2 0-24-10.8-24-24 0-4.4-3.6-8-8-8H72c-4.4 0-8 3.6-8 8 0 13.2-10.8 24-24 24-4.4 0-8 3.6-8 8v112c0 4.4 3.6 8 8 8 13.2 0 24 10.8 24 24 0 4.4 3.6 8 8 8h56v16H16V88h464v152zM64 72c7.7-5.8 13.2-14.3 15.2-24h337.6c2 9.8 7.5 18.2 15.2 24H64zm416 0h-16c0-4.4-3.6-8-8-8-13.2 0-24-10.8-24-24 0-4.4-3.6-8-8-8H72c-4.4 0-8 3.6-8 8 0 13.2-10.8 24-24 24-4.4 0-8 3.6-8 8H16V16h464v56z" style="fill:#969696"/>

    <path d="M226.1 177.1h43.8v5.2h-43.8v-5.2zm17.1 15.4h-17.1v-5.2h43.8v5.2h-17.1v36.2h-9.5v-36.2z" style="fill:#969696"/>
</svg>