<svg version="1.1" id="steps-pocket" xmlns="http://www.w3.org/2000/svg" x="0" y="0" viewBox="0 0 331.51 334.88" style="enable-background:new 0 0 331.51 334.88" xml:space="preserve">
  <path style="fill:currentColor" d="m263.52 79.94-35.48-63.79c-1.66-3-5.72-4.18-8.73-2.49l-119.2 66.28h163.41zM302.38 79.95c-1.09-9.62-9.17-17.14-19.07-17.14H268.7l9.53 17.14h24.15z"/>
  <path style="fill:#969696" d="M315.45 82.09c0-17.72-14.41-32.13-32.13-32.13h-21.76L239.28 9.92A19.268 19.268 0 0 0 222.43 0c-3.27 0-6.5.84-9.36 2.43L127.6 49.96H32.13C14.41 49.96 0 64.37 0 82.09v220.65c0 17.72 14.41 32.13 32.13 32.13h251.18c17.72 0 32.13-14.42 32.13-32.13v-64.8h16.07V156h-16.07V82.09zm-32.14-19.28c9.9 0 17.98 7.52 19.07 17.14h-24.15l-9.53-17.14h14.61zm-63.99-49.15c3.01-1.69 7.07-.51 8.73 2.49l35.48 63.79H100.12l119.2-66.28zm83.27 289.08c0 10.63-8.65 19.28-19.28 19.28H32.13c-10.63 0-19.28-8.65-19.28-19.28V82.09c0-10.63 8.65-19.28 19.28-19.28h72.35L73.66 79.95H36.15c-3.55 0-6.43 2.88-6.43 6.43s2.87 6.43 6.43 6.43H302.6v63.2h-47c-21.83 0-39.59 17.76-39.59 39.59v2.76c0 21.83 17.76 39.59 39.59 39.59h47v64.79zm16.07-133.89v56.24H255.6c-14.74 0-26.74-11.99-26.74-26.74v-2.76c0-14.74 11.99-26.74 26.74-26.74h63.06z"/>
  <path style="fill:#969696" d="M261.09 183.31c-7.84 0-14.19 6.35-14.19 14.19s6.35 14.19 14.19 14.19 14.19-6.35 14.19-14.19-6.35-14.19-14.19-14.19z"/>
</svg>