<svg xmlns="http://www.w3.org/2000/svg" xml:space="preserve" id="tariff-kz-3" x="0" y="0" style="enable-background:new 0 0 115.4 90.3" version="1.1" viewBox="0 0 115.4 90.3">
    <path d="m73.6 1.7-72 41.9 39.7 22.9 72-41.8z" style="fill:#fff"/>

    <path d="M41.3 62.3 8.9 43.6 73.6 6 106 24.7 41.3 62.3zM16.2 43.6l25 14.5 57.4-33.3-25-14.6-57.4 33.4z" style="fill:#969696"/>

    <path d="m41.3 66.5-.1 20 72-41.8.1-20z" style="fill:#fff"/>

    <path d="m41.3 66.5-.1 20 72-41.8.1-20z" style="fill:#fff"/>

    <path d="m1.6 43.6-.1 20 39.7 22.9.1-20z" style="fill:#fff"/>

    <path d="m1.6 43.6-.1 20 39.7 22.9.1-20z" style="fill:#fff"/>

    <path d="m114.8 23.8-1.5-.9L73.6 0l-72 41.8-1.5.9v1.7l-.1 20 39.7 22.9 1.5.9 1.5-.9 72-41.8.1-20v-1.7zM73.6 3.5l36.7 21.2-69 40.1L4.6 43.6l69-40.1zM39.7 81.2v2.7L3 62.7l.1-16.5 36.7 21.2-.1 13.8zm72-37.4-69 40.1V67.4l69-40.1v16.5z" style="fill:#969696"/>

    <path d="m45.7 17.9-16.2 9.5 39.7 22.9 16.2-9.4z" style="fill:currentColor"/>

    <path d="m69.2 68.7 16.2-7.9V40.9l-16.2 9.4z" style="fill:currentColor"/>

    <path d="M93.4 67.2c-12.2 0-22 4.5-22 10.1s9.9 10 22 10.1c12.2 0 22-4.5 22-10.1s-9.8-10.1-22-10.1z" style="fill:#969696"/>

    <path d="M93.4 68.8c-10.2 0-18.4 3.4-18.4 7.5s8.2 7.5 18.4 7.5 18.4-3.4 18.4-7.5-8.3-7.5-18.4-7.5z" style="fill:currentColor"/>

    <path d="M93.4 83.9v-.4h.9v.3c-.4.1-.6.1-.9.1zm-.9 0h-.9v-.3h.9v.3zm2.6 0v-.3h.9v.3h-.9zm-4.4 0c-.3 0-.6 0-.9-.1v-.3c.3 0 .6 0 .9.1v.3zm6.2-.1v-.3c.3 0 .6-.1.9-.1v.3c-.3 0-.6.1-.9.1zm-8-.1c-.3 0-.6-.1-.9-.1v-.3c.3 0 .6.1.9.1v.3zm9.8-.1v-.3c.3 0 .6-.1.9-.1v.3c-.3 0-.7.1-.9.1zm-11.5-.1c-.3 0-.6-.1-.9-.1l.1-.3c.3.1.6.1.9.1l-.1.3zm13.2-.1-.1-.3c.3-.1.6-.1.9-.2l.1.3c-.3.1-.6.1-.9.2zm-15-.2c-.3-.1-.6-.1-.9-.2l.1-.3c.3.1.6.1.9.2l-.1.3zm16.8-.2-.1-.3c.3-.1.6-.1.9-.2l.1.3c-.4.1-.7.2-.9.2zm-18.5-.2c-.3-.1-.6-.2-.9-.2l.1-.3c.3.1.6.2.8.2v.3zm20.2-.2-.1-.3c.3-.1.6-.2.8-.3l.1.3c-.3.1-.5.2-.8.3zM82 82.3c-.3-.1-.6-.2-.8-.3l.1-.3c.3.1.6.2.8.3l-.1.3zm23.6-.3-.1-.3c.3-.1.6-.2.8-.3l.1.3c-.3.1-.6.2-.8.3zm-25.3-.3c-.3-.1-.6-.2-.8-.4l.1-.3c.3.1.5.2.8.3l-.1.4zm26.9-.3-.1-.3c.3-.1.5-.3.8-.4l.1.3c-.2.1-.5.2-.8.4zM78.7 81c-.3-.1-.5-.3-.8-.4l.2-.3c.2.2.5.3.8.4l-.2.3zm30.1-.5-.2-.3c.3-.2.5-.3.7-.5l.2.2c-.2.3-.4.5-.7.6zM77.2 80c-.3-.2-.5-.4-.7-.6l.2-.2c.2.2.4.4.7.6l-.2.2zm33-.5-.2-.2.6-.6.2.2c-.1.1-.3.4-.6.6zm-34.3-.7c-.2-.2-.4-.5-.5-.8l.3-.1c.1.2.3.5.5.7l-.3.2zm35.5-.7-.3-.1c.2-.3.3-.5.3-.8l.3.1c0 .2-.2.5-.3.8zM75 77.2c-.1-.3-.1-.6-.1-.9h.3c0 .3 0 .6.1.8l-.3.1zm36.9-.9h-.3.2-.2c0-.3 0-.5-.1-.8l.3-.1c0 .3.1.6.1.9zm-36.6-.8-.3-.1c.1-.3.2-.6.4-.8l.3.1c-.2.3-.4.5-.4.8zm35.9-.8c-.1-.2-.3-.5-.5-.7l.2-.2c.2.2.4.5.5.8l-.2.1zM76.1 74l-.2-.2c.2-.2.4-.4.6-.7l.2.2c-.2.3-.4.5-.6.7zm34-.6c-.2-.2-.4-.4-.7-.6l.2-.2c.3.2.5.4.7.6l-.2.2zm-32.7-.6-.2-.2c.2-.2.5-.3.7-.5l.2.3c-.3.1-.5.3-.7.4zm31.3-.4c-.2-.2-.5-.3-.8-.4l.1-.3c.3.1.5.3.8.4l-.1.3zm-29.9-.5-.1-.3c.3-.1.5-.3.8-.4l.1.3c-.2.1-.5.3-.8.4zm28.3-.4c-.3-.1-.5-.2-.8-.3l.1-.3c.3.1.6.2.8.4l-.1.2zm-26.7-.3-.1-.3c.3-.1.6-.2.8-.3l.1.3c-.2.1-.5.2-.8.3zm25.1-.3c-.3-.1-.6-.2-.8-.3l.1-.3c.3.1.6.2.8.3l-.1.3zm-23.4-.3-.1-.3c.3-.1.6-.2.8-.3l.1.3c-.3.1-.5.2-.8.3zm21.7-.3c-.3-.1-.6-.2-.8-.2l.1-.3c.3.1.6.2.9.2l-.2.3zm-20-.2-.1-.3c.3-.1.6-.1.9-.2l.1.3c-.4.1-.6.1-.9.2zm18.3-.2c-.3-.1-.6-.1-.9-.2l.1-.3c.3.1.6.1.9.2l-.1.3zm-16.6-.2-.1-.3c.3-.1.6-.1.9-.2l.1.3c-.3.1-.6.2-.9.2zm14.9-.1c-.3-.1-.6-.1-.9-.1v-.3c.3 0 .6.1.9.1v.3zm-13.2-.2v-.3c.3 0 .6-.1.9-.1v.3c-.3 0-.6.1-.9.1zm11.5-.1c-.3 0-.6-.1-.9-.1v-.3c.3 0 .6.1.9.1v.3zm-9.7-.1v-.3c.3 0 .6-.1.9-.1v.3c-.3 0-.6.1-.9.1zm7.9-.1c-.3 0-.6 0-.9-.1v-.3c.3 0 .6 0 .9.1v.3zm-6.2 0v-.3h.9v.3c-.3-.1-.6-.1-.9 0zm4.5-.1h-.9v-.3h.9v.3zm-2.7 0v-.3h.9v.3h-.9zM96 74.4c-.1-.9-.9-1.4-2-1.4-.4 0-1 .2-1 .6 0 1.3 6.1 1 6.4 4.1.2 2.2-2.1 3.1-4.2 3.1h-.6v1h-1.1v-1.2c-.8-.3-1.4-.7-1.8-1.1l-.2 1.1h-2.9l.2-3.6h3c0 1.2 1.3 1.3 2 1.4.6 0 1.4-.1 1.4-.7 0-1.1-6.2-.6-6-3.9.1-1.8 2.2-2.5 3.6-2.5h.7v-.8h.9v1c.6.2 1.2.5 1.5 1l.1-1h2.5l.3 3-2.8-.1z" style="fill:currentColor"/>

    <path d="M111.4 80.9c-1.2.7-2.5 1.3-4 1.9-1.2.4-2.6.8-4 1.2-1.3.3-2.6.5-4 .7-1.3.2-2.6.3-4 .3h-4.1c-1.4-.1-2.7-.2-4-.3-1.4-.2-2.7-.4-4-.7-1.4-.3-2.8-.7-4-1.2-1.5-.6-2.9-1.2-4-1.9-2-1.2-3.4-2.7-3.9-4.3V82c.6 1.5 2 2.8 3.9 4 1.2.7 2.5 1.4 4 1.9 1.2.5 2.6.9 4 1.2 1.3.3 2.6.6 4 .7 1.3.2 2.6.3 4 .4.7 0 1.4.1 2.1.1h2c1.4-.1 2.7-.2 4-.3 1.4-.2 2.7-.4 4-.7 1.4-.3 2.8-.7 4-1.2 1.5-.6 2.9-1.2 4-1.9 2-1.2 3.4-2.6 4-4.1v-5.4c-.6 1.5-2 3-4 4.2z" style="fill:currentColor"/>

    <path d="M93.4 59.9c-12.2 0-22 4.5-22 10.1s9.9 10 22 10.1c12.2 0 22-4.5 22-10.1s-9.8-10.1-22-10.1z" style="fill:#969696"/>

    <path d="M93.4 61.5C83.2 61.5 75 64.9 75 69s8.2 7.5 18.4 7.5 18.4-3.4 18.4-7.5-8.3-7.5-18.4-7.5z" style="fill:currentColor"/>

    <path d="M93.4 76.6v-.4h.9v.3c-.4.1-.6.1-.9.1zm-.9 0h-.9v-.3h.9v.3zm2.6 0v-.3h.9v.3h-.9zm-4.4 0c-.3 0-.6 0-.9-.1v-.3c.3 0 .6 0 .9.1v.3zm6.2-.1v-.3c.3 0 .6-.1.9-.1v.3c-.3 0-.6.1-.9.1zm-8-.1c-.3 0-.6-.1-.9-.1V76c.3 0 .6.1.9.1v.3zm9.8-.1V76c.3 0 .6-.1.9-.1v.3c-.3 0-.7.1-.9.1zm-11.5-.1c-.3 0-.6-.1-.9-.1l.1-.3c.3.1.6.1.9.1l-.1.3zm13.2-.1-.1-.3c.3-.1.6-.1.9-.2l.1.3c-.3.1-.6.1-.9.2zm-15-.2c-.3-.1-.6-.1-.9-.2l.1-.3c.3.1.6.1.9.2l-.1.3zm16.8-.2-.1-.3c.3-.1.6-.1.9-.2l.1.3c-.4.1-.7.2-.9.2zm-18.5-.2c-.3-.1-.6-.2-.9-.2l.1-.3c.3.1.6.2.8.2v.3zm20.2-.2-.1-.3c.3-.1.6-.2.8-.3l.1.3c-.3.1-.5.2-.8.3zM82 75c-.3-.1-.6-.2-.8-.3l.1-.3c.3.1.6.2.8.3l-.1.3zm23.6-.2-.1-.3c.3-.1.6-.2.8-.3l.1.3c-.3 0-.6.1-.8.3zm-25.3-.4c-.3-.1-.6-.2-.8-.3l.1-.3c.3.1.5.2.8.3l-.1.3zm26.9-.3-.1-.3c.3-.1.5-.3.8-.4l.1.3c-.2.1-.5.3-.8.4zm-28.5-.4c-.3-.1-.5-.3-.8-.4l.2-.3c.2.2.5.3.8.4l-.2.3zm30.1-.5-.2-.3c.3-.2.5-.3.7-.5l.2.2c-.2.3-.4.5-.7.6zm-31.6-.5c-.3-.2-.5-.4-.7-.6l.2-.2c.2.2.4.4.7.6l-.2.2zm33-.5-.2-.2.6-.6.2.2c-.1.1-.3.4-.6.6zm-34.3-.7c-.2-.2-.4-.5-.5-.7l.3-.1c.1.2.3.5.5.7l-.3.1zm35.5-.7-.3-.2c.2-.3.3-.5.3-.8l.3.1c0 .3-.2.6-.3.9zM75 69.9c-.1-.3-.1-.6-.1-.9h.3c0 .3 0 .6.1.8l-.3.1zm36.9-.9h-.3.2-.2c0-.3 0-.5-.1-.8l.3-.1c0 .3.1.6.1.9zm-36.6-.8-.3-.1c.1-.3.2-.6.4-.8l.3.1c-.2.3-.4.5-.4.8zm35.9-.8c-.1-.2-.3-.5-.5-.7l.2-.2c.2.2.4.5.5.8l-.2.1zm-35.1-.7-.2-.2c.2-.2.4-.4.6-.7l.2.2c-.2.3-.4.5-.6.7zm34-.6c-.2-.2-.4-.4-.7-.6l.2-.2c.3.2.5.4.7.6l-.2.2zm-32.7-.6-.2-.2c.2-.2.5-.3.7-.5l.2.3c-.3.1-.5.3-.7.4zm31.3-.4c-.2-.2-.5-.3-.8-.4l.1-.3c.3.2.5.3.8.4l-.1.3zm-29.9-.5-.1-.3c.3-.1.5-.3.8-.4l.1.3c-.2.1-.5.3-.8.4zm28.3-.4c-.3-.1-.5-.2-.8-.3l.1-.3c.3.1.6.2.8.4l-.1.2zm-26.7-.3-.1-.3c.3-.1.6-.2.8-.3l.1.3c-.2.1-.5.2-.8.3zm25.1-.3c-.3-.1-.6-.2-.8-.3l.1-.3c.3.1.6.2.8.3l-.1.3zm-23.4-.3L82 63c.3-.1.6-.2.8-.3l.1.3c-.3.1-.5.2-.8.3zm21.7-.3c-.3-.1-.6-.2-.8-.2l.1-.3c.3.1.6.2.9.2l-.2.3zm-20-.2-.1-.3c.3-.1.6-.1.9-.2l.1.3c-.4.1-.6.1-.9.2zm18.3-.2c-.3-.1-.6-.1-.9-.2l.1-.3c.3.1.6.1.9.2l-.1.3zm-16.6-.2-.1-.3c.3-.1.6-.1.9-.2l.1.3c-.3.1-.6.2-.9.2zm14.9-.1c-.3 0-.6-.1-.9-.1v-.3c.3 0 .6.1.9.1v.3zm-13.2-.2v-.3c.3 0 .6-.1.9-.1v.3c-.3 0-.6.1-.9.1zm11.5-.1c-.3 0-.6-.1-.9-.1v-.3c.3 0 .6.1.9.1v.3zm-9.7-.1v-.3c.3 0 .6-.1.9-.1v.3c-.3 0-.6.1-.9.1zm7.9-.1c-.3 0-.6 0-.9-.1v-.3c.3 0 .6 0 .9.1v.3zm-6.2 0v-.3h.9v.3c-.3-.1-.6-.1-.9 0zm4.5-.1h-.9v-.3h.9v.3zm-2.7 0v-.3h.9v.3h-.9zM96 67.1c-.1-.9-.9-1.4-2-1.4-.4 0-1 .2-1 .6 0 1.3 6.1 1 6.4 4.1.2 2.2-2.1 3.1-4.2 3.1h-.6v1h-1.1v-1.2c-.8-.3-1.4-.7-1.8-1.1l-.2 1.1h-2.9l.2-3.6h3c0 1.2 1.3 1.3 2 1.4.6 0 1.4-.1 1.4-.7 0-1.1-6.2-.6-6-3.9.1-1.8 2.2-2.5 3.6-2.5h.7v-.8h.9v1c.6.2 1.2.5 1.5 1l.1-1h2.5l.3 3-2.8-.1z" style="fill:currentColor"/>

    <path d="M111.4 74.6c-1.2.7-2.5 1.3-4 1.9-1.2.4-2.6.8-4 1.2-1.3.3-2.6.5-4 .7-1.3.2-2.6.3-4 .3h-4.1c-1.4-.1-2.7-.2-4-.3-1.4-.2-2.7-.4-4-.7-1.4-.3-2.8-.7-4-1.2-1.5-.6-2.9-1.2-4-1.9-2-1.2-3.4-2.7-3.9-4.3v5.4c.6 1.5 2 2.8 3.9 4 1.2.7 2.5 1.4 4 1.9 1.2.5 2.6.9 4 1.2 1.3.3 2.6.6 4 .7 1.3.2 2.6.3 4 .4.7 0 1.4.1 2.1.1h2c1.4-.1 2.7-.2 4-.3 1.4-.2 2.7-.4 4-.7 1.4-.3 2.8-.7 4-1.2 1.5-.6 2.9-1.2 4-1.9 2-1.2 3.4-2.6 4-4.1v-5.4c-.6 1.5-2 3-4 4.2z" style="fill:currentColor"/>

    <path d="M93.4 53.7c-12.2 0-22 4.5-22 10s9.9 10 22 10.1c12.2 0 22-4.5 22-10s-9.8-10-22-10.1z" style="fill:#969696"/>

    <path d="M93.4 55.4c-10.2 0-18.4 3.4-18.4 7.5s8.2 7.5 18.4 7.5 18.4-3.4 18.4-7.5-8.3-7.5-18.4-7.5z" style="fill:currentColor"/>

    <path d="M93.4 70.5v-.4h.9v.3c-.4.1-.6.1-.9.1zm-.9 0h-.9v-.3h.9v.3zm2.6 0v-.3h.9v.3h-.9zm-4.4-.1c-.3 0-.6 0-.9-.1V70c.3 0 .6 0 .9.1v.3zm6.2 0v-.3c.3 0 .6-.1.9-.1v.3c-.3 0-.6.1-.9.1zm-8-.1c-.3 0-.6-.1-.9-.1v-.3c.3 0 .6.1.9.1v.3zm9.8-.1v-.3c.3 0 .6-.1.9-.1v.3c-.3 0-.7.1-.9.1zm-11.5-.1c-.3 0-.6-.1-.9-.1l.1-.3c.3.1.6.1.9.1l-.1.3zm13.2-.1-.1-.3c.3-.1.6-.1.9-.2l.1.3c-.3.1-.6.1-.9.2zm-15-.2c-.3-.1-.6-.1-.9-.2l.1-.3c.3.1.6.1.9.2l-.1.3zm16.8-.2-.1-.3c.3-.1.6-.1.9-.2l.1.3c-.4.1-.7.2-.9.2zm-18.5-.2c-.3-.1-.6-.2-.9-.2l.1-.3c.3.1.6.2.8.2v.3zm20.2-.2-.1-.3c.3-.1.6-.2.8-.3l.1.3c-.3.1-.5.2-.8.3zM82 68.9c-.3-.1-.6-.2-.8-.3l.1-.3c.3.1.6.2.8.3l-.1.3zm23.6-.3-.1-.3c.3-.1.6-.2.8-.3l.1.3c-.3.1-.6.2-.8.3zm-25.3-.3c-.3-.1-.6-.2-.8-.4l.1-.3c.3.1.5.2.8.3l-.1.4zm26.9-.3-.1-.3c.3-.1.5-.3.8-.4l.1.3c-.2.1-.5.2-.8.4zm-28.5-.4c-.3-.1-.5-.3-.8-.4l.2-.3c.2.2.5.3.8.4l-.2.3zm30.1-.5-.2-.3c.3-.2.5-.3.7-.5l.2.2c-.2.3-.4.5-.7.6zm-31.6-.5c-.3-.2-.5-.4-.7-.6l.2-.2c.2.2.4.4.7.6l-.2.2zm33-.5-.2-.2.6-.6.2.2c-.1.1-.3.4-.6.6zm-34.3-.7c-.2-.2-.4-.5-.5-.8l.3-.1c.1.2.3.5.5.7l-.3.2zm35.5-.7-.3-.2c.2-.3.3-.5.3-.8l.3.1c0 .3-.2.6-.3.9zM75 63.8c-.1-.3-.1-.6-.1-.9h.3c0 .3 0 .5.1.8l-.3.1zm36.9-.9h-.3.2-.2c0-.3 0-.5-.1-.8l.3-.1c0 .3.1.6.1.9zm-36.6-.8L75 62c.1-.3.2-.6.4-.8l.3.2c-.2.1-.4.4-.4.7zm35.9-.8c-.1-.2-.3-.5-.5-.7l.2-.2c.2.2.4.5.5.8l-.2.1zm-35.1-.7-.2-.2c.2-.2.4-.4.6-.7l.2.2c-.2.3-.4.5-.6.7zm34-.6c-.2-.2-.4-.4-.7-.5l.2-.2c.3.2.5.4.7.6l-.2.1zm-32.7-.6-.2-.2c.2-.2.5-.3.7-.5l.2.3c-.3.1-.5.3-.7.4zm31.3-.4c-.2-.2-.5-.3-.8-.4l.1-.3c.3.2.5.3.8.5l-.1.2zm-29.9-.5-.1-.3c.3-.1.5-.3.8-.4l.1.3c-.2.1-.5.3-.8.4zm28.3-.4c-.3-.1-.5-.2-.8-.3l.1-.3c.3.1.6.2.8.4l-.1.2zm-26.7-.3-.1-.3c.3-.1.6-.2.8-.3l.1.3c-.2.1-.5.2-.8.3zm25.1-.3c-.3-.1-.6-.2-.8-.3l.1-.3c.3.1.6.2.8.3l-.1.3zm-23.4-.3-.1-.3c.3-.1.6-.2.8-.3l.1.3c-.3.1-.5.2-.8.3zm21.7-.3c-.3-.1-.6-.2-.8-.2l.1-.3c.3.1.6.2.9.2l-.2.3zm-20-.2-.1-.3c.3-.1.6-.1.9-.2l.1.3c-.4 0-.6.1-.9.2zm18.3-.2c-.3-.1-.6-.1-.9-.2l.1-.3c.3.1.6.1.9.2l-.1.3zm-16.6-.2-.1-.3c.3-.1.6-.1.9-.2l.1.3c-.3.1-.6.1-.9.2zm14.9-.1c-.3 0-.6-.1-.9-.1v-.3c.3 0 .6.1.9.1v.3zM87.2 56v-.3c.3 0 .6-.1.9-.1v.3c-.3 0-.6.1-.9.1zm11.5-.1c-.3 0-.6-.1-.9-.1v-.3c.3 0 .6.1.9.1v.3zm-9.7-.1v-.3c.3 0 .6-.1.9-.1v.3c-.3 0-.6.1-.9.1zm7.9-.1c-.3 0-.6 0-.9-.1v-.3c.3 0 .6 0 .9.1v.3zm-6.2 0v-.3h.9v.3c-.3-.1-.6-.1-.9 0zm4.5-.1h-.9v-.3h.9v.3zm-2.7 0v-.3h.9v.3h-.9zM96 60.9c-.1-.9-.9-1.4-2-1.4-.4 0-1 .2-1 .6 0 1.3 6.1 1 6.4 4.1.2 2.2-2.1 3.1-4.2 3.1h-.6v1h-1.1v-1.2c-.8-.3-1.4-.7-1.8-1.1l-.2 1.1h-2.9l.2-3.6h3c0 1.2 1.3 1.3 2 1.4.6 0 1.4-.1 1.4-.7 0-1.1-6.2-.6-6-3.9.1-1.8 2.2-2.5 3.6-2.5h.7V57h.9v1c.6.2 1.2.5 1.5 1l.1-1h2.5l.3 3-2.8-.1z" style="fill:currentColor"/>

    <path d="M111.4 68.5c-1.2.7-2.5 1.3-4 1.9-1.2.4-2.6.8-4 1.2-1.3.3-2.6.5-4 .7-1.3.2-2.6.3-4 .3h-4.1c-1.4-.1-2.7-.2-4-.3-1.4-.2-2.7-.4-4-.7-1.4-.3-2.8-.7-4-1.2-1.5-.6-2.9-1.2-4-1.9-2-1.2-3.4-2.7-3.9-4.3v5.4c.6 1.5 2 2.8 3.9 4 1.2.7 2.5 1.4 4 1.9 1.2.5 2.6.9 4 1.2 1.3.3 2.6.6 4 .7 1.3.2 2.6.3 4 .4.7 0 1.4.1 2.1.1h2c1.4-.1 2.7-.2 4-.3 1.4-.2 2.7-.4 4-.7 1.4-.3 2.8-.7 4-1.2 1.5-.6 2.9-1.2 4-1.9 2-1.2 3.4-2.6 4-4.1v-5.4c-.6 1.5-2 3-4 4.2z" style="fill:currentColor"/>

    <path d="M93.4 47.4c-12.2 0-22 4.5-22 10s9.9 10 22 10.1c12.2 0 22-4.5 22-10s-9.8-10-22-10.1z" style="fill:#969696"/>

    <path d="M111.4 62.2c-1.2.7-2.5 1.3-4 1.9-1.2.4-2.6.8-4 1.2-1.3.3-2.6.5-4 .7-1.3.2-2.6.3-4 .3h-4.1c-1.4-.1-2.7-.2-4-.3-1.4-.2-2.7-.4-4-.7-1.4-.3-2.8-.7-4-1.2-1.5-.6-2.9-1.2-4-1.9-2-1.2-3.4-2.7-3.9-4.3v5.4c.6 1.5 2 2.8 3.9 4 1.2.7 2.5 1.4 4 1.9 1.2.5 2.6.9 4 1.2 1.3.3 2.6.6 4 .7 1.3.2 2.6.3 4 .4.7 0 1.4.1 2.1.1h2c1.4-.1 2.7-.2 4-.3 1.4-.2 2.7-.4 4-.7 1.4-.3 2.8-.7 4-1.2 1.5-.6 2.9-1.2 4-1.9 2-1.2 3.4-2.6 4-4.1V58c-.6 1.5-2 3-4 4.2z" style="fill:currentColor"/>

    <path d="M93.4 41.1c-12.2 0-22 4.5-22 10s9.9 10 22 10c12.2 0 22-4.5 22-10s-9.8-9.9-22-10z" style="fill:currentColor"/>

    <path d="M93.4 42.8c-10.2 0-18.4 3.4-18.4 7.5s8.2 7.5 18.4 7.5 18.4-3.4 18.4-7.5-8.3-7.5-18.4-7.5z" style="opacity:.2;fill:#fff;enable-background:new"/>

    <path d="M111.4 55.9c-1.2.7-2.5 1.3-4 1.9-1.2.5-2.6.8-4 1.2-1.3.3-2.6.5-4 .7-1.3.2-2.6.3-4 .3h-4.1c-1.4-.1-2.7-.2-4-.3-1.4-.2-2.7-.4-4-.7-1.4-.3-2.8-.7-4-1.2-1.5-.6-2.9-1.2-4-1.9-2-1.2-3.4-2.7-3.9-4.3V57c.6 1.5 2 2.8 3.9 4 1.2.7 2.5 1.4 4 1.9 1.2.5 2.6.9 4 1.2 1.3.3 2.6.6 4 .7 1.3.2 2.6.3 4 .4.7 0 1.4.1 2.1.1h2c1.4-.1 2.7-.2 4-.3 1.4-.2 2.7-.4 4-.7 1.4-.3 2.8-.7 4-1.2 1.5-.6 2.9-1.2 4-1.9 2-1.2 3.4-2.6 4-4.1v-5.4c-.6 1.5-2 3-4 4.2z" style="fill:currentColor"/>

    <path d="M93.4 58.4c-8.9 0-18.4-2.8-18.4-7.8s9.5-7.8 18.4-7.8 18.4 2.8 18.4 7.8-9.5 7.8-18.4 7.8zm0-13.5c-9.6 0-16.2 3-16.2 5.7s6.7 5.6 16.2 5.7c9.6 0 16.2-3 16.2-5.7s-6.6-5.7-16.2-5.7z" style="fill:currentColor"/>

    <path d="M113.7 50.6c0-5.2-9.3-9.4-20.9-9.4s-20.9 4.2-20.9 9.4S81.3 60 92.8 60s20.9-4.2 20.9-9.4" style="fill:currentColor"/>

    <path d="M82 58.9c-3.3-.8-5.9-2-7.8-3.4s-2.8-3.1-2.8-4.9c0-1.8.9-3.4 2.8-4.9s4.5-2.6 7.8-3.4S89 41 93.2 41c4.1 0 7.8.4 11.2 1.2 3.3.8 5.9 2 7.8 3.4 1.9 1.5 2.8 3.1 2.8 4.9s-.9 3.5-2.8 4.9-4.5 2.6-7.8 3.4c-3.3.8-7 1.2-11.2 1.2-4.2.2-7.9-.2-11.2-1.1zm20.7-1.1c2.8-.7 5.1-1.7 6.7-3s2.5-2.7 2.5-4.3-.8-3-2.5-4.2c-1.6-1.3-3.9-2.3-6.7-3-2.8-.7-6-1.1-9.5-1.1s-6.7.4-9.6 1.1c-2.9.7-5.1 1.7-6.8 3-1.6 1.3-2.5 2.7-2.5 4.2 0 1.6.8 3 2.5 4.3s3.9 2.3 6.8 3 6.1 1.1 9.6 1.1 6.7-.4 9.5-1.1z" style="fill:#969696"/>

    <path d="m83.8 44.7 19.2.3-.1.8-19.1-.2v-.9zm8 3.3h-8.4l.1-.8 19.2.2-.1.8-8.4-.1-1 9.2h-2.5l1.1-9.3z" style="fill:#969696"/>
</svg>