<svg version="1.1" id="tariff-ru-1" xmlns="http://www.w3.org/2000/svg" x="0" y="0" viewBox="0 0 1506.5 1891.9" style="enable-background:new 0 0 1506.5 1891.9" xml:space="preserve">
  <path style="fill:#fff" d="M982.5 381.8c-4.9 8.4-10.3 16.4-16.1 24.1 28.1 13.8 44.5 30.4 44.5 48.4 0 29.7-37.5 19.3-103.7 7.2-5.6 3.7-11.5 7.3-17.5 10.6-39.4 21.8-83.4 32.7-132.2 32.7-48.8 0-92.9-11-132.3-33.1-5.7-3.2-11.3-6.6-16.6-10.2-68.3 12.9-107 24.6-107-7.4 0-18.4 17.3-35.5 46.7-49.4-5.6-7.5-10.9-15.4-15.8-23.7-3.3-5.5-6.3-11.2-9.1-16.9C244.7 460 43.8 724.7 43.8 1035.4c0 72.7 11 142.9 31.4 209.1 36.4 117.6 102.6 222.3 189.7 305.1 13.7 13 27.9 25.5 42.6 37.4h1.8c-8.9-13.8-17.2-28-24.8-42.6-6.6-12.6-12.6-25.4-18.2-38.6-27.8-65.7-41.9-135.5-41.9-207.5 0-30.1 2.5-59.7 7.3-88.7 7.7-46 21.4-90.7 41.1-133.5-23.4-59.6-65.4-195.9-35.7-349.3l2.4-12.6 12.2-4c106.1-35.3 233.9-.2 322.6 87.5 58.6-21.4 120.1-32.3 183.1-32.3 62.9 0 124.4 10.8 182.9 32.2 88.7-87.6 216.5-122.7 322.5-87.4l12.2 4.1 2.4 12.6c29.6 153.2-12.2 289.4-35.6 349 20 43.4 33.9 88.7 41.5 135.4 4.7 28.5 7 57.6 7 87.1 0 71.9-14.1 141.7-41.9 207.5-4.2 9.9-8.7 19.7-13.5 29.3-6.8 13.8-14.2 27.2-22.2 40.3 13.6-11.6 26.7-23.7 39.4-36.2 81.9-81.1 144.1-181.9 179-294.7 20.4-66.1 31.4-136.3 31.4-209 0-308-197.3-570.7-472.1-668.6-2.3 4.9-5 9.9-7.9 14.8zM1040.1 1750.3v97.8h143.2V1654c-24.4 17-49.8 32.6-76.2 46.6-21 18.4-43.4 35-67 49.7z"/>

  <path style="fill:#fff" d="M1237.4 1202.9c-7.9-40.3-21-79.4-39.1-116.9l-4.3-8.8 3.7-9.1c20.1-48.8 63.1-175.6 39-320.1-91.9-24.7-200.7 10.5-274.7 90.1l-10.2 11-13.9-5.5c-57.5-22.8-118.2-34.4-180.5-34.4-62.4 0-123.1 11.6-180.7 34.5l-13.9 5.5-10.2-11c-74.1-79.5-182.9-114.8-274.8-90.1-24.1 144.7 19 271.6 39.2 320.3l3.7 9.1-4.3 8.8c-17.8 37-30.7 75.5-38.7 115.2-6.3 31.6-9.5 63.9-9.5 96.9 0 85.2 21.9 165.4 60.4 235.3 10.2 18.6 21.6 36.4 34.1 53.4 11.2 15.3 23.3 29.9 36.2 43.8 14.3 15.4 29.6 29.9 45.8 43.4 8.1 6.8 16.5 13.3 25 19.5 14.1 10.3 28.7 19.8 43.8 28.5 71.8 41.5 155.1 65.2 243.8 65.2 86.7 0 168.1-22.7 238.8-62.4 15.1-8.5 29.8-17.8 43.8-27.8 14.6-10.3 28.5-21.5 41.9-33.3 11.8-10.5 23.1-21.6 33.9-33.2 12.9-13.9 25-28.5 36.2-43.8 14.3-19.5 27.2-40.1 38.5-61.6 35.8-67.9 56-145.1 56-227.1.2-32.4-2.9-64.2-9-95.4zM957.2 1493c-28.5 82.9-107.3 142.7-199.7 142.7-91.1 0-168.9-58-198.4-139-8.2-22.5-12.7-46.8-12.7-72.2 0-116.4 94.7-211.2 211.2-211.2 116.4 0 211.1 94.7 211.1 211.2-.1 24-4.1 47-11.5 68.5zM324.3 1654.7v193.4h145.5v-101c-17-10.9-33.4-22.8-49.1-35.6-33.6-16.5-65.8-35.5-96.4-56.8z"/>

  <path style="fill:#fff" d="M757.5 1252.8c-94.7 0-171.7 77-171.7 171.7 0 24.3 5.1 47.5 14.3 68.5 26.5 60.7 87.1 103.2 157.4 103.2 71.4 0 132.8-43.9 158.6-106.1 8.4-20.2 13.1-42.4 13.1-65.6 0-94.7-77.1-171.7-171.7-171.7zm-77.9 209.3c-20.7 0-37.4-16.8-37.4-37.4 0-20.7 16.8-37.5 37.4-37.5 20.7 0 37.4 16.8 37.4 37.5s-16.7 37.4-37.4 37.4zm153.7 0c-20.7 0-37.4-16.8-37.4-37.4 0-20.7 16.8-37.5 37.4-37.5 20.7 0 37.4 16.8 37.4 37.5.1 20.7-16.7 37.4-37.4 37.4z"/>

  <path style="fill:#969696" d="M311.2 1589.9c-.6-1-1.3-2-1.9-3h-1.8c1.3 1.1 2.5 2.1 3.7 3zM757.5 1213.3c-116.4 0-211.2 94.7-211.2 211.2 0 25.3 4.5 49.6 12.7 72.2 29.5 81 107.3 139 198.4 139 92.5 0 171.2-59.7 199.7-142.7 7.4-21.5 11.4-44.5 11.4-68.5.1-116.4-94.6-211.2-211-211.2zm158.6 276.8c-25.8 62.2-87.2 106.1-158.6 106.1-70.3 0-130.9-42.5-157.4-103.2-9.2-21-14.3-44.2-14.3-68.5 0-94.7 77-171.7 171.7-171.7 94.7 0 171.7 77 171.7 171.7 0 23.2-4.7 45.4-13.1 65.6z"/>

  <path style="fill:#969696" d="M679.6 1387.3c-20.7 0-37.4 16.8-37.4 37.5s16.8 37.4 37.4 37.4c20.7 0 37.4-16.8 37.4-37.4 0-20.8-16.7-37.5-37.4-37.5zM833.3 1387.3c-20.7 0-37.4 16.8-37.4 37.5s16.8 37.4 37.4 37.4c20.7 0 37.4-16.8 37.4-37.4.1-20.8-16.7-37.5-37.4-37.5z"/>

  <path style="fill:currentColor" d="M835.3 263.1c12.8-10.6 19.2-25.5 19.2-44.9 0-19.6-6.4-34.6-19.1-45-12.7-10.4-31.1-15.7-55.3-15.7h-65.6v121.4h65.6c24 0 42.4-5.2 55.2-15.8z"/>

  <path style="fill:currentColor" d="M564 364.4c5.6 9.7 11.9 18.7 18.7 27.1 16.8 20.8 37.2 38 61.3 51.4 6.3 3.5 12.7 6.7 19.3 9.6 28.8 12.6 60.2 18.9 94.1 18.9 33.9 0 65.3-6.3 93.9-18.9 6.5-2.9 12.9-6.1 19.1-9.6 23.8-13.4 44-30.4 60.7-51 6.9-8.6 13.3-17.8 19-27.6 1.8-3 3.4-6.1 5-9.1 6.8-13.1 12.2-26.8 16.1-41.1 5.4-19.5 8.1-40.1 8.1-61.8 0-41.2-9.7-78.6-29.2-112-19.4-33.4-46-59.6-79.7-78.6-33.6-19-71.4-28.4-113-28.4-41.7 0-79.6 9.5-113.4 28.4-33.9 19-60.6 45.2-80 78.6-19.4 33.4-29.1 70.7-29.1 112 0 20.9 2.5 40.8 7.5 59.7 3.8 14.3 9 28.1 15.6 41.3 1.9 3.8 3.9 7.5 6 11.1zm133.6-80.2V142.6h82.2c28.7 0 51.2 6.6 67.4 19.7 16.2 13.2 24.3 31.7 24.3 55.6 0 23.9-8.1 42.5-24.3 55.8-6 4.9-12.8 8.9-20.5 12-13.1 5.3-28.7 7.9-46.8 7.9h-65.2v20.2h74.1v11.1h-74.1V370.9h-17V325h-34.9v-11.1h34.9v-29.7z"/>

  <path style="fill:#969696" d="M460.1 341.4c-89.7 37.9-170.3 92.3-239.4 161.4C151.5 572 97.1 652.5 59.2 742.2 19.9 835.1 0 933.8 0 1035.4c0 75.6 11 149.6 32.8 220.7 7.5 24.5 16.3 48.7 26.4 72.5 37.2 87.9 90.1 167 157.3 235.2 1.4 1.4 2.7 2.8 4.1 4.2 19.1 19.1 39.1 37 59.8 53.8v270h233.2v-119.5c11.9 6.1 24 11.8 36.3 17 65.7 27.8 135.5 41.9 207.5 41.9 71.9 0 141.7-14.1 207.5-41.9 10.6-4.5 21.1-9.3 31.3-14.5v117h230.9V1621c20.4-16.5 40-34.2 58.7-52.9 5.2-5.2 10.4-10.6 15.5-16 61.8-65.5 110.9-140.6 146-223.5 10.1-23.8 18.9-48 26.4-72.5 21.8-71.1 32.8-145.1 32.8-220.7 0-101.7-19.9-200.3-59.2-293.2-37.9-89.7-92.3-170.3-161.4-239.4-65-65-140-116.8-223.2-154.3-5.4-2.4-10.8-4.8-16.2-7.1-13.2-5.6-26.6-10.8-40-15.6 6.6-23.1 9.9-47.5 9.9-73.4 0-47.9-11.3-91-33.8-129.4C960 84.6 929 54.5 889.7 32.7 850.3 10.9 806.2 0 757.5 0c-48.8 0-92.9 11-132.3 33.1-39.4 22-70.3 52.3-92.8 90.7-22.6 38.4-33.8 81.3-33.8 128.7 0 24.8 3.1 48.3 9.2 70.6-16 5.5-32 11.6-47.7 18.3zm9.7 1506.7H324.3v-193.4c30.7 21.3 62.8 40.2 96.5 56.8 15.7 12.8 32.1 24.7 49.1 35.6v101zm713.5 0h-143.2v-97.8c23.6-14.8 46-31.4 67.1-49.8 26.3-14 51.7-29.6 76.2-46.6v194.2zm-31.2-261.1c-11.2 15.3-23.3 29.9-36.2 43.8-10.8 11.6-22.1 22.7-33.9 33.2-13.3 11.8-27.3 23-41.9 33.3-14.1 10-28.7 19.3-43.8 27.8-70.7 39.7-152.1 62.4-238.8 62.4-88.7 0-172-23.8-243.8-65.2-15.1-8.7-29.8-18.3-43.8-28.5-8.6-6.2-16.9-12.7-25-19.5-16.2-13.5-31.5-28-45.8-43.4-12.9-13.9-25-28.5-36.2-43.8-12.5-17-23.8-34.8-34.1-53.4-38.5-69.8-60.4-150-60.4-235.3 0-32.9 3.2-65.3 9.5-96.9 8-39.7 20.9-78.2 38.7-115.2l4.3-8.8-3.7-9.1c-20.1-48.8-63.3-175.6-39.2-320.3 91.9-24.7 200.7 10.6 274.8 90.1l10.2 11 13.9-5.5c57.5-22.9 118.3-34.5 180.7-34.5 62.3 0 123.1 11.6 180.5 34.4l13.9 5.5 10.2-11c74-79.5 182.8-114.7 274.7-90.1 24.1 144.5-18.9 271.3-39 320.1l-3.7 9.1 4.3 8.8c18.1 37.5 31.2 76.6 39.1 116.9 6.1 31.1 9.2 63 9.2 95.4 0 81.9-20.3 159.2-56 227.1-11.5 21.5-24.4 42.1-38.7 61.6zm310.6-551.6c0 72.7-11 142.9-31.4 209-34.8 112.8-97.1 213.6-179 294.7-12.7 12.5-25.8 24.6-39.4 36.2 8-13.1 15.4-26.5 22.2-40.3 4.8-9.6 9.3-19.4 13.5-29.3 27.8-65.7 41.9-135.5 41.9-207.5 0-29.5-2.4-58.6-7-87.1-7.6-46.7-21.5-92-41.5-135.4 23.3-59.6 65.2-195.9 35.6-349l-2.4-12.6-12.2-4.1c-106.1-35.3-233.9-.2-322.5 87.4-58.5-21.4-120-32.2-182.9-32.2-63 0-124.5 10.9-183.1 32.3C485.8 709.8 358 674.7 251.9 710l-12.2 4-2.4 12.6c-29.7 153.4 12.3 289.7 35.7 349.3-19.7 42.8-33.4 87.5-41.1 133.5-4.9 29.1-7.3 58.7-7.3 88.7 0 71.9 14.1 141.7 41.9 207.5 5.6 13.1 11.6 26 18.2 38.6 7.6 14.6 15.9 28.8 24.8 42.6.6 1 1.2 2 1.9 3-1.2-1-2.4-2-3.7-3-14.7-11.9-28.9-24.4-42.6-37.4-87.2-82.8-153.4-187.5-189.7-305.1C55 1178.2 44 1108 44 1035.2 44 724.4 244.8 459.7 523.5 364c2.8 5.7 5.8 11.4 9.1 16.9 4.9 8.3 10.1 16.2 15.8 23.7-29.4 14-46.7 31-46.7 49.4 0 32 38.7 20.3 107 7.4 5.4 3.6 10.9 7 16.6 10.2 39.4 22 83.4 33.1 132.3 33.1 48.8 0 92.9-10.9 132.2-32.7 6-3.3 11.9-6.9 17.5-10.6 66.3 12.1 103.7 22.5 103.7-7.2 0-18-16.4-34.6-44.5-48.4 5.8-7.6 11.1-15.6 16.1-24.1 2.9-4.9 5.6-9.9 8.1-15 274.7 98 472 360.8 472 668.7zM542.4 312.1c-5-18.9-7.5-38.8-7.5-59.7 0-41.2 9.7-78.6 29.1-112 19.4-33.4 46.1-59.6 80-78.6 33.9-19 71.7-28.4 113.4-28.4s79.4 9.5 113 28.4c33.7 19 60.2 45.2 79.7 78.6 19.4 33.4 29.2 70.7 29.2 112 0 21.7-2.7 42.3-8.1 61.8-3.9 14.3-9.3 28-16.1 41.1-1.6 3.1-3.3 6.1-5 9.1-5.7 9.8-12.1 19-19 27.6-16.7 20.6-36.9 37.6-60.7 51-6.2 3.5-12.6 6.7-19.1 9.6-28.6 12.6-59.9 18.9-93.9 18.9-34 0-65.4-6.3-94.1-18.9-6.6-2.9-13-6.1-19.3-9.6-24.1-13.5-44.5-30.6-61.3-51.4-6.8-8.5-13.1-17.5-18.7-27.1-2.1-3.6-4.1-7.3-6-11.1-6.7-13.2-11.9-27-15.6-41.3z"/>

  <path style="fill:#969696" d="M662.8 313.8v11.1h34.9V370.8c5.6-.4 11.2-.8 17-1.1V324.9h74.1v-11.1h-74.1v-20.2h65.2c18.1 0 33.7-2.6 46.8-7.9 7.7-3.1 14.5-7.1 20.5-12 16.2-13.3 24.3-31.9 24.3-55.8s-8.1-42.5-24.3-55.6c-16.2-13.2-38.7-19.7-67.4-19.7h-82.2v171.2h-34.8zm51.8-156.2h65.6c24.2 0 42.6 5.2 55.3 15.7 12.7 10.4 19.1 25.4 19.1 45 0 19.4-6.4 34.3-19.2 44.9S804.2 279 780.3 279h-65.6V157.6z"/>

  <path style="fill:#969696" d="M697.6 370.9h17v-1.2c-5.7.4-11.4.8-17 1.2z"/>
</svg>