<svg xmlns="http://www.w3.org/2000/svg" xml:space="preserve" id="tariff-kz-4" x="0" y="0" style="enable-background:new 0 0 155.4 126.9" version="1.1" viewBox="0 0 155.4 126.9">
    <path d="M73.6 15.2 1.6 57l39.7 22.9 72-41.8z" style="fill:#fff"/>

    <path d="M41.3 75.7 8.9 57l64.7-37.6L106 38.1 41.3 75.7zM16.2 57l25 14.5 57.3-33.3-25-14.5L16.2 57z" style="fill:#969696"/>

    <path d="m41.3 79.9-.1 20 72-41.8.1-20z" style="fill:#fff"/>

    <path d="m41.3 79.9-.1 20 72-41.8.1-20z" style="fill:#fff"/>

    <path d="m1.6 57-.1 20 39.7 22.9.1-20z" style="fill:#fff"/>

    <path d="m1.6 57-.1 20 39.7 22.9.1-20z" style="fill:#fff"/>

    <path d="m114.8 37.2-1.5-.9-39.7-22.9-72 41.8-1.5.9v1.7l-.1 20 39.7 22.9 1.5.9 1.5-.9 72-41.8.1-20v-1.7zM73.6 16.9l36.7 21.2-69 40.1L4.6 57l69-40.1zM39.7 94.6v2.7L3 76.1l.1-16.5 36.7 21.2-.1 13.8zm72-37.4-69 40.1V80.8l69-40.1v16.5z" style="fill:#969696"/>

    <path d="m45.7 31.3-16.2 9.5 39.7 22.9 16.2-9.4z" style="fill:currentColor"/>

    <path d="m69.2 82.1 16.2-7.9V54.3l-16.2 9.4z" style="fill:currentColor"/>

    <path d="m113.6 38.3-72 41.9 39.7 22.9 72-41.8z" style="fill:#fff"/>

    <path d="M81.3 98.9 48.9 80.2l64.7-37.6L146 61.3 81.3 98.9zM56.2 80.2l25 14.5 57.4-33.3-25.1-14.5-57.3 33.3z" style="fill:#969696"/>

    <path d="m81.3 103.1-.1 20 72-41.8.1-20z" style="fill:#fff"/>

    <path d="m81.3 103.1-.1 20 72-41.8.1-20z" style="fill:#fff"/>

    <path d="m41.6 80.2-.1 20 39.7 22.9.1-20z" style="fill:#fff"/>

    <path d="m41.6 80.2-.1 20 39.7 22.9.1-20z" style="fill:#fff"/>

    <path d="m154.8 60.4-1.5-.9-39.7-22.9-72 41.8-1.5.9V81l-.1 20 39.7 23 1.5.9 1.5-.9 72-41.8.1-20v-1.8zm-41.2-20.3 36.7 21.2-69 40.1-36.7-21.2 69-40.1zm-33.9 77.7v2.7L43 99.3l.1-16.5L79.8 104l-.1 13.8zm72-37.4-69 40.1v-3.4l.1-13.1 69-40.1-.1 16.5z" style="fill:#969696"/>

    <path d="M85.7 54.5 69.5 64l39.7 22.9 16.2-9.4z" style="fill:currentColor"/>

    <path d="m109.2 105.3 16.2-7.9V77.5l-16.2 9.4z" style="fill:currentColor"/>

    <path d="M133.4 103.8c-12.2 0-22 4.5-22 10.1s9.9 10 22 10.1c12.2 0 22-4.5 22-10.1s-9.9-10.1-22-10.1z" style="fill:#969696"/>

    <path d="M133.4 105.4c-10.2 0-18.4 3.4-18.4 7.5s8.2 7.5 18.4 7.5c10.1 0 18.4-3.4 18.4-7.5s-8.3-7.4-18.4-7.5z" style="fill:currentColor"/>

    <path d="M133.4 120.5v-.4h.9v.3c-.4.1-.7.1-.9.1zm-1 0h-.9v-.3h.9v.3zm2.7 0v-.3h.9v.3h-.9zm-4.4 0c-.3 0-.6 0-.9-.1v-.3c.3 0 .6 0 .9.1v.3zm6.2-.1v-.3c.3 0 .6-.1.9-.1v.3c-.3.1-.6.1-.9.1zm-8-.1c-.3 0-.6-.1-.9-.1v-.3c.3 0 .6.1.9.1v.3zm9.7-.1v-.3c.3 0 .6-.1.9-.1v.3c-.3 0-.6.1-.9.1zm-11.4-.1c-.3 0-.6-.1-.9-.1l.1-.3c.3.1.6.1.9.1l-.1.3zm13.2-.1-.1-.3c.3-.1.6-.1.9-.2l.1.3c-.3.1-.6.1-.9.2zm-15-.2c-.3-.1-.6-.1-.9-.2l.1-.3c.3.1.6.1.9.2l-.1.3zm16.7-.2-.1-.3c.3-.1.6-.1.9-.2l.1.3c-.3.1-.6.2-.9.2zm-18.4-.2c-.3-.1-.6-.2-.9-.2l.1-.3c.3.1.6.2.8.2v.3zm20.2-.2-.1-.3c.3-.1.6-.2.8-.3l.1.3c-.3.1-.6.2-.8.3zm-21.9-.3c-.3-.1-.6-.2-.8-.3l.1-.3c.3.1.6.2.8.3l-.1.3zm23.6-.2-.1-.3c.3-.1.6-.2.8-.3l.1.3c-.3 0-.6.2-.8.3zm-25.3-.4c-.3-.1-.6-.2-.8-.4l.1-.3c.3.1.5.2.8.3l-.1.4zm26.9-.3-.1-.3c.3-.1.5-.3.8-.4l.1.3c-.3.1-.5.3-.8.4zm-28.5-.4c-.3-.1-.5-.3-.8-.4l.2-.3c.2.2.5.3.8.4l-.2.3zm30.1-.5-.1-.3c.3-.2.5-.3.7-.5l.2.2c-.3.3-.6.5-.8.6zm-31.6-.5c-.3-.2-.5-.4-.7-.6l.2-.2c.2.2.4.4.7.6l-.2.2zm33-.5-.2-.2.6-.6.2.2-.6.6zm-34.4-.7c-.2-.2-.4-.5-.5-.8l.3-.1c.1.2.3.5.5.7l-.3.2zm35.6-.7-.3-.1c.1-.3.3-.5.3-.8l.3.1c-.1.2-.2.5-.3.8zm-36.4-.9c-.1-.3-.1-.6-.1-.9h.3c0 .3 0 .6.1.8l-.3.1zm36.9-.9h-.3.1-.1c0-.3 0-.5-.1-.8l.3-.1c0 .3.1.6.1.9zm-36.6-.8-.3-.1c.1-.3.2-.6.4-.8l.3.1c-.3.3-.4.5-.4.8zm35.8-.8c-.1-.2-.3-.5-.5-.7l.2-.2c.2.2.4.5.5.8l-.2.1zm-35-.7-.2-.2c.2-.2.4-.4.6-.7l.2.2c-.2.3-.4.5-.6.7zm34-.6c-.2-.2-.4-.4-.7-.6l.2-.2c.3.2.5.4.7.6l-.2.2zm-32.8-.6-.2-.2c.2-.2.5-.3.7-.5l.2.3c-.2.1-.4.3-.7.4zm31.4-.4c-.2-.2-.5-.3-.8-.4l.1-.3c.3.1.5.3.8.4l-.1.3zm-29.9-.5-.1-.3c.3-.1.5-.3.8-.4l.1.3c-.3.2-.5.3-.8.4zm28.3-.4c-.3-.1-.5-.2-.8-.3l.1-.3c.3.1.6.2.8.4l-.1.2zm-26.7-.3-.1-.3c.3-.1.6-.2.8-.3l.1.3c-.2.1-.5.2-.8.3zm25.1-.3c-.3-.1-.6-.2-.8-.3l.1-.3c.3.1.6.2.8.3l-.1.3zm-23.4-.3-.1-.3c.3-.1.6-.2.8-.3l.1.3c-.3.1-.6.2-.8.3zm21.7-.3c-.3-.1-.6-.2-.9-.2l.1-.3c.3.1.6.2.9.2l-.1.3zm-20-.2-.1-.3c.3-.1.6-.1.9-.2l.1.3c-.4.1-.7.1-.9.2zm18.3-.2c-.3-.1-.6-.1-.9-.2l.1-.3c.3.1.6.1.9.2l-.1.3zm-16.6-.2-.1-.3c.3-.1.6-.1.9-.2l.1.3c-.3.1-.6.2-.9.2zm14.9-.1c-.3-.1-.6-.1-.9-.1v-.3c.3 0 .6.1.9.1v.3zm-13.2-.2v-.3c.3 0 .6-.1.9-.1v.3c-.3 0-.6.1-.9.1zm11.5-.1c-.3 0-.6-.1-.9-.1v-.3c.3 0 .6.1.9.1v.3zm-9.7-.1v-.3c.3 0 .6-.1.9-.1v.3c-.4.1-.6.1-.9.1zm7.9-.1c-.3 0-.6 0-.9-.1v-.3c.3 0 .6 0 .9.1v.3zm-6.2 0v-.3h.9v.3c-.3-.1-.6-.1-.9 0zm4.4-.1h-.9v-.3h.9v.3zm-2.6 0v-.3h.9v.3h-.9zM136 111c-.1-.9-.9-1.4-2-1.4-.4 0-1 .2-1 .6 0 1.3 6.1 1 6.4 4.1.2 2.2-2.1 3.1-4.1 3.1h-.6v1h-1.1v-1.2c-.8-.3-1.4-.7-1.8-1.1l-.2 1.1h-2.9l.2-3.6h3c0 1.2 1.4 1.3 2 1.4.6 0 1.4-.1 1.4-.7 0-1.1-6.2-.6-6-3.9.1-1.8 2.2-2.5 3.6-2.5h.6v-.8h.9v1c.6.2 1.2.5 1.5 1l.1-1h2.5l.3 3-2.8-.1z" style="fill:currentColor"/>

    <path d="M151.4 117.6c-1.1.7-2.5 1.3-4 1.9-1.2.4-2.6.8-4 1.2-1.3.3-2.6.5-4 .7-1.3.2-2.6.3-4 .3h-4.1c-1.4-.1-2.7-.2-4-.3-1.4-.2-2.7-.4-4-.7-1.4-.3-2.8-.7-4-1.2-1.5-.6-2.9-1.2-4-1.9-2-1.2-3.4-2.7-3.9-4.3v5.4c.6 1.5 2 2.8 3.9 4 1.2.7 2.5 1.4 4 1.9 1.2.5 2.6.9 4 1.2 1.3.3 2.6.6 4 .7 1.3.2 2.6.3 4 .4.7 0 1.4.1 2.1.1h2c1.4-.1 2.7-.2 4-.3 1.4-.2 2.7-.4 4-.7 1.4-.3 2.8-.7 4-1.2 1.5-.6 2.9-1.2 4-1.9 2-1.2 3.4-2.6 4-4.1v-5.4c-.6 1.4-2 2.9-4 4.2z" style="fill:currentColor"/>

    <path d="M133.4 96.5c-12.2 0-22 4.5-22 10.1s9.9 10 22 10.1c12.2 0 22-4.5 22-10.1s-9.9-10.1-22-10.1z" style="fill:#969696"/>

    <path d="M133.4 98.1c-10.2 0-18.4 3.4-18.4 7.5s8.2 7.5 18.4 7.5c10.1 0 18.4-3.4 18.4-7.5s-8.3-7.4-18.4-7.5z" style="fill:currentColor"/>

    <path d="M133.4 113.2v-.4h.9v.3c-.4.1-.7.1-.9.1zm-1 0h-.9v-.3h.9v.3zm2.7 0v-.3h.9v.3h-.9zm-4.4 0c-.3 0-.6 0-.9-.1v-.3c.3 0 .6 0 .9.1v.3zm6.2-.1v-.3c.3 0 .6-.1.9-.1v.3c-.3.1-.6.1-.9.1zm-8-.1c-.3 0-.6-.1-.9-.1v-.3c.3 0 .6.1.9.1v.3zm9.7-.1v-.3c.3 0 .6-.1.9-.1v.3c-.3.1-.6.1-.9.1zm-11.4-.1c-.3 0-.6-.1-.9-.1l.1-.3c.3.1.6.1.9.1l-.1.3zm13.2-.1-.1-.3c.3-.1.6-.1.9-.2l.1.3c-.3.1-.6.1-.9.2zm-15-.2c-.3-.1-.6-.1-.9-.2l.1-.3c.3.1.6.1.9.2l-.1.3zm16.7-.2-.1-.3c.3-.1.6-.1.9-.2l.1.3c-.3.1-.6.2-.9.2zm-18.4-.2c-.3-.1-.6-.2-.9-.2l.1-.3c.3.1.6.2.8.2v.3zm20.2-.2-.1-.3c.3-.1.6-.2.8-.3l.1.3c-.3.1-.6.2-.8.3zm-21.9-.3c-.3-.1-.6-.2-.8-.3l.1-.3c.3.1.6.2.8.3l-.1.3zm23.6-.2-.1-.3c.3-.1.6-.2.8-.3l.1.3c-.3.1-.6.2-.8.3zm-25.3-.4c-.3-.1-.6-.2-.8-.3l.1-.3c.3.1.5.2.8.3l-.1.3zm26.9-.3-.1-.3c.3-.1.5-.3.8-.4l.1.3c-.3.1-.5.3-.8.4zm-28.5-.4c-.3-.1-.5-.3-.8-.4l.2-.3c.2.2.5.3.8.4l-.2.3zm30.1-.4-.1-.3c.3-.2.5-.3.7-.5l.2.2c-.3.2-.6.4-.8.6zm-31.6-.6c-.3-.2-.5-.4-.7-.6l.2-.2c.2.2.4.4.7.6l-.2.2zm33-.5-.2-.2.6-.6.2.2-.6.6zm-34.4-.7c-.2-.2-.4-.5-.5-.7l.3-.1c.1.2.3.5.5.7l-.3.1zm35.6-.7-.3-.2c.1-.3.3-.5.3-.8l.3.1-.3.9zm-36.4-.9c-.1-.3-.1-.6-.1-.9h.3c0 .3 0 .6.1.8l-.3.1zm36.9-.8h-.3.1-.1c0-.3 0-.5-.1-.8l.3-.1c0 .2.1.5.1.9zm-36.6-.9-.3-.1c.1-.3.2-.6.4-.8l.3.1c-.3.3-.4.5-.4.8zm35.8-.8c-.1-.2-.3-.5-.5-.7l.2-.2c.2.2.4.5.5.8l-.2.1zm-35-.7-.2-.2c.2-.2.4-.4.6-.7l.2.2c-.2.3-.4.5-.6.7zm34-.6c-.2-.2-.4-.4-.7-.6l.2-.2c.3.2.5.4.7.6l-.2.2zm-32.8-.6-.2-.2c.2-.2.5-.3.7-.5l.2.3c-.2.1-.4.3-.7.4zm31.4-.4c-.2-.2-.5-.3-.8-.4l.1-.3c.3.2.5.3.8.4l-.1.3zm-29.9-.5-.1-.3c.3-.1.5-.3.8-.4l.1.3c-.3.2-.5.3-.8.4zm28.3-.4c-.3-.1-.5-.2-.8-.3l.1-.3c.3.1.6.2.8.4l-.1.2zm-26.7-.3-.1-.3c.3-.1.6-.2.8-.3l.1.3c-.2.1-.5.2-.8.3zm25.1-.3c-.3-.1-.6-.2-.8-.3l.1-.3c.3.1.6.2.8.3l-.1.3zm-23.4-.3-.1-.3c.3-.1.6-.2.8-.3l.1.3c-.3.1-.6.2-.8.3zm21.7-.3c-.3-.1-.6-.2-.9-.2l.1-.3c.3.1.6.2.9.2l-.1.3zm-20-.2-.1-.3c.3-.1.6-.1.9-.2l.1.3c-.4.1-.7.1-.9.2zm18.3-.2c-.3-.1-.6-.1-.9-.2l.1-.3c.3.1.6.1.9.2l-.1.3zm-16.6-.2-.1-.3c.3-.1.6-.1.9-.2l.1.3c-.3.1-.6.2-.9.2zm14.9-.1c-.3-.1-.6-.1-.9-.1v-.3c.3 0 .6.1.9.1v.3zm-13.2-.2v-.3c.3 0 .6-.1.9-.1v.3c-.3 0-.6.1-.9.1zm11.5-.1c-.3 0-.6-.1-.9-.1v-.3c.3 0 .6.1.9.1v.3zm-9.7-.1v-.3c.3 0 .6-.1.9-.1v.3c-.4.1-.6.1-.9.1zm7.9-.1c-.3 0-.6 0-.9-.1V98c.3 0 .6 0 .9.1v.3zm-6.2 0v-.3h.9v.3c-.3-.1-.6 0-.9 0zm4.4-.1h-.9V98h.9v.3zm-2.6 0V98h.9v.3h-.9zM136 103.7c-.1-.9-.9-1.4-2-1.4-.4 0-1 .2-1 .6 0 1.3 6.1 1 6.4 4.1.2 2.2-2.1 3.1-4.1 3.1h-.6v1h-1.1v-1.2c-.8-.3-1.4-.7-1.8-1.1l-.2 1.1h-2.9l.2-3.6h3c0 1.2 1.4 1.3 2 1.4.6 0 1.4-.1 1.4-.7 0-1.1-6.2-.6-6-3.9.1-1.8 2.2-2.5 3.6-2.5h.6v-.8h.9v1c.6.2 1.2.5 1.5 1l.1-1h2.5l.3 3-2.8-.1z" style="fill:currentColor"/>

    <path d="M151.4 111.2c-1.1.7-2.5 1.3-4 1.9-1.2.4-2.6.8-4 1.2-1.3.3-2.6.5-4 .7-1.3.2-2.6.3-4 .3h-4.1c-1.4-.1-2.7-.2-4-.3-1.4-.2-2.7-.4-4-.7-1.4-.3-2.8-.7-4-1.2-1.5-.6-2.9-1.2-4-1.9-2-1.2-3.4-2.7-3.9-4.3v5.4c.6 1.5 2 2.8 3.9 4 1.2.7 2.5 1.4 4 1.9 1.2.5 2.6.9 4 1.2 1.3.3 2.6.6 4 .7 1.3.2 2.6.3 4 .4.7 0 1.4.1 2.1.1h2c1.4-.1 2.7-.2 4-.3 1.4-.2 2.7-.4 4-.7 1.4-.3 2.8-.7 4-1.2 1.5-.6 2.9-1.2 4-1.9 2-1.2 3.4-2.6 4-4.1V107c-.6 1.5-2 3-4 4.2z" style="fill:currentColor"/>

    <path d="M133.4 90.4c-12.2 0-22 4.5-22 10.1s9.9 10 22 10.1c12.2 0 22-4.5 22-10.1s-9.9-10.1-22-10.1z" style="fill:#969696"/>

    <path d="M133.4 92c-10.2 0-18.4 3.4-18.4 7.5s8.2 7.5 18.4 7.5c10.1 0 18.4-3.4 18.4-7.5s-8.3-7.4-18.4-7.5z" style="fill:currentColor"/>

    <path d="M133.4 107.1v-.4h.9v.3c-.4.1-.7.1-.9.1zm-1 0h-.9v-.3h.9v.3zm2.7 0v-.3h.9v.3h-.9zm-4.4 0c-.3 0-.6 0-.9-.1v-.3c.3 0 .6 0 .9.1v.3zm6.2-.1v-.3c.3 0 .6-.1.9-.1v.3c-.3.1-.6.1-.9.1zm-8-.1c-.3 0-.6-.1-.9-.1v-.3c.3 0 .6.1.9.1v.3zm9.7-.1v-.3c.3 0 .6-.1.9-.1v.3c-.3 0-.6.1-.9.1zm-11.4-.1c-.3 0-.6-.1-.9-.1l.1-.3c.3.1.6.1.9.1l-.1.3zm13.2-.1-.1-.3c.3-.1.6-.1.9-.2l.1.3c-.3.1-.6.1-.9.2zm-15-.2c-.3-.1-.6-.1-.9-.2l.1-.3c.3.1.6.1.9.2l-.1.3zm16.7-.2-.1-.3c.3-.1.6-.1.9-.2l.1.3c-.3.1-.6.2-.9.2zm-18.4-.2c-.3-.1-.6-.2-.9-.2l.1-.3c.3.1.6.2.8.2v.3zm20.2-.2-.1-.3c.3-.1.6-.2.8-.3l.1.3c-.3.1-.6.2-.8.3zm-21.9-.3c-.3-.1-.6-.2-.8-.3l.1-.3c.3.1.6.2.8.3l-.1.3zm23.6-.2-.1-.3c.3-.1.6-.2.8-.3l.1.3c-.3 0-.6.2-.8.3zm-25.3-.4c-.3-.1-.6-.2-.8-.4l.1-.3c.3.1.5.2.8.3l-.1.4zm26.9-.3-.1-.3c.3-.1.5-.3.8-.4l.1.3c-.3.1-.5.3-.8.4zm-28.5-.4c-.3-.1-.5-.3-.8-.4l.2-.3c.2.2.5.3.8.4l-.2.3zm30.1-.5-.1-.3c.3-.2.5-.3.7-.5l.2.2c-.3.3-.6.5-.8.6zm-31.6-.5c-.3-.2-.5-.4-.7-.6l.2-.2c.2.2.4.4.7.6l-.2.2zm33-.5-.2-.2.6-.6.2.2-.6.6zm-34.4-.7c-.2-.2-.4-.5-.5-.8l.3-.1c.1.2.3.5.5.7l-.3.2zm35.6-.7-.3-.2c.1-.3.3-.5.3-.8l.3.1-.3.9zm-36.4-.9c-.1-.3-.1-.6-.1-.9h.3c0 .3 0 .6.1.8l-.3.1zm36.9-.9h-.3.1-.1c0-.3 0-.5-.1-.8l.3-.1c0 .3.1.6.1.9zm-36.6-.8-.3-.1c.1-.3.2-.6.4-.8l.3.2c-.3.2-.4.4-.4.7zm35.8-.8c-.1-.2-.3-.5-.5-.7l.2-.2c.2.2.4.5.5.8l-.2.1zm-35-.7-.2-.2c.2-.2.4-.4.6-.7l.2.2c-.2.3-.4.5-.6.7zm34-.6c-.2-.2-.4-.4-.7-.6l.2-.2c.3.2.5.4.7.6l-.2.2zm-32.8-.6-.2-.2c.2-.2.5-.3.7-.5l.2.3c-.2.1-.4.3-.7.4zm31.4-.4c-.2-.2-.5-.3-.8-.4l.1-.3c.3.2.5.3.8.4l-.1.3zm-29.9-.5-.1-.3c.3-.1.5-.3.8-.4l.1.3c-.3.1-.5.3-.8.4zm28.3-.4c-.3-.1-.5-.2-.8-.3l.1-.3c.3.1.6.2.8.4l-.1.2zm-26.7-.3-.1-.3c.3-.1.6-.2.8-.3l.1.3c-.2.1-.5.2-.8.3zm25.1-.3c-.3-.1-.6-.2-.8-.3l.1-.3c.3.1.6.2.8.3l-.1.3zm-23.4-.3-.1-.3c.3-.1.6-.2.8-.3l.1.3c-.3.1-.6.2-.8.3zm21.7-.3c-.3-.1-.6-.2-.9-.2l.1-.3c.3.1.6.2.9.2l-.1.3zm-20-.2-.1-.3c.3-.1.6-.1.9-.2l.1.3c-.4.1-.7.1-.9.2zm18.3-.2c-.3-.1-.6-.1-.9-.2l.1-.3c.3.1.6.1.9.2l-.1.3zm-16.6-.2-.1-.3c.3-.1.6-.1.9-.2l.1.3c-.3.1-.6.2-.9.2zm14.9-.1c-.3-.1-.6-.1-.9-.1v-.3c.3 0 .6.1.9.1v.3zm-13.2-.2v-.3c.3 0 .6-.1.9-.1v.3c-.3 0-.6.1-.9.1zm11.5-.1c-.3 0-.6-.1-.9-.1v-.3c.3 0 .6.1.9.1v.3zm-9.7-.1v-.3c.3 0 .6-.1.9-.1v.3c-.4 0-.6.1-.9.1zm7.9-.1c-.3 0-.6 0-.9-.1v-.3c.3 0 .6 0 .9.1v.3zm-6.2 0V92h.9v.3c-.3-.1-.6-.1-.9 0zm4.4-.1h-.9v-.3h.9v.3zm-2.6 0v-.3h.9v.3h-.9zM136 97.6c-.1-.9-.9-1.4-2-1.4-.4 0-1 .2-1 .6 0 1.3 6.1 1 6.4 4.1.2 2.2-2.1 3.1-4.1 3.1h-.6v1h-1.1v-1.2c-.8-.3-1.4-.7-1.8-1.1l-.2 1.1h-2.9l.2-3.6h3c0 1.2 1.4 1.3 2 1.4.6 0 1.4-.1 1.4-.7 0-1.1-6.2-.6-6-3.9.1-1.8 2.2-2.5 3.6-2.5h.6v-.8h.9v1c.6.2 1.2.5 1.5 1l.1-1h2.5l.3 3-2.8-.1z" style="fill:currentColor"/>

    <path d="M151.4 105.1c-1.1.7-2.5 1.3-4 1.9-1.2.4-2.6.8-4 1.2-1.3.3-2.6.5-4 .7-1.3.2-2.6.3-4 .3h-4.1c-1.4-.1-2.7-.2-4-.3-1.4-.2-2.7-.4-4-.7-1.4-.3-2.8-.7-4-1.2-1.5-.6-2.9-1.2-4-1.9-2-1.2-3.4-2.7-3.9-4.3v5.4c.6 1.5 2 2.8 3.9 4 1.2.7 2.5 1.4 4 1.9 1.2.5 2.6.9 4 1.2 1.3.3 2.6.6 4 .7 1.3.2 2.6.3 4 .4.7 0 1.4.1 2.1.1h2c1.4-.1 2.7-.2 4-.3 1.4-.2 2.7-.4 4-.7 1.4-.3 2.8-.7 4-1.2 1.5-.6 2.9-1.2 4-1.9 2-1.2 3.4-2.6 4-4.1v-5.4c-.6 1.5-2 3-4 4.2z" style="fill:currentColor"/>

    <path d="M133.4 84.1c-12.2 0-22 4.5-22 10.1s9.9 10 22 10.1c12.2 0 22-4.5 22-10.1s-9.9-10.1-22-10.1z" style="fill:#969696"/>

    <path d="M151.4 98.8c-1.1.7-2.5 1.3-4 1.9-1.2.4-2.6.8-4 1.2-1.3.3-2.6.5-4 .7-1.3.2-2.6.3-4 .3h-4.1c-1.4-.1-2.7-.2-4-.3-1.4-.2-2.7-.4-4-.7-1.4-.3-2.8-.7-4-1.2-1.5-.6-2.9-1.2-4-1.9-2-1.2-3.4-2.7-3.9-4.3v5.4c.6 1.5 2 2.8 3.9 4 1.2.7 2.5 1.4 4 1.9 1.2.5 2.6.9 4 1.2 1.3.3 2.6.6 4 .7 1.3.2 2.6.3 4 .4.7 0 1.4.1 2.1.1h2c1.4-.1 2.7-.2 4-.3 1.4-.2 2.7-.4 4-.7 1.4-.3 2.8-.7 4-1.2 1.5-.6 2.9-1.2 4-1.9 2-1.2 3.4-2.6 4-4.1v-5.4c-.6 1.5-2 3-4 4.2z" style="fill:currentColor"/>

    <path d="M133.4 77.8c-12.2 0-22 4.5-22 10.1s9.9 10 22 10.1c12.2 0 22-4.5 22-10.1s-9.9-10.1-22-10.1z" style="fill:currentColor"/>

    <path d="M133.4 79.4c-10.2 0-18.4 3.4-18.4 7.5s8.2 7.5 18.4 7.5c10.1 0 18.4-3.4 18.4-7.5s-8.3-7.5-18.4-7.5z" style="opacity:.2;fill:#fff;enable-background:new"/>

    <path d="M151.4 92.5c-1.1.7-2.5 1.3-4 1.9-1.2.4-2.6.8-4 1.2-1.3.3-2.6.5-4 .7-1.3.2-2.6.3-4 .3h-2c-.7 0-1.4 0-2.1-.1-1.4-.1-2.7-.2-4-.3-1.4-.2-2.7-.4-4-.7-1.4-.3-2.8-.7-4-1.2-1.5-.6-2.9-1.2-4-1.9-2-1.2-3.4-2.7-3.9-4.3v5.4c.6 1.5 2 2.8 3.9 4 1.2.7 2.5 1.4 4 1.9 1.2.5 2.6.9 4 1.2 1.3.3 2.6.6 4 .7 1.3.2 2.6.3 4 .4.7 0 1.4.1 2.1.1h2c1.4-.1 2.7-.2 4-.3 1.4-.2 2.7-.4 4-.7 1.4-.3 2.8-.7 4-1.2 1.5-.6 2.9-1.2 4-1.9 2-1.2 3.4-2.6 4-4.1v-5.4c-.6 1.6-2 3.1-4 4.3z" style="fill:currentColor"/>

    <path d="M133.4 95c-8.9 0-18.4-2.8-18.4-7.8s9.5-7.8 18.4-7.8 18.4 2.8 18.4 7.8-9.5 7.8-18.4 7.8zm0-13.5c-9.6 0-16.2 3-16.2 5.7s6.7 5.6 16.2 5.7c9.6 0 16.2-3 16.2-5.7s-6.7-5.7-16.2-5.7z" style="fill:currentColor"/>

    <path d="M153.7 87.2c0-5.2-9.4-9.4-20.9-9.4s-20.9 4.2-20.9 9.4 9.3 9.4 20.9 9.4c11.5 0 20.9-4.2 20.9-9.4" style="fill:currentColor"/>

    <path d="M122 95.5c-3.3-.8-5.9-2-7.8-3.4s-2.8-3.1-2.8-4.9.9-3.4 2.8-4.9 4.5-2.6 7.8-3.4 7-1.3 11.2-1.3c4.1 0 7.8.4 11.2 1.2 3.3.8 5.9 2 7.8 3.4 1.9 1.5 2.9 3.1 2.9 4.9s-.9 3.4-2.9 4.9-4.5 2.6-7.8 3.4-7 1.2-11.2 1.2c-4.2.2-7.9-.2-11.2-1.1zm20.7-1.1c2.8-.7 5.1-1.7 6.7-3 1.6-1.3 2.5-2.7 2.5-4.3 0-1.6-.8-3-2.5-4.2-1.6-1.3-3.9-2.3-6.7-3s-6-1.1-9.5-1.1-6.7.4-9.6 1.1-5.1 1.7-6.8 3-2.5 2.7-2.5 4.2.8 3 2.5 4.3 3.9 2.3 6.8 3 6 1.1 9.6 1.1c3.5 0 6.6-.3 9.5-1.1z" style="fill:#969696"/>

    <path d="m85.7 1.7-72 41.9 39.7 22.9 72-41.8z" style="fill:#fff"/>

    <path d="M53.4 62.3 21 43.6 85.7 6 118 24.7 53.4 62.3zM28.3 43.6 53.4 58l57.4-33.3-25.1-14.5-57.4 33.4z" style="fill:#969696"/>

    <path d="m53.4 66.5-.1 20 72-41.8.1-20z" style="fill:#fff"/>

    <path d="m53.4 66.5-.1 20 72-41.8.1-20z" style="fill:#fff"/>

    <path d="m13.7 43.6-.1 20 39.7 22.9.1-20z" style="fill:#fff"/>

    <path d="m13.7 43.6-.1 20 39.7 22.9.1-20z" style="fill:#fff"/>

    <path d="m126.9 23.8-1.5-.9L85.7 0l-72 41.8-1.5.9v1.7l-.1 20 39.7 22.9 1.5.9 1.5-.9 72-41.8.1-20v-1.7zM85.7 3.5l36.7 21.2-69 40.1-36.7-21.2 69-40.1zM51.8 81.2v2.7L15.1 62.7l.1-16.5 36.7 21.2-.1 13.8zm72-37.4-69 40.1V67.4l69-40.1v16.5z" style="fill:#969696"/>

    <path d="m57.8 17.9-16.2 9.5 39.7 22.9 16.2-9.4z" style="fill:currentColor"/>

    <path d="m81.3 68.5 16.2-9.4V40.9l-16.2 9.4z" style="fill:currentColor"/>

    <path d="m123.5 81.4 18.7.2-.1.8-18.7-.2.1-.8zm7.7 3.2-8.2-.1.1-.8 18.7.2-.1.8-8.2-.1-1 9H130l1.2-9z" style="fill:#969696"/>
</svg>