<svg version="1.1" id="steps-stamp" xmlns="http://www.w3.org/2000/svg" x="0" y="0" viewBox="0 0 368 496" style="enable-background:new 0 0 368 496" xml:space="preserve">
  <path style="fill:currentColor" d="M248 400H88c-4.41 0-8 3.59-8 8v8h176v-8c0-4.41-3.59-8-8-8zM48 80h176v32H48zM96 432h144v16H96z"/>
  <path style="fill:#969696" d="M360 0H40c-4.43 0-8 3.59-8 8v24H8c-4.43 0-8 3.59-8 8v448c0 4.41 3.57 8 8 8h320c4.43 0 8-3.59 8-8v-24h24c4.43 0 8-3.59 8-8V8c0-4.41-3.57-8-8-8zm-40 480H16V48h240v56c0 4.41 3.57 8 8 8h56v368zM272 96V59.31L308.69 96H272zm80 352h-16V104c0-2.21-.89-4.21-2.35-5.66l-63.98-63.98A7.948 7.948 0 0 0 264 32H48V16h304v432z"/>
  <path style="fill:#969696" d="M248 384h-24v-24c0-4.41-3.57-8-8-8-13.23 0-24-10.77-24-24v-7.43c0-8.55 3.33-16.58 9.41-22.66l.52-.53c9.07-9.06 14.06-21.12 14.06-33.94V240c0-13.5-5.73-26.44-15.72-35.52-9.98-9.07-23.54-13.55-36.97-12.26-24.29 2.31-43.31 24.06-43.31 49.5v21.71c0 12.83 4.99 24.88 14.02 33.9l.6.62c6.05 6.03 9.38 14.06 9.38 22.61V328c0 13.23-10.77 24-24 24-4.43 0-8 3.59-8 8v24H88c-13.23 0-24 10.77-24 24v16c0 4.41 3.57 8 8 8h8v24c0 4.41 3.57 8 8 8h160c4.43 0 8-3.59 8-8v-24h8c4.43 0 8-3.59 8-8v-16c0-13.23-10.77-24-24-24zm-120-16.81c18.23-3.71 32-19.88 32-39.19v-7.43c0-12.83-4.99-24.88-14.02-33.9l-.6-.62c-6.05-6.03-9.38-14.06-9.38-22.61v-21.71c0-17.28 12.66-32.02 28.83-33.57 9.11-.87 17.94 2.02 24.69 8.17A32.014 32.014 0 0 1 200 240v23.43c0 8.55-3.33 16.58-9.41 22.66l-.52.53c-9.07 9.06-14.06 21.12-14.06 33.94V328c0 19.32 13.77 35.48 32 39.19V384h-80v-16.81zM240 448H96v-16h144v16zm16-32H80v-8c0-4.41 3.59-8 8-8h160c4.41 0 8 3.59 8 8v8zM232 64H40c-4.43 0-8 3.59-8 8v48c0 4.41 3.57 8 8 8h192c4.43 0 8-3.59 8-8V72c0-4.41-3.57-8-8-8zm-8 48H48V80h176v32zM32 144h272v16H32zM224 176h80v16h-80zM32 176h80v16H32z"/>
</svg>