<svg version="1.1" id="steps-pen" xmlns="http://www.w3.org/2000/svg" x="0" y="0" viewBox="0 0 504.16 503.61" style="enable-background:new 0 0 504.16 503.61" xml:space="preserve">
  <path style="fill:currentColor" d="m74.7 445.69 52.41-22.46-29.95-29.95z"/>
  <path style="fill:#969696" d="M344.13 268.59c-4.64 0-8.39 3.76-8.39 8.39v201.44c0 4.64-3.76 8.39-8.39 8.39H25.18c-4.64 0-8.39-3.76-8.39-8.39V25.18c0-4.64 3.76-8.39 8.39-8.39h302.16c4.64 0 8.39 3.76 8.39 8.39v50.36c0 4.64 3.76 8.39 8.39 8.39s8.39-3.76 8.39-8.39V25.18C352.52 11.27 341.25 0 327.34 0H25.18C11.27 0 0 11.27 0 25.18v453.25c0 13.91 11.27 25.18 25.18 25.18h302.16c13.91 0 25.18-11.27 25.18-25.18V276.98c.01-4.63-3.75-8.39-8.39-8.39z"/>
  <path style="fill:#969696" d="m432.65 28.39.02-.01-55.27 55.25L88.43 372.62c-.08.08-.11.18-.18.26-.66.69-1.2 1.49-1.59 2.37l-.07.14-35.55 82.94a8.387 8.387 0 0 0 .71 7.93 8.37 8.37 0 0 0 7.01 3.77c1.14 0 2.26-.23 3.31-.68L145 433.81l.14-.07c.88-.39 1.68-.93 2.37-1.59.08-.08.18-.1.26-.18L436.74 143 492 87.74c16.27-16.41 16.21-42.88-.13-59.22-16.34-16.34-42.81-16.4-59.22-.13zM74.7 445.69l22.46-52.41 29.95 29.95-52.41 22.46zm67.15-31.53-35.61-35.61 277.11-277.1 35.6 35.6-277.1 277.11zm288.97-288.98-35.61-35.6 13.71-13.71 35.61 35.61-13.71 13.7zm49.33-49.28-.04-.01-23.75 23.74-35.57-35.65 23.74-23.7a25.175 25.175 0 0 1 24.32-6.52 25.197 25.197 0 0 1 17.81 17.81c2.33 8.7-.15 17.97-6.51 24.33zM276.98 75.54H75.54c-4.64 0-8.39 3.76-8.39 8.39s3.76 8.39 8.39 8.39h201.44c4.64 0 8.39-3.76 8.39-8.39s-3.75-8.39-8.39-8.39zM285.38 134.3c0-4.64-3.76-8.39-8.39-8.39H75.54c-4.64 0-8.39 3.76-8.39 8.39 0 4.64 3.76 8.39 8.39 8.39h201.44c4.64 0 8.4-3.76 8.4-8.39zM75.54 176.26c-4.64 0-8.39 3.76-8.39 8.39s3.76 8.39 8.39 8.39h151.08c4.64 0 8.39-3.76 8.39-8.39s-3.76-8.39-8.39-8.39H75.54z"/>
</svg>