<svg version="1.1" id="steps-money" xmlns="http://www.w3.org/2000/svg" x="0" y="0" viewBox="0 0 496 496" style="enable-background:new 0 0 496 496" xml:space="preserve">
  <path style="fill:currentColor" d="M296 200c0-26.5-21.49-48-48-48s-48 21.49-48 48 21.49 48 48 48 48-21.49 48-48"/>
  <path style="fill:#969696" d="M240.5 207.99v3.92h14.37v2.15H240.5v8.92h-3.29v-8.92h-6.77v-2.15h6.77v-33.23h15.95c5.57 0 9.92 1.28 13.07 3.83 3.14 2.55 4.71 6.15 4.71 10.79 0 4.64-1.57 8.25-4.71 10.82-3.15 2.58-7.5 3.86-13.07 3.86H240.5zm0-26.39v23.55h12.72c4.64 0 8.21-1.02 10.7-3.07 2.49-2.05 3.73-4.95 3.73-8.7 0-3.8-1.24-6.71-3.7-8.73-2.47-2.02-6.04-3.04-10.73-3.04H240.5z"/>
  <path style="fill:currentColor" d="M392 336c4.13 0 8.16-1.13 11.98-3.35 1.24-.73 2.63-1.09 4.02-1.09s2.79.37 4.02 1.09c3.82 2.22 7.85 3.35 11.98 3.35 13.23 0 24-10.77 24-24s-10.77-24-24-24c-4.13 0-8.16 1.13-11.98 3.35a7.992 7.992 0 0 1-8.05 0c-3.82-2.22-7.85-3.35-11.98-3.35-13.23 0-24 10.77-24 24s10.78 24 24.01 24zM336 432h32v16h-32zM256 432h32v16h-32zM176 432h32v16h-32zM416 432h32v16h-32z"/>
  <path style="fill:#969696" d="M392 352c5.52 0 10.88-1.16 16-3.46 5.12 2.3 10.48 3.46 16 3.46 22.05 0 40-17.95 40-40s-17.95-40-40-40c-5.52 0-10.88 1.16-16 3.46-5.12-2.3-10.48-3.46-16-3.46-22.05 0-40 17.95-40 40s17.95 40 40 40zm0-64c4.13 0 8.16 1.13 11.98 3.35a7.992 7.992 0 0 0 8.05 0c3.82-2.22 7.85-3.35 11.98-3.35 13.23 0 24 10.77 24 24s-10.77 24-24 24c-4.13 0-8.16-1.13-11.98-3.35-1.24-.72-2.63-1.09-4.02-1.09s-2.79.36-4.02 1.09c-3.82 2.22-7.85 3.35-11.98 3.35-13.23 0-24-10.77-24-24s10.76-24 23.99-24zM448 416h-32c-8.82 0-16 7.18-16 16v16c0 8.82 7.18 16 16 16h32c8.82 0 16-7.18 16-16v-16c0-8.82-7.18-16-16-16zm0 32h-32v-16h32v16zM336 464h32c8.82 0 16-7.18 16-16v-16c0-8.82-7.18-16-16-16h-32c-8.82 0-16 7.18-16 16v16c0 8.82 7.18 16 16 16zm0-32h32v16h-32v-16zM256 416c-8.82 0-16 7.18-16 16v16c0 8.82 7.18 16 16 16h32c8.82 0 16-7.18 16-16v-16c0-8.82-7.18-16-16-16h-32zm32 32h-32v-16h32v16zM208 416h-32c-8.82 0-16 7.18-16 16v16c0 8.82 7.18 16 16 16h32c8.82 0 16-7.18 16-16v-16c0-8.82-7.18-16-16-16zm0 32h-32v-16h32v16zM176 288h112v16H176zM176 320h112v16H176zM176 352h112v16H176z"/>
  <path style="fill:#969696" d="M488 0H8C3.57 0 0 3.59 0 8v312c0 4.41 3.57 8 8 8h120v160c0 4.41 3.57 8 8 8h352c4.43 0 8-3.59 8-8V8c0-4.41-3.57-8-8-8zM130.36 280H79.2c-3.19-15.65-15.55-28.01-31.2-31.19v-97.62c15.65-3.18 28.01-15.54 31.19-31.19H416.8c3.18 15.65 15.54 28.01 31.19 31.19V240H297.9c8.98-11.15 14.1-25.08 14.1-40 0-35.29-28.71-64-64-64s-64 28.71-64 64c0 14.92 5.11 28.85 14.1 40H184c-25.31 0-46.73 16.89-53.64 40zM296 200c0 16.31-8.08 31.07-21.61 40h-52.78c-13.53-8.93-21.61-23.69-21.61-40 0-26.47 21.53-48 48-48s48 21.53 48 48zm184 280H144V296c0-22.05 17.95-40 40-40h296v224zm0-240h-16v-96c0-4.41-3.57-8-8-8-13.23 0-24-10.77-24-24 0-4.41-3.57-8-8-8H72c-4.43 0-8 3.59-8 8 0 13.23-10.77 24-24 24-4.43 0-8 3.59-8 8v112c0 4.41 3.57 8 8 8 13.23 0 24 10.77 24 24 0 4.41 3.57 8 8 8h56v16H16V88h464v152zM63.97 72c7.69-5.78 13.24-14.25 15.23-24h337.61c1.98 9.75 7.54 18.22 15.22 24H63.97zM480 72h-16c0-4.41-3.57-8-8-8-13.23 0-24-10.77-24-24 0-4.41-3.57-8-8-8H72c-4.43 0-8 3.59-8 8 0 13.23-10.77 24-24 24-4.43 0-8 3.59-8 8H16V16h464v56z"/>
</svg>