<svg version="1.1" id="object" xmlns="http://www.w3.org/2000/svg" x="0" y="0" viewBox="0 0 588.1 565.1" style="enable-background:new 0 0 588.1 565.1" xml:space="preserve">

<path style="fill:#969696" d="M448.4 119.1h-1.2c1.5-6.9 2.3-14.2 2.3-21.7 0-17.7-4.2-33.6-12.5-47.8-8.3-14.2-19.7-25.3-34.3-33.4-14.5-8-30.8-12.1-48.8-12.1-18 0-34.3 4.1-48.8 12.2-.4.2-.7.4-1.1.6-2.6-1.8-5.2-3.4-8-5C281.5 4 265.2 0 247.2 0c-18 0-34.3 4.1-48.8 12.2s-25.9 19.3-34.2 33.5c-3.4 5.7-6 11.7-8 18-1.5-.1-3-.1-4.5-.1-18 0-34.3 4.1-48.8 12.2-14.6 8.1-26 19.2-34.3 33.4-1.9 3.3-3.7 6.7-5.1 10.2-22.6 2.9-40.2 22.2-40.2 45.6v89.4C10 257.1 0 268.7 0 282.7v37.5c0 14 10 25.6 23.2 28.3v92c0 25.4 20.6 46 46 46h379.3c25.4 0 46-20.6 46-46V165.1c-.1-25.4-20.7-46-46.1-46zM303 32.9c2.2-1.6 4.5-3.2 6.9-4.6.7-.4 1.4-.8 2.2-1.3.9-.5 1.7-.9 2.6-1.4 11.8-6.1 24.9-9.1 39.3-9.1 15.4 0 29.3 3.5 41.7 10.5 12.4 7 22.2 16.7 29.4 29 7.2 12.3 10.8 26.1 10.8 41.3 0 7.6-.9 14.8-2.7 21.7H274.5c-1.1-4.3-1.9-8.8-2.3-13.4-.2-1.9-.3-3.9-.3-5.9v-2.4c0-11.4 2-22 6-31.7.8-1.9 1.7-3.8 2.6-5.7l2.1-3.9c5.3-9.2 12.1-16.9 20.4-23.1zM166.5 77c.6-3.3 1.4-6.5 2.4-9.7.3-.8.5-1.6.8-2.4 1.6-4.5 3.6-8.9 6.1-13.1 7.2-12.3 17-22 29.5-29s26.5-10.5 41.9-10.5c15.4 0 29.3 3.5 41.7 10.5 1.2.7 2.3 1.4 3.5 2.1-8.6 6.9-15.8 15.2-21.5 25-.8 1.4-1.6 2.8-2.4 4.3-.9 1.7-1.7 3.4-2.5 5.1-5.1 11.7-7.7 24.4-7.7 38.1 0 1.9.1 3.7.2 5.5.1 1.8.2 3.6.4 5.4.4 3.7 1 7.3 1.7 10.8h-91.8c-.2-.8-.5-1.5-.7-2.3-2.1-7.4-3.2-15.3-3.2-23.6.1-5.6.6-11 1.6-16.2zm-86.3 38.4c7.2-12.3 17-22 29.5-29s26.5-10.5 41.9-10.5h1.5c-1 5.6-1.5 11.3-1.5 17.3 0 8 .9 15.7 2.6 23 .2 1 .5 1.9.7 2.9H78.2c.7-1.3 1.3-2.5 2-3.7zm394.7 325.1c0 14.6-11.9 26.5-26.5 26.5H69.2c-14.6 0-26.5-11.9-26.5-26.5V349h26.1c15.9 0 28.8-12.9 28.8-28.8v-37.5c0-15.9-12.9-28.8-28.8-28.8H42.7v-88.8c0-10.2 5.8-19 14.2-23.4 1-.5 2.4-1.1 3.4-1.4v-.1c2.8-1 5.8-1.5 8.9-1.5h379.3c14.6 0 26.5 11.9 26.5 26.5v275.3z"/>

<path style="fill:#fff" d="M425.2 138.6H69.1c-3.1 0-6.1.5-8.9 1.5v.1c-1 .3-2.4 1-3.4 1.4-8.4 4.4-14.2 13.3-14.2 23.4v88.8h26.1c15.9 0 28.8 12.9 28.8 28.8v37.5c0 15.9-12.9 28.8-28.8 28.8h-26v91.5c0 14.6 11.9 26.5 26.5 26.5h379.3c14.6 0 26.5-11.9 26.5-26.5V165.1c0-14.6-11.9-26.5-26.5-26.5h-23.3z"/>

<path style="fill:currentColor" d="M154.3 116.2c-1.7-7.3-2.6-15-2.6-23 0-6 .5-11.7 1.5-17.3h-1.5c-15.4 0-29.4 3.5-41.9 10.5s-22.4 16.7-29.5 29c-.7 1.2-1.4 2.5-2 3.7H155c-.3-1-.5-1.9-.7-2.9zM255.5 108.4h-21.1l.3.6c1.3 2.3 2.5 4.6 3.6 6.9h20.4v3.2h2c-.8-3.5-1.4-7.1-1.7-10.8-1.2.1-2.3.1-3.5.1zM266.1 59.3c-3.1-.7-6.6-1.1-10.5-1.1h-24.2V103h24.2c1 0 2 0 2.9-.1-.1-1.8-.2-3.7-.2-5.5.1-13.7 2.6-26.4 7.8-38.1z"/>

<path style="fill:currentColor" d="M231.4 115.1c.1.3.3.5.4.8h6.6c-1.1-2.3-2.3-4.6-3.6-6.9l-.3-.6h-3v6.7z"/>

<path style="fill:currentColor" d="M231.4 115.9h.4c-.1-.3-.3-.5-.4-.8v.8zM288.9 22.8c-12.4-7-26.3-10.5-41.7-10.5-15.4 0-29.4 3.5-41.9 10.5s-22.4 16.7-29.5 29c-2.5 4.2-4.5 8.6-6.1 13.1-.3.8-.5 1.6-.8 2.4-1 3.2-1.8 6.4-2.4 9.7-1 5.2-1.4 10.6-1.4 16.1 0 8.3 1.1 16.1 3.2 23.6.2.8.5 1.6.7 2.3h43.3v-3.2h12.9V52.6h30.4c4.8 0 9.2.5 13 1.5.7-1.4 1.5-2.9 2.4-4.3 5.7-9.7 12.9-18.1 21.5-25-1.2-.6-2.4-1.3-3.6-2z"/>

<path style="fill:#949494" d="M255.6 58.2c3.9 0 7.4.4 10.5 1.1.8-1.7 1.6-3.5 2.5-5.1-3.9-1-8.2-1.5-13-1.5h-30.4v63.2h-12.9v3.2h46.5v-3.2h-27.4v-7.5h24.1c1.2 0 2.3 0 3.5-.1-.2-1.8-.3-3.6-.4-5.4-1 .1-1.9.1-2.9.1h-24.2V58.2h24.1z"/>

<path style="fill:currentColor" d="M382.7 101.3c4.7-3.9 7.1-9.4 7.1-16.6 0-7.2-2.4-12.8-7-16.6-4.7-3.9-11.5-5.8-20.4-5.8h-24.2v.4c3.1 9.5 4.7 19.6 4.7 30.4 0 4.8-.3 9.4-.9 14h20.5c8.7.1 15.5-1.9 20.2-5.8z"/>

<path style="fill:currentColor" d="M330.3 45.4c2.2 3.7 4 7.5 5.6 11.4h26.3c10.6 0 18.9 2.4 24.9 7.3s9 11.7 9 20.5-3 15.7-9 20.6c-6 4.9-14.3 7.3-24.9 7.3H341c-.4 2.2-.9 4.4-1.5 6.5h93.7c1.8-6.9 2.7-14.1 2.7-21.7 0-15.2-3.6-29-10.8-41.3-7.2-12.3-17-22-29.4-29-12.4-7-26.3-10.5-41.7-10.5-14.4 0-27.5 3-39.3 9.1 6 5.8 11.2 12.4 15.6 19.8zM271.8 99.8c1.5-.8 2.9-1.6 4.1-2.6 4.7-3.9 7.1-9.4 7.1-16.6 0-6.2-1.8-11.2-5.3-14.9-4 9.8-6 20.4-6 31.7.1.8.1 1.6.1 2.4z"/>

<path style="fill:currentColor" d="M282.5 56c-.8 1.3-1.5 2.6-2.1 3.9 5.9 4.9 8.9 11.7 8.9 20.5s-3 15.7-9 20.6c-2.4 1.9-5.1 3.5-8.2 4.7.4 4.6 1.2 9.1 2.3 13.4h50.8c2.6-8.1 3.9-16.7 3.9-25.9 0-15.2-3.6-29-10.8-41.3-4.2-7.2-9.3-13.5-15.3-18.9-8.3 6.1-15.1 13.8-20.5 23zM338.1 112.6v6.5h1.3c.6-2.1 1.1-4.3 1.5-6.5h-2.8zM338.1 62.8v44.4h3.7c.6-4.5.9-9.2.9-14 .1-10.8-1.5-20.9-4.6-30.4zM331.9 56.8h4.1c-1.6-3.9-3.5-7.7-5.6-11.4-4.4-7.4-9.6-14-15.7-19.8-.9.4-1.7.9-2.6 1.4-.7.4-1.5.8-2.2 1.3 9.7 9.6 17.3 21.5 22 34.7v-6.2z"/>

<path style="fill:currentColor" d="M318.4 51.9c7.2 12.3 10.8 26.1 10.8 41.3 0 9.2-1.3 17.8-3.9 25.9h6.6V63c-4.6-13.2-12.2-25-22-34.7-2.4 1.4-4.7 3-6.9 4.6 6 5.4 11.1 11.7 15.4 19zM283.1 80.6c0 7.1-2.4 12.7-7.1 16.6-1.2 1-2.6 1.9-4.1 2.6.1 2 .2 4 .3 5.9 3.1-1.2 5.8-2.7 8.2-4.7 6-4.9 9-11.8 9-20.6s-3-15.6-8.9-20.5c-.9 1.9-1.8 3.7-2.6 5.7 3.4 3.8 5.2 8.7 5.2 15z"/>

<path style="fill:#949494" d="M387.1 64.1c-6-4.9-14.3-7.3-24.9-7.3h-30.4V119.1H338.1v-6.5h24c10.6 0 18.9-2.4 24.9-7.3s9-11.8 9-20.6-2.9-15.7-8.9-20.6zm-4.4 37.2c-4.7 3.9-11.5 5.8-20.4 5.8h-24.2V62.4h24.2c8.9 0 15.7 1.9 20.4 5.8 4.7 3.9 7 9.4 7 16.6.1 7.1-2.3 12.6-7 16.5z"/>

<path style="fill:none" d="M168.9 119.1H260.7c-.8-3.5-1.4-7.1-1.7-10.8-.2-1.8-.3-3.6-.4-5.4-.1-1.8-.2-3.7-.2-5.5 0-13.7 2.6-26.4 7.7-38.1.8-1.7 1.6-3.5 2.5-5.1.7-1.4 1.5-2.9 2.4-4.3 5.7-9.7 12.9-18.1 21.5-25-1.1-.7-2.3-1.4-3.5-2.1-12.4-7-26.3-10.5-41.7-10.5-15.4 0-29.4 3.5-41.9 10.5s-22.4 16.7-29.5 29c-2.5 4.2-4.5 8.6-6.1 13.1-.3.8-.5 1.6-.8 2.4-1 3.2-1.8 6.4-2.4 9.7-1 5.2-1.4 10.6-1.4 16.1 0 8.3 1.1 16.1 3.2 23.6 0 .8.3 1.6.5 2.4zM155 119.1c-.3-1-.5-1.9-.7-2.9-1.7-7.3-2.6-15-2.6-23 0-6 .5-11.7 1.5-17.3h-1.5c-15.4 0-29.4 3.5-41.9 10.5s-22.4 16.7-29.5 29c-.7 1.2-1.4 2.5-2 3.7H155z"/>

<path style="fill:none" d="M280.4 60c-.9 1.9-1.8 3.7-2.6 5.7-4 9.8-6 20.4-6 31.7v2.4c0 2 .2 4 .3 5.9.4 4.6 1.2 9.1 2.3 13.4h158.7c1.8-6.9 2.7-14.1 2.7-21.7 0-15.2-3.6-29-10.8-41.3-7.2-12.3-17-22-29.4-29-12.4-7-26.3-10.5-41.7-10.5-14.4 0-27.5 3-39.3 9.1-.9.4-1.7.9-2.6 1.4-.7.4-1.5.8-2.2 1.3-2.4 1.4-4.7 3-6.9 4.6-8.3 6.2-15.1 13.9-20.5 23.1-.6 1.2-1.3 2.5-2 3.9z"/>

<path style="fill:#e8a302" d="M588.1 506.7V294.4l-198-.5v216.8z"/>

<path style="fill:#949494" d="M489.1 445.7c-54.7.1-98.9 20.3-98.9 45.1 0 24.9 44.3 45.1 98.9 45.1 54.7-.1 99-20.3 99-45.1 0-24.9-44.3-45-99-45.1z"/>

<path style="fill:#fdd901" d="M489.1 453.2c-45.6.1-82.4 15.1-82.4 33.6s36.9 33.5 82.4 33.6c45.6-.1 82.4-15.1 82.4-33.6.1-18.5-36.8-33.5-82.4-33.6z"/>

<path style="fill:#dfb400" d="m489.1 521-.1-.7v-.7h4v1.3c-1.3.1-2.6.1-3.9.1zm-4 0c-1.3 0-2.7-.1-4-.1l.1-1.3c1.3.1 2.6.1 3.9.1v1.3zm11.9-.1v-1.3c1.3-.1 2.6-.1 4-.2l.1 1.3c-1.4 0-2.8.1-4.1.2zm-19.9-.2c-1.3-.1-2.7-.2-4-.3l.1-1.3 3.9.3v1.3zm27.8-.3-.1-1.3c1.3-.1 2.6-.2 3.9-.4l.1 1.3c-1.2.2-2.5.3-3.9.4zm-35.7-.4c-1.3-.1-2.6-.3-4-.4l.2-1.3c1.3.2 2.6.3 3.9.4l-.1 1.3zm43.7-.4-.2-1.3c1.3-.2 2.6-.3 3.9-.5l.2 1.3c-1.3.1-2.6.3-3.9.5zm-51.6-.6-3.9-.6.2-1.3 3.9.6-.2 1.3zm59.4-.6-.2-1.3c1.3-.2 2.6-.5 3.9-.7l.3 1.3c-1.3.3-2.6.5-4 .7zm-67.3-.7c-1.3-.3-2.6-.5-3.9-.8l.3-1.3c1.3.3 2.6.5 3.9.8l-.3 1.3zm75.2-.8-.3-1.3c1.3-.3 2.6-.6 3.8-.9l.3 1.3c-1.2.3-2.5.6-3.8.9zm-83-.9c-1.3-.3-2.6-.7-3.9-1l.4-1.3c1.2.4 2.5.7 3.8 1l-.3 1.3zm90.7-1-.4-1.3c1.3-.4 2.5-.7 3.8-1.1l.4 1.3c-1.2.3-2.5.7-3.8 1.1zm-98.3-1.2c-1.3-.4-2.6-.8-3.8-1.3l.4-1.2c1.2.4 2.5.9 3.7 1.3l-.3 1.2zm105.9-1.3-.4-1.2c1.3-.4 2.5-.9 3.7-1.4l.5 1.2c-1.3.5-2.5 1-3.8 1.4zm-113.4-1.4c-1.2-.5-2.5-1-3.7-1.6l.5-1.2c1.2.5 2.4 1.1 3.6 1.6l-.4 1.2zm120.8-1.6-.6-1.2c1.2-.6 2.4-1.2 3.5-1.7l.6 1.2c-1.1.6-2.3 1.2-3.5 1.7zm-128.1-1.8c-1.2-.6-2.4-1.3-3.5-2l.7-1.1c1.1.7 2.2 1.3 3.4 2l-.6 1.1zm135.2-1.9-.7-1.1c1.1-.7 2.2-1.4 3.2-2.2l.8 1.1c-1 .7-2.2 1.4-3.3 2.2zm-142-2.4c-1.1-.8-2.2-1.7-3.1-2.6l.9-1c.9.8 1.9 1.7 3 2.5l-.8 1.1zm148.4-2.4-.9-1c1-.9 1.9-1.8 2.7-2.8l1 .8c-.8 1.1-1.7 2-2.8 3zm-154.3-3.1c-.9-1.1-1.7-2.2-2.3-3.3l1.1-.6c.6 1.1 1.3 2.1 2.2 3.2l-1 .7zm159.5-3.2-1.1-.7c.7-1.1 1.2-2.3 1.5-3.5l1.3.4c-.5 1.3-1 2.6-1.7 3.8zm-163.4-3.9c-.4-1.3-.6-2.7-.6-4h1.3c0 1.2.2 2.5.5 3.7l-1.2.3zm165.6-3.9h-1.3.7l-.7-.1c0-1.2-.2-2.4-.5-3.6l1.3-.3c.4 1.3.5 2.6.5 4zM407.9 483l-1.3-.4c.4-1.3.9-2.5 1.6-3.8l1.1.7c-.6 1.2-1.1 2.4-1.4 3.5zm161.1-3.3c-.6-1.1-1.3-2.1-2.2-3.2l1-.8c.9 1.1 1.7 2.2 2.3 3.4l-1.1.6zm-157.4-3.3-1-.8c.8-1 1.8-2 2.8-2.9l.9 1c-1 .8-2 1.8-2.7 2.7zm152.5-2.7c-.9-.8-1.9-1.7-3-2.5l.8-1.1c1.1.8 2.2 1.7 3.1 2.6l-.9 1zm-146.8-2.5-.8-1.1c1-.8 2.1-1.5 3.3-2.2l.7 1.1c-1.1.7-2.2 1.4-3.2 2.2zm140.6-2.2c-1.1-.7-2.2-1.3-3.4-2l.6-1.2c1.2.7 2.4 1.3 3.5 2l-.7 1.2zm-134-2-.6-1.2c1.1-.6 2.4-1.2 3.6-1.8l.6 1.2c-1.3.6-2.5 1.2-3.6 1.8zm127.1-1.7c-1.2-.5-2.4-1.1-3.6-1.6l.5-1.2c1.3.5 2.5 1 3.7 1.6l-.6 1.2zm-120-1.6-.5-1.2c1.2-.5 2.5-1 3.7-1.4l.5 1.2c-1.2.4-2.5.9-3.7 1.4zm112.7-1.4c-1.2-.4-2.5-.9-3.7-1.3l.4-1.3c1.3.4 2.5.8 3.8 1.3l-.5 1.3zM438.5 461l-.4-1.3c1.3-.4 2.5-.8 3.8-1.2l.4 1.3c-1.4.4-2.6.8-3.8 1.2zm97.7-1.1c-1.2-.4-2.5-.7-3.8-1l.3-1.3c1.3.3 2.6.7 3.8 1l-.3 1.3zm-90.2-1-.3-1.3 3.9-.9.3 1.3c-1.3.2-2.6.5-3.9.9zm82.5-.9c-1.3-.3-2.6-.6-3.9-.8l.3-1.3c1.3.3 2.6.5 3.9.8l-.3 1.3zm-74.7-.9-.3-1.3c1.3-.2 2.6-.5 3.9-.7l.2 1.3c-1.3.3-2.6.5-3.8.7zm67-.6-3.9-.6.2-1.3 3.9.6-.2 1.3zm-59.3-.7-.2-1.3c1.3-.2 2.6-.4 3.9-.5l.2 1.3c-1.3.2-2.6.3-3.9.5zm51.5-.5c-1.3-.2-2.6-.3-3.9-.4l.1-1.3c1.3.1 2.7.3 4 .4l-.2 1.3zm-43.6-.4-.1-1.3c1.3-.1 2.6-.2 4-.4l.1 1.3c-1.4.1-2.7.2-4 .4zm35.7-.4-3.9-.3.1-1.3c1.3.1 2.7.2 4 .3l-.2 1.3zm-27.8-.3-.1-1.3c1.3-.1 2.6-.1 4-.2l.1 1.3c-1.4.1-2.7.1-4 .2zm19.9-.2c-1.3-.1-2.6-.1-3.9-.1v-1.3c1.3 0 2.7.1 4 .1l-.1 1.3zm-12-.1v-1.3h4.2v1.3h-4.2zM500.9 478c-.2-4.1-4.3-6.3-9-6.3-1.9 0-4.6 1-4.6 2.9 0 5.7 27.4 4.4 28.8 18.2 1 10-9.6 13.7-18.6 13.7-.9 0-1.8-.1-2.7-.1l.1 4.4H490l-.1-5.4c-3.7-1.1-6.5-3.1-8.3-5l-.9 5.1h-13.2l.9-16.1h13.3c-.1 5.2 6.1 6.1 9.1 6.2 2.6 0 6.2-.5 6.1-3.1-.2-4.7-27.6-2.8-26.9-17.4.4-7.9 9.7-11.3 16.1-11.3 1 0 2 0 2.9.1l-.1-3.7h4.1l.1 4.4c2.8.8 5.2 2.1 6.8 4.3l.4-4.3H512l1.3 13.3h-12.4z"/>

<path style="fill:currentColor" d="M570 512c-5.2 3.2-11.2 6-18 8.5-5.6 2-11.6 3.8-18 5.2-5.7 1.3-11.7 2.4-18 3.1-5.8.7-11.8 1.2-18 1.5-2.9.1-5.8.2-8.8.2-3.1 0-6.2-.1-9.2-.2-6.2-.3-12.2-.8-18-1.5-6.3-.8-12.3-1.9-18-3.2-6.4-1.5-12.5-3.3-18-5.3-6.8-2.5-12.9-5.4-18-8.6-8.9-5.6-15.1-12-17.6-19.1v24.2c2.9 6.6 9 12.8 17.6 18.1 5.2 3.2 11.2 6.2 18 8.7 5.6 2.1 11.6 3.9 18 5.4 5.7 1.4 11.8 2.5 18 3.3 5.8.8 11.8 1.3 18 1.6 3 .1 6.1.2 9.2.2 3 0 5.9-.1 8.8-.2 6.2-.3 12.2-.8 18-1.6 6.3-.8 12.3-1.9 18-3.3 6.4-1.5 12.5-3.3 18-5.4 6.8-2.5 12.8-5.4 18-8.6 8.8-5.4 15.1-11.7 18-18.4v-24.2c-2.5 7.4-8.8 14-18 19.6z"/>

<path style="fill:#949494" d="M489.1 413.8c-54.7.1-98.9 20.3-98.9 45.1 0 24.9 44.3 45.1 98.9 45.1 54.7-.1 99-15.1 99-45.1 0-24.8-44.3-45-99-45.1z"/>

<path style="fill:#fdd901" d="M489.1 420.4c-45.6.1-82.4 15.1-82.4 33.6s36.9 33.5 82.4 33.6c45.6-.1 82.4-15.1 82.4-33.6.1-18.5-36.8-33.5-82.4-33.6z"/>

<path style="fill:#dfb400" d="m489.1 488.3-.1-.7v-.7h4v1.3c-1.3.1-2.6.1-3.9.1zm-4-.1c-1.3 0-2.7-.1-4-.1l.1-1.3c1.3.1 2.6.1 3.9.1v1.3zm11.9-.1v-1.3c1.3-.1 2.6-.1 4-.2l.1 1.3c-1.4.1-2.8.2-4.1.2zm-19.9-.2c-1.3-.1-2.7-.2-4-.3l.1-1.3 3.9.3v1.3zm27.8-.3-.1-1.3c1.3-.1 2.6-.2 3.9-.4l.1 1.3c-1.2.2-2.5.3-3.9.4zm-35.7-.3c-1.3-.1-2.6-.3-4-.4l.2-1.3c1.3.2 2.6.3 3.9.4l-.1 1.3zm43.7-.5-.2-1.3c1.3-.2 2.6-.3 3.9-.5l.2 1.3c-1.3.2-2.6.4-3.9.5zm-51.6-.5-3.9-.6.2-1.3 3.9.6-.2 1.3zm59.4-.6-.2-1.3c1.3-.2 2.6-.5 3.9-.7l.3 1.3c-1.3.2-2.6.5-4 .7zm-67.3-.8c-1.3-.3-2.6-.5-3.9-.8l.3-1.3c1.3.3 2.6.5 3.9.8l-.3 1.3zm75.2-.7-.3-1.3c1.3-.3 2.6-.6 3.8-.9l.3 1.3c-1.2.3-2.5.6-3.8.9zm-83-1c-1.3-.3-2.6-.7-3.9-1l.4-1.3c1.2.4 2.5.7 3.8 1l-.3 1.3zm90.7-1-.4-1.3c1.3-.4 2.5-.7 3.8-1.1l.4 1.3c-1.2.4-2.5.8-3.8 1.1zM438 481c-1.3-.4-2.6-.8-3.8-1.3l.4-1.2c1.2.4 2.5.9 3.7 1.3l-.3 1.2zm105.9-1.2-.4-1.2c1.3-.4 2.5-.9 3.7-1.4l.5 1.2c-1.3.5-2.5.9-3.8 1.4zm-113.4-1.5c-1.2-.5-2.5-1-3.7-1.6l.5-1.2c1.2.5 2.4 1.1 3.6 1.6l-.4 1.2zm120.8-1.5-.6-1.2c1.2-.6 2.4-1.1 3.5-1.7l.6 1.2c-1.1.5-2.3 1.1-3.5 1.7zm-128.1-1.9c-1.2-.6-2.4-1.3-3.5-2l.7-1.1c1.1.7 2.2 1.3 3.4 2l-.6 1.1zm135.2-1.9-.7-1.1c1.1-.7 2.2-1.4 3.2-2.2l.8 1.1c-1 .7-2.2 1.5-3.3 2.2zm-142-2.3c-1.1-.8-2.2-1.7-3.1-2.6l.9-1c.9.8 1.9 1.7 3 2.5l-.8 1.1zm148.4-2.5-.9-1c1-.9 1.9-1.8 2.7-2.8l1 .8c-.8 1.1-1.7 2.1-2.8 3zm-154.3-3c-.9-1.1-1.7-2.2-2.3-3.4l1.1-.6c.6 1.1 1.3 2.1 2.2 3.2l-1 .8zM570 462l-1.1-.7c.7-1.1 1.2-2.3 1.5-3.5l1.3.4c-.5 1.3-1 2.6-1.7 3.8zm-163.4-3.9c-.4-1.3-.6-2.7-.6-4h1.3c0 1.2.2 2.5.5 3.7l-1.2.3zm165.6-3.9h-1.3.7l-.7-.1c0-1.2-.2-2.4-.5-3.6l1.3-.4c.4 1.3.5 2.6.5 4v.1zm-164.3-3.9-1.3-.4c.4-1.3.9-2.5 1.6-3.8l1.1.7c-.6 1.1-1.1 2.3-1.4 3.5zm161.1-3.4c-.6-1.1-1.3-2.1-2.2-3.2l1-.8c.9 1.1 1.7 2.2 2.3 3.4l-1.1.6zm-157.4-3.3-1-.8c.8-1 1.8-2 2.8-2.9l.9 1c-1 .9-2 1.8-2.7 2.7zm152.5-2.6c-.9-.8-1.9-1.7-3-2.5l.8-1.1c1.1.8 2.2 1.7 3.1 2.6l-.9 1zm-146.8-2.6-.8-1.1c1-.8 2.1-1.5 3.3-2.2l.7 1.1c-1.1.7-2.2 1.5-3.2 2.2zm140.6-2.1c-1.1-.7-2.2-1.3-3.4-2l.6-1.2c1.2.6 2.4 1.3 3.5 2l-.7 1.2zm-134-2-.6-1.2c1.1-.6 2.4-1.2 3.6-1.8l.6 1.2c-1.3.6-2.5 1.2-3.6 1.8zm127.1-1.7c-1.2-.5-2.4-1.1-3.6-1.6l.5-1.2c1.3.5 2.5 1 3.7 1.6l-.6 1.2zm-120-1.7-.5-1.2c1.2-.5 2.5-1 3.7-1.4l.5 1.2c-1.2.5-2.5 1-3.7 1.4zm112.7-1.3c-1.2-.4-2.5-.9-3.7-1.3l.4-1.3c1.3.4 2.5.8 3.8 1.3l-.5 1.3zm-105.2-1.3-.5-1.3c1.3-.4 2.5-.8 3.8-1.2l.4 1.3c-1.3.4-2.5.8-3.7 1.2zm97.7-1.1c-1.2-.4-2.5-.7-3.8-1l.3-1.3c1.3.3 2.6.7 3.8 1l-.3 1.3zm-90.2-1.1-.3-1.3 3.9-.9.3 1.3-3.9.9zm82.5-.9c-1.3-.3-2.6-.6-3.9-.8l.3-1.3c1.3.3 2.6.5 3.9.8l-.3 1.3zm-74.7-.8-.3-1.3c1.3-.3 2.6-.5 3.9-.7l.2 1.3c-1.3.2-2.6.4-3.8.7zm67-.7-3.9-.6.2-1.3 3.9.6-.2 1.3zm-59.3-.6-.2-1.3c1.3-.2 2.6-.4 3.9-.5l.2 1.3c-1.3.1-2.6.3-3.9.5zm51.5-.5c-1.3-.2-2.6-.3-3.9-.4l.1-1.3c1.3.1 2.7.3 4 .4l-.2 1.3zm-43.6-.5-.1-1.3c1.3-.1 2.6-.3 4-.4l.1 1.3c-1.4.1-2.7.3-4 .4zm35.7-.3-3.9-.3.1-1.3c1.3.1 2.7.2 4 .3l-.2 1.3zm-27.8-.3-.1-1.3c1.3-.1 2.6-.1 4-.2l.1 1.3c-1.4 0-2.7.1-4 .2zm19.9-.2c-1.3-.1-2.6-.1-3.9-.1v-1.3c1.3 0 2.7.1 4 .1l-.1 1.3zm-12-.2v-1.3h4.2v1.3h-4.2zM500.9 440.8c-.2-4.1-4.3-6.3-9-6.3-1.9 0-4.6 1-4.6 2.9 0 5.7 27.4 4.4 28.8 18.2 1 10-9.6 13.7-18.6 13.7-.9 0-1.8-.1-2.7-.1l.1 4.4H490l-.1-5.4c-3.7-1.1-6.5-3.1-8.3-5l-.9 5.1h-13.2l.9-16.1h13.3c-.1 5.2 6.1 6 9.1 6.2 2.6 0 6.2-.5 6.1-3.1-.2-4.7-27.6-2.8-26.9-17.4.4-7.9 9.7-11.3 16.1-11.3 1 0 2 .1 2.9.1l-.1-3.7h4.1l.1 4.4c2.8.8 5.2 2.1 6.8 4.3l.4-4.3H512l1.3 13.3h-12.4z"/>

<path style="fill:currentColor" d="M570 482.8c-5.2 3.2-11.2 6-18 8.5-5.6 2-11.6 3.8-18 5.2-5.7 1.3-11.7 2.4-18 3.1-5.8.7-11.8 1.2-18 1.5-2.9.1-5.8.2-8.8.2-3.1 0-6.2-.1-9.2-.2-6.2-.3-12.2-.8-18-1.5-6.3-.8-12.3-1.9-18-3.2-6.4-1.5-12.5-3.3-18-5.3-6.8-2.5-12.9-5.4-18-8.6-8.9-5.6-15.1-12-17.6-19.1v24.2c2.9 6.6 9 12.8 17.6 18.1 5.2 3.2 11.2 6.2 18 8.7 5.6 2.1 11.6 3.9 18 5.4 5.7 1.4 11.8 2.5 18 3.3 5.8.8 11.8 1.3 18 1.6 3 .1 6.1.2 9.2.2 3 0 5.9-.1 8.8-.2 6.2-.3 12.2-.8 18-1.6 6.3-.8 12.3-1.9 18-3.3 6.4-1.5 12.5-3.3 18-5.4 6.8-2.5 12.8-5.4 18-8.6 8.8-5.4 15.1-11.7 18-18.4v-24.5c-2.5 7.4-8.8 14.3-18 19.9z"/>

<path style="fill:#949494" d="M489.1 389.1c-54.7.1-98.9 20.3-98.9 45.1 0 24.9 44.3 45.1 98.9 45.1 54.7-.1 99-20.3 99-45.1 0-24.9-44.3-45.1-99-45.1z"/>

<path style="fill:#fdd901" d="M489.1 396.6c-45.6.1-82.4 15.1-82.4 33.6s36.9 33.5 82.4 33.6c45.6-.1 82.4-15.1 82.4-33.6.1-18.5-36.8-33.6-82.4-33.6z"/>

<path style="fill:#dfb400" d="m489.1 464.4-.1-.7v-.7h4v1.3c-1.3.1-2.6.1-3.9.1zm-4 0c-1.3 0-2.7-.1-4-.1l.1-1.3c1.3.1 2.6.1 3.9.1v1.3zm11.9-.2v-1.3c1.3-.1 2.6-.1 4-.2l.1 1.3c-1.4.1-2.8.2-4.1.2zm-19.9-.2c-1.3-.1-2.7-.2-4-.3l.1-1.3 3.9.3v1.3zm27.8-.2-.1-1.3c1.3-.1 2.6-.2 3.9-.4l.1 1.3c-1.2.1-2.5.3-3.9.4zm-35.7-.4c-1.3-.1-2.6-.3-4-.4l.2-1.3c1.3.2 2.6.3 3.9.4l-.1 1.3zm43.7-.4-.2-1.3c1.3-.2 2.6-.3 3.9-.5l.2 1.3c-1.3.1-2.6.3-3.9.5zm-51.6-.6-3.9-.6.2-1.3 3.9.6-.2 1.3zm59.4-.6-.2-1.3c1.3-.2 2.6-.5 3.9-.7l.3 1.3c-1.3.3-2.6.5-4 .7zm-67.3-.7c-1.3-.3-2.6-.5-3.9-.8l.3-1.3c1.3.3 2.6.6 3.9.8l-.3 1.3zm75.2-.8-.3-1.3c1.3-.3 2.6-.6 3.8-.9l.3 1.3c-1.2.3-2.5.6-3.8.9zm-83-1c-1.3-.3-2.6-.7-3.9-1l.4-1.3c1.2.3 2.5.7 3.8 1l-.3 1.3zm90.7-.9-.4-1.3c1.3-.4 2.5-.7 3.8-1.1l.4 1.2c-1.2.4-2.5.8-3.8 1.2zm-98.3-1.2c-1.3-.4-2.6-.8-3.8-1.3l.4-1.2c1.2.4 2.5.9 3.7 1.3l-.3 1.2zm105.9-1.3-.4-1.2c1.3-.5 2.5-.9 3.7-1.4l.5 1.2c-1.3.5-2.5 1-3.8 1.4zm-113.4-1.5c-1.2-.5-2.5-1-3.7-1.6l.5-1.2c1.2.5 2.4 1.1 3.6 1.6l-.4 1.2zm120.8-1.5-.6-1.2c1.2-.6 2.4-1.1 3.5-1.7l.6 1.2c-1.1.5-2.3 1.1-3.5 1.7zm-128.1-1.8c-1.2-.6-2.4-1.3-3.5-2l.7-1.1c1.1.7 2.2 1.3 3.4 2l-.6 1.1zm135.2-1.9-.7-1.1c1.1-.7 2.2-1.4 3.2-2.2l.8 1.1c-1 .7-2.2 1.4-3.3 2.2zm-142-2.4c-1.1-.8-2.2-1.7-3.1-2.6l.9-1c.9.8 1.9 1.7 3 2.5l-.8 1.1zm148.4-2.4-.9-1c1-.9 1.9-1.8 2.7-2.8l1 .8c-.8 1-1.7 2-2.8 3zm-154.3-3.1c-.9-1.1-1.7-2.2-2.3-3.3l1.1-.7c.6 1.1 1.3 2.1 2.2 3.2l-1 .8zm159.5-3.2-1.1-.7c.7-1.1 1.2-2.3 1.5-3.5l1.3.4c-.5 1.3-1 2.6-1.7 3.8zm-163.4-3.9c-.4-1.3-.6-2.7-.6-4h1.3c0 1.2.2 2.5.5 3.7l-1.2.3zm165.6-3.9h-1.3.7l-.7-.1c0-1.2-.2-2.4-.5-3.6l1.3-.4c.4 1.3.5 2.6.5 4v.1zm-164.3-3.9-1.3-.4c.4-1.3.9-2.5 1.6-3.8l1.1.6c-.6 1.3-1.1 2.4-1.4 3.6zm161.1-3.3c-.6-1.1-1.3-2.1-2.2-3.2l1-.8c.9 1.1 1.7 2.2 2.3 3.4l-1.1.6zm-157.4-3.3-1-.9c.8-1 1.8-2 2.8-2.9l.9 1c-1 .9-2 1.8-2.7 2.8zm152.5-2.7c-.9-.8-1.9-1.7-3-2.5l.8-1.1c1.1.8 2.2 1.7 3.1 2.6l-.9 1zm-146.8-2.6-.8-1.1c1-.8 2.1-1.5 3.3-2.3l.7 1.1c-1.1.9-2.2 1.6-3.2 2.3zm140.6-2.1c-1.1-.7-2.2-1.3-3.4-2l.6-1.2c1.2.7 2.4 1.3 3.5 2l-.7 1.2zm-134-2-.6-1.2c1.1-.6 2.4-1.2 3.6-1.8l.6 1.2c-1.3.6-2.5 1.2-3.6 1.8zm127.1-1.7c-1.2-.5-2.4-1.1-3.6-1.6l.5-1.2c1.3.5 2.5 1 3.7 1.6l-.6 1.2zm-120-1.6-.5-1.2c1.2-.5 2.5-1 3.7-1.4l.5 1.2c-1.2.4-2.5.9-3.7 1.4zm112.7-1.4c-1.2-.4-2.5-.9-3.7-1.3l.4-1.3c1.3.4 2.5.8 3.8 1.3l-.5 1.3zm-105.2-1.3-.4-1.2c1.3-.4 2.5-.8 3.8-1.2l.4 1.3c-1.4.3-2.6.7-3.8 1.1zm97.7-1.1c-1.2-.4-2.5-.7-3.8-1l.3-1.3c1.3.3 2.6.7 3.8 1l-.3 1.3zm-90.2-1.1-.3-1.3 3.9-.9.3 1.3-3.9.9zm82.5-.8c-1.3-.3-2.6-.5-3.9-.8l.3-1.3c1.3.3 2.6.5 3.9.8l-.3 1.3zm-74.7-.9-.3-1.3c1.3-.2 2.6-.5 3.9-.7l.2 1.3c-1.3.2-2.6.5-3.8.7zm67-.7-3.9-.6.2-1.3 3.9.6-.2 1.3zm-59.3-.6-.2-1.3c1.3-.2 2.6-.4 3.9-.5l.2 1.3c-1.3.1-2.6.3-3.9.5zm51.5-.5c-1.3-.2-2.6-.3-3.9-.5l.1-1.3c1.3.1 2.7.3 4 .5l-.2 1.3zm-43.6-.5-.1-1.3c1.3-.1 2.6-.3 4-.4l.1 1.3c-1.4.2-2.7.3-4 .4zm35.7-.3-3.9-.3.1-1.3c1.3.1 2.7.2 4 .3l-.2 1.3zm-27.8-.3-.1-1.3c1.3-.1 2.6-.2 4-.2l.1 1.3c-1.4.1-2.7.1-4 .2zm19.9-.2c-1.3-.1-2.6-.1-3.9-.1V396c1.3 0 2.7.1 4 .1l-.1 1.3zm-12-.1V396h4.2v1.3h-.2c-1.4-.1-2.7-.1-4 0zM500.9 421.4c-.2-4.1-4.3-6.3-9-6.3-1.9 0-4.6 1-4.6 2.9 0 5.7 27.4 4.4 28.8 18.2 1 10-9.6 13.7-18.6 13.7-.9 0-1.8-.1-2.7-.1l.1 4.4H490l-.1-5.4c-3.7-1.1-6.5-3.1-8.3-5l-.9 5.1h-13.2l.9-16.1h13.3c-.1 5.2 6.1 6 9.1 6.2 2.6 0 6.2-.5 6.1-3.1-.2-4.7-27.6-2.8-26.9-17.4.4-7.9 9.7-11.3 16.1-11.3 1 0 2 0 2.9.2l-.1-3.7h4.1l.1 4.4c2.8.8 5.2 2.1 6.8 4.3l.4-4.3H512l1.3 13.3h-12.4z"/>

<path style="fill:currentColor" d="M570 455.4c-5.2 3.2-11.2 6-18 8.5-5.6 2-11.6 3.8-18 5.2-5.7 1.3-11.7 2.4-18 3.2-5.8.7-11.8 1.2-18 1.5-2.9.1-5.8.2-8.8.2-3.1 0-6.2-.1-9.2-.2-6.2-.3-12.2-.8-18-1.5-6.3-.8-12.3-1.9-18-3.2-6.4-1.5-12.5-3.2-18-5.3-6.8-2.5-12.9-5.4-18-8.6-8.9-5.6-15.1-12-17.6-19.1v24.2c2.9 6.6 9 12.8 17.6 18.1 5.2 3.2 11.2 6.2 18 8.7 5.6 2.1 11.6 3.9 18 5.4 5.7 1.4 11.8 2.5 18 3.3 5.8.8 11.8 1.3 18 1.6 3 .1 6.1.2 9.2.2 3 0 5.9-.1 8.8-.2 6.2-.3 12.2-.8 18-1.6 6.3-.8 12.3-1.9 18-3.3 6.4-1.5 12.5-3.3 18-5.4 6.8-2.5 12.8-5.4 18-8.6 8.8-5.4 15.1-11.7 18-18.4v-24.2c-2.5 7.3-8.8 13.9-18 19.5z"/>

<path style="fill:#949494" d="M489.1 366.1c-54.7.1-98.9 20.3-98.9 45.1 0 24.9 44.3 45.1 98.9 45.1 54.7-.1 99-20.2 99-45.1 0-24.9-44.3-45-99-45.1z"/>

<path style="fill:#fdd901" d="M489.1 373.6c-45.6.1-82.4 15.1-82.4 33.6s36.9 33.5 82.4 33.6c45.6-.1 82.4-15.1 82.4-33.6.1-18.5-36.8-33.5-82.4-33.6z"/>

<path style="fill:#dfb400" d="m489.1 441.4-.1-.7v-.7h4v1.3c-1.3.1-2.6.1-3.9.1zm-4 0c-1.3 0-2.7-.1-4-.1l.1-1.3c1.3.1 2.6.1 3.9.1v1.3zm11.9-.1V440c1.3-.1 2.6-.1 4-.2l.1 1.3c-1.4 0-2.8.1-4.1.2zm-19.9-.2c-1.3-.1-2.7-.2-4-.3l.1-1.3 3.9.3v1.3zm27.8-.3-.1-1.3c1.3-.1 2.6-.2 3.9-.4l.1 1.3c-1.2.2-2.5.3-3.9.4zm-35.7-.4c-1.3-.1-2.6-.3-4-.4l.2-1.3c1.3.2 2.6.3 3.9.4l-.1 1.3zm43.7-.4-.2-1.3c1.3-.2 2.6-.3 3.9-.5l.2 1.3c-1.3.2-2.6.3-3.9.5zm-51.6-.6-3.9-.6.2-1.3 3.9.6-.2 1.3zm59.4-.6-.2-1.3c1.3-.2 2.6-.5 3.9-.7l.3 1.3c-1.3.3-2.6.5-4 .7zm-67.3-.7c-1.3-.2-2.6-.5-3.9-.8l.3-1.3c1.3.3 2.6.6 3.9.8l-.3 1.3zm75.2-.8-.3-1.3c1.3-.3 2.6-.6 3.8-.9l.3 1.3c-1.2.3-2.5.6-3.8.9zm-83-.9c-1.3-.3-2.6-.7-3.9-1l.4-1.3c1.2.4 2.5.7 3.8 1l-.3 1.3zm90.7-1-.4-1.3c1.3-.4 2.5-.7 3.8-1.1l.4 1.3c-1.2.3-2.5.7-3.8 1.1zm-98.3-1.2c-1.3-.4-2.6-.8-3.8-1.3l.4-1.2c1.2.4 2.5.9 3.7 1.3l-.3 1.2zm105.9-1.2-.4-1.2c1.3-.5 2.5-.9 3.7-1.4l.5 1.2c-1.3.4-2.5.9-3.8 1.4zm-113.4-1.5c-1.2-.5-2.5-1.1-3.7-1.6l.5-1.2c1.2.5 2.4 1.1 3.6 1.6l-.4 1.2zm120.8-1.6-.6-1.2c1.2-.6 2.4-1.2 3.5-1.7l.6 1.2c-1.1.6-2.3 1.2-3.5 1.7zm-128.1-1.8c-1.2-.6-2.4-1.3-3.5-2l.7-1.1c1.1.7 2.2 1.3 3.4 2l-.6 1.1zm135.2-1.9-.7-1.1c1.1-.7 2.2-1.4 3.2-2.2l.8 1.1c-1 .7-2.2 1.4-3.3 2.2zm-142-2.4c-1.1-.8-2.2-1.7-3.1-2.6l.9-1c.9.8 1.9 1.7 3 2.5l-.8 1.1zm148.4-2.4-.9-1c1-.9 1.9-1.8 2.7-2.8l1 .8c-.8 1.1-1.7 2-2.8 3zm-154.3-3c-.9-1.1-1.7-2.2-2.3-3.3l1.1-.6c.6 1.1 1.3 2.1 2.2 3.1l-1 .8zm159.5-3.3-1.1-.6c.7-1.1 1.2-2.3 1.5-3.5l1.3.4c-.5 1.2-1 2.5-1.7 3.7zm-163.4-3.9c-.4-1.3-.6-2.7-.6-4h1.3c0 1.2.2 2.5.5 3.7l-1.2.3zm165.6-3.9h-1.3.7l-.7-.1c0-1.2-.2-2.4-.5-3.6l1.3-.4c.4 1.3.5 2.6.5 4v.1zm-164.3-3.9-1.3-.4c.4-1.3.9-2.5 1.6-3.8l1.1.6c-.6 1.3-1.1 2.5-1.4 3.6zm161.1-3.3c-.6-1.1-1.3-2.1-2.2-3.2l1-.8c.9 1.1 1.7 2.2 2.3 3.4l-1.1.6zm-157.4-3.3-1-.8c.8-1 1.8-2 2.8-2.9l.9 1c-1 .8-2 1.8-2.7 2.7zm152.5-2.7c-.9-.8-1.9-1.7-3-2.5l.8-1.1c1.1.8 2.2 1.7 3.1 2.6l-.9 1zm-146.8-2.6-.8-1.1c1-.8 2.1-1.5 3.3-2.3l.7 1.1c-1.1.9-2.2 1.6-3.2 2.3zm140.6-2c-1.1-.7-2.2-1.3-3.4-2l.6-1.2c1.2.6 2.4 1.3 3.5 2l-.7 1.2zm-134-2.1-.6-1.2c1.1-.6 2.4-1.2 3.6-1.8l.6 1.2c-1.3.6-2.5 1.2-3.6 1.8zm127.1-1.7c-1.2-.6-2.4-1.1-3.6-1.6l.5-1.2c1.3.5 2.5 1 3.7 1.6l-.6 1.2zm-120-1.6-.5-1.2c1.2-.5 2.5-1 3.7-1.4l.5 1.2c-1.2.4-2.5.9-3.7 1.4zm112.7-1.4c-1.2-.4-2.5-.9-3.7-1.3l.4-1.2c1.3.4 2.5.8 3.8 1.3l-.5 1.2zm-105.2-1.3-.4-1.2c1.3-.4 2.5-.8 3.8-1.2l.4 1.3c-1.4.3-2.6.7-3.8 1.1zm97.7-1.1c-1.2-.4-2.5-.7-3.8-1l.3-1.3c1.3.3 2.6.7 3.8 1l-.3 1.3zm-90.2-1-.3-1.3 3.9-.9.3 1.3c-1.3.2-2.6.5-3.9.9zm82.5-.9c-1.3-.3-2.6-.5-3.9-.8l.3-1.3c1.3.3 2.6.5 3.9.8l-.3 1.3zm-74.7-.9-.3-1.3c1.3-.2 2.6-.5 3.9-.7l.2 1.3c-1.3.3-2.6.5-3.8.7zm67-.6-3.9-.6.2-1.3 3.9.6-.2 1.3zm-59.3-.7-.2-1.3c1.3-.2 2.6-.4 3.9-.5l.2 1.3c-1.3.2-2.6.3-3.9.5zm51.5-.5c-1.3-.2-2.6-.3-3.9-.4l.1-1.3c1.3.1 2.7.3 4 .5l-.2 1.2zm-43.6-.4-.1-1.3c1.3-.1 2.6-.3 4-.4l.1 1.3c-1.4.1-2.7.2-4 .4zm35.7-.4-3.9-.3.1-1.3c1.3.1 2.7.2 4 .3l-.2 1.3zm-27.8-.3-.1-1.3c1.3-.1 2.6-.1 4-.2l.1 1.3c-1.4.1-2.7.1-4 .2zm19.9-.2c-1.3-.1-2.6-.1-3.9-.1V373c1.3 0 2.7.1 4 .1l-.1 1.3zm-12-.1V373h4.2v1.3h-4.2zM500.9 398.4c-.2-4.1-4.3-6.3-9-6.3-1.9 0-4.6 1-4.6 2.9 0 5.7 27.4 4.4 28.8 18.2 1 10-9.6 13.7-18.6 13.7-.9 0-1.8-.1-2.7-.1l.1 4.4H490l-.1-5.4c-3.7-1.1-6.5-3.1-8.3-5l-.9 5.1h-13.2l.9-16.1h13.3c-.1 5.2 6.1 6 9.1 6.2 2.6 0 6.2-.5 6.1-3.1-.2-4.7-27.6-2.8-26.9-17.4.4-7.9 9.7-11.3 16.1-11.3 1 0 2 .1 2.9.1l-.1-3.7h4.1l.1 4.4c2.8.8 5.2 2.2 6.8 4.3l.4-4.3H512l1.3 13.4h-12.4z"/>

<path style="fill:currentColor" d="M570 428c-5.2 3.2-11.2 6-18 8.5-5.6 2-11.6 3.8-18 5.2-5.7 1.3-11.7 2.4-18 3.1-5.8.7-11.8 1.2-18 1.5-2.9.1-5.8.2-8.8.2-3.1 0-6.2-.1-9.2-.2-6.2-.3-12.2-.8-18-1.5-6.3-.8-12.3-1.9-18-3.2-6.4-1.5-12.5-3.2-18-5.3-6.8-2.5-12.9-5.4-18-8.6-8.9-5.6-15.1-12.1-17.6-19.1v24.2c2.9 6.6 9 12.8 17.6 18.1 5.2 3.2 11.2 6.2 18 8.7 5.6 2.1 11.6 3.9 18 5.4 5.7 1.4 11.8 2.5 18 3.3 5.8.8 11.8 1.3 18 1.6 3 .1 6.1.2 9.2.2 3 0 5.9-.1 8.8-.2 6.2-.3 12.2-.8 18-1.6 6.3-.8 12.3-1.9 18-3.3 6.4-1.5 12.5-3.3 18-5.4 6.8-2.5 12.8-5.4 18-8.6 8.8-5.4 15.1-11.7 18-18.4v-24.2c-2.5 7.4-8.8 14-18 19.6z"/>

<path style="fill:#949494" d="M489.1 333.3c-54.7.1-98.9 20.3-98.9 45.1 0 24.9 44.3 45.1 98.9 45.1 54.7-.1 99-20.3 99-45.1s-44.3-45-99-45.1z"/>

<path style="fill:#fdd901" d="M489.1 340.9c-45.6.1-82.4 15.1-82.4 33.6s36.9 33.5 82.4 33.6c45.6-.1 82.4-15.1 82.4-33.6.1-18.6-36.8-33.6-82.4-33.6z"/>

<path style="fill:#dfb400" d="m489.1 408.7-.1-.7v-.7h4v1.3c-1.3.1-2.6.1-3.9.1zm-4-.1c-1.3 0-2.7-.1-4-.1l.1-1.3c1.3.1 2.6.1 3.9.1v1.3zm11.9-.1v-1.3c1.3-.1 2.6-.1 4-.2l.1 1.3c-1.4.1-2.8.2-4.1.2zm-19.9-.2c-1.3-.1-2.7-.2-4-.3l.1-1.3 3.9.3v1.3zm27.8-.3-.1-1.3c1.3-.1 2.6-.2 3.9-.4l.1 1.3c-1.2.2-2.5.3-3.9.4zm-35.7-.3c-1.3-.1-2.6-.3-4-.4l.2-1.3c1.3.2 2.6.3 3.9.4l-.1 1.3zm43.7-.5-.2-1.3c1.3-.2 2.6-.3 3.9-.5l.2 1.3c-1.3.2-2.6.4-3.9.5zm-51.6-.5-3.9-.6.2-1.3 3.9.6-.2 1.3zm59.4-.6-.2-1.3c1.3-.2 2.6-.5 3.9-.7l.3 1.3c-1.3.2-2.6.5-4 .7zm-67.3-.8c-1.3-.3-2.6-.5-3.9-.8l.3-1.3c1.3.3 2.6.6 3.9.8l-.3 1.3zm75.2-.7-.3-1.3c1.3-.3 2.6-.6 3.8-.9l.3 1.3c-1.2.3-2.5.6-3.8.9zm-83-1c-1.3-.3-2.6-.7-3.9-1l.4-1.3c1.2.4 2.5.7 3.8 1l-.3 1.3zm90.7-1-.4-1.3c1.3-.4 2.5-.8 3.8-1.1l.4 1.3c-1.2.4-2.5.8-3.8 1.1zm-98.3-1.2c-1.3-.4-2.6-.8-3.8-1.3l.4-1.2c1.2.4 2.5.9 3.7 1.3l-.3 1.2zm105.9-1.2-.4-1.2c1.3-.5 2.5-.9 3.7-1.4l.5 1.2c-1.3.5-2.5.9-3.8 1.4zm-113.4-1.5c-1.2-.5-2.5-1-3.7-1.6l.5-1.2c1.2.5 2.4 1.1 3.6 1.6l-.4 1.2zm120.8-1.5-.6-1.2c1.2-.6 2.4-1.2 3.5-1.7l.6 1.2c-1.1.5-2.3 1.1-3.5 1.7zm-128.1-1.9c-1.2-.6-2.4-1.3-3.5-2l.7-1.1c1.1.7 2.2 1.3 3.4 2l-.6 1.1zm135.2-1.9-.7-1.1c1.1-.7 2.2-1.4 3.2-2.2l.8 1.1c-1 .7-2.2 1.5-3.3 2.2zm-142-2.3c-1.1-.8-2.2-1.7-3.1-2.6l.9-1c.9.8 1.9 1.7 3 2.5l-.8 1.1zm148.4-2.5-.9-1c1-.9 1.9-1.8 2.7-2.8l1 .8c-.8 1.1-1.7 2.1-2.8 3zm-154.3-3c-.9-1.1-1.7-2.2-2.3-3.3l1.1-.6c.6 1.1 1.3 2.1 2.2 3.1l-1 .8zm159.5-3.2-1.1-.7c.7-1.1 1.2-2.3 1.5-3.5l1.3.4c-.5 1.3-1 2.6-1.7 3.8zm-163.4-3.9c-.4-1.3-.6-2.7-.6-4h1.3c0 1.2.2 2.5.5 3.7l-1.2.3zm165.6-3.9h-1.3.7l-.7-.1c0-1.2-.2-2.4-.5-3.6l1.3-.3c.4 1.3.5 2.6.5 4zm-164.3-3.9-1.3-.4c.4-1.3.9-2.5 1.6-3.8l1.1.6c-.6 1.2-1.1 2.4-1.4 3.6zm161.1-3.4c-.6-1.1-1.3-2.1-2.2-3.2l1-.8c.9 1.1 1.7 2.2 2.3 3.4l-1.1.6zm-157.4-3.2-1-.9c.8-1 1.8-2 2.8-2.9l.9 1c-1 .9-2 1.8-2.7 2.8zm152.5-2.7c-.9-.8-1.9-1.7-3-2.5l.8-1.1c1.1.8 2.2 1.7 3.1 2.6l-.9 1zm-146.8-2.6-.8-1.1c1-.8 2.1-1.5 3.3-2.3l.7 1.1c-1.1.8-2.2 1.6-3.2 2.3zm140.6-2.1c-1.1-.7-2.2-1.3-3.4-2l.6-1.2c1.2.7 2.4 1.3 3.5 2l-.7 1.2zm-134-2-.6-1.2c1.1-.6 2.4-1.2 3.6-1.8l.6 1.2c-1.3.6-2.5 1.2-3.6 1.8zM551 353c-1.2-.5-2.4-1.1-3.6-1.6l.5-1.2c1.3.5 2.5 1.1 3.7 1.6l-.6 1.2zm-120-1.7-.5-1.2c1.2-.5 2.5-1 3.7-1.4l.5 1.2c-1.2.5-2.5 1-3.7 1.4zm112.7-1.3c-1.2-.4-2.5-.9-3.7-1.3l.4-1.2c1.3.4 2.5.8 3.8 1.3l-.5 1.2zm-105.2-1.3-.4-1.3c1.3-.4 2.5-.8 3.8-1.1l.4 1.3c-1.4.3-2.6.7-3.8 1.1zm97.7-1.1c-1.2-.4-2.5-.7-3.8-1l.3-1.3c1.3.3 2.6.7 3.8 1l-.3 1.3zm-90.2-1.1-.3-1.3 3.9-.9.3 1.3-3.9.9zm82.5-.9c-1.3-.3-2.6-.5-3.9-.8l.3-1.3c1.3.3 2.6.5 3.9.8l-.3 1.3zm-74.7-.8-.3-1.3c1.3-.3 2.6-.5 3.9-.7l.2 1.3c-1.3.2-2.6.4-3.8.7zm67-.7-3.9-.6.2-1.3 3.9.6-.2 1.3zm-59.3-.6-.2-1.3c1.3-.2 2.6-.4 3.9-.5l.2 1.3c-1.3.1-2.6.3-3.9.5zm51.5-.5c-1.3-.2-2.6-.3-3.9-.4l.1-1.3c1.3.1 2.7.3 4 .5l-.2 1.2zm-43.6-.5-.1-1.3c1.3-.1 2.6-.3 4-.4l.1 1.3c-1.4.2-2.7.3-4 .4zm35.7-.3-3.9-.3.1-1.3c1.3.1 2.7.2 4 .3l-.2 1.3zm-27.8-.3-.1-1.3c1.3-.1 2.6-.1 4-.2l.1 1.3c-1.4 0-2.7.1-4 .2zm19.9-.2c-1.3-.1-2.6-.1-3.9-.1v-1.3c1.3 0 2.7.1 4 .1l-.1 1.3zm-12-.1v-1.3h4.2v1.3h-.2c-1.4-.1-2.7-.1-4 0zM500.9 365.6c-.2-4.1-4.3-6.3-9-6.3-1.9 0-4.6 1-4.6 2.9 0 5.7 27.4 4.4 28.8 18.2 1 10-9.6 13.7-18.6 13.7-.9 0-1.8-.1-2.7-.1l.1 4.4H490V393c-3.7-1.1-6.5-3.1-8.3-5l-.9 5.1h-13.2l.9-16.1h13.3c-.1 5.2 6.1 6 9.1 6.2 2.6 0 6.2-.5 6.1-3.1-.2-4.7-27.6-2.7-26.9-17.4.4-7.9 9.7-11.3 16.1-11.3 1 0 2 0 2.9.1l-.1-3.7h4.1l.1 4.4c2.8.8 5.2 2.1 6.8 4.3l.4-4.3H512l1.3 13.3h-12.4z"/>

<path style="fill:currentColor" d="M570 399.7c-5.2 3.2-11.2 6-18 8.5-5.6 2-11.6 3.8-18 5.2-5.7 1.3-11.7 2.4-18 3.1-5.8.7-11.8 1.2-18 1.5-2.9.1-5.8.2-8.8.2-3.1 0-6.2-.1-9.2-.2-6.2-.3-12.2-.8-18-1.5-6.3-.8-12.3-1.9-18-3.2-6.4-1.5-12.5-3.3-18-5.3-6.8-2.5-12.9-5.4-18-8.6-8.9-5.6-15.1-12.1-17.6-19.1v24.2c2.9 6.6 9 12.8 17.6 18.1 5.2 3.2 11.2 6.2 18 8.7 5.6 2.1 11.6 3.9 18 5.5 5.7 1.4 11.8 2.5 18 3.3 5.8.8 11.8 1.3 18 1.6 3 .1 6.1.2 9.2.2 3 0 5.9-.1 8.8-.2 6.2-.3 12.2-.8 18-1.6 6.3-.8 12.3-1.9 18-3.3 6.4-1.5 12.5-3.3 18-5.4 6.8-2.5 12.8-5.4 18-8.6 8.8-5.4 15.1-11.7 18-18.4v-24.2c-2.5 7.3-8.8 13.9-18 19.5z"/>

<path style="fill:#949494" d="M489.1 305.9c-54.7.1-98.9 20.3-98.9 45.1 0 24.9 44.3 45.1 98.9 45.1 54.7-.1 99-20.3 99-45.1s-44.3-45-99-45.1z"/>

<path style="fill:currentColor" d="M570 372.3c-5.2 3.2-11.2 6-18 8.5-5.6 2-11.6 3.8-18 5.2-5.7 1.3-11.7 2.4-18 3.1-5.8.7-11.8 1.2-18 1.5-2.9.1-5.8.2-8.8.2-3.1 0-6.2-.1-9.2-.2-6.2-.3-12.2-.8-18-1.5-6.3-.8-12.3-1.9-18-3.2-6.4-1.5-12.5-3.3-18-5.3-6.8-2.5-12.9-5.4-18-8.6-8.9-5.6-15.1-12-17.6-19.1v24.2c2.9 6.6 9 12.8 17.6 18.1 5.2 3.2 11.2 6.2 18 8.7 5.6 2.1 11.6 3.9 18 5.4 5.7 1.4 11.8 2.5 18 3.3 5.8.8 11.8 1.3 18 1.6 3 .1 6.1.2 9.2.2 3 0 5.9-.1 8.8-.2 6.2-.3 12.2-.8 18-1.6 6.3-.8 12.3-1.9 18-3.3 6.4-1.5 12.5-3.3 18-5.4 6.8-2.5 12.8-5.4 18-8.6 8.8-5.4 15.1-11.7 18-18.4v-24.2c-2.5 7.4-8.8 13.9-18 19.6z"/>

<path style="fill:#949494" d="M489.1 277.6c-54.7.1-98.9 20.3-98.9 45.1 0 24.9 44.3 45.1 98.9 45.1 54.7-.1 99-20.3 99-45.1 0-24.9-44.3-45-99-45.1z"/>

<path style="fill:currentColor" d="M570 343.9c-5.2 3.2-11.2 6-18 8.5-5.6 2-11.6 3.8-18 5.2-5.7 1.3-11.7 2.4-18 3.1-5.8.7-11.8 1.2-18 1.5-2.9.1-5.8.2-8.8.2-3.1 0-6.2-.1-9.2-.2-6.2-.3-12.2-.8-18-1.5-6.3-.8-12.3-1.9-18-3.2-6.4-1.5-12.5-3.3-18-5.3-6.8-2.5-12.9-5.4-18-8.6-8.9-5.6-15.1-12.1-17.6-19.1v24.2c2.9 6.6 9 12.8 17.6 18.1 5.2 3.2 11.2 6.2 18 8.7 5.6 2.1 11.6 3.9 18 5.4 5.7 1.4 11.8 2.5 18 3.3 5.8.8 11.8 1.3 18 1.6 3 .1 6.1.2 9.2.2 3 0 5.9-.1 8.8-.2 6.2-.3 12.2-.8 18-1.6 6.3-.8 12.3-1.9 18-3.3 6.4-1.5 12.5-3.3 18-5.4 6.8-2.5 12.8-5.4 18-8.6 8.8-5.4 15.1-11.7 18-18.4v-24.2c-2.5 7.4-8.8 14-18 19.6z"/>

<path d="M489.1 249.3c-54.7.1-98.9 20.2-98.9 45.1 0 24.9 44.3 45.1 98.9 45.1 54.7-.1 99-20.3 99-45.1 0-24.9-44.3-45-99-45.1z" style="fill:currentColor"/>

<path d="M489.1 256.8c-45.6.1-82.4 15.1-82.4 33.6s36.9 33.5 82.4 33.6c45.6-.1 82.4-15.1 82.4-33.6.1-18.5-36.8-33.5-82.4-33.6z" style="opacity:.2; fill:#fff"/>

<path style="fill:currentColor" d="M570 315.6c-5.2 3.2-11.2 6-18 8.5-5.6 2-11.6 3.8-18 5.2-5.7 1.3-11.7 2.4-18 3.1-5.8.7-11.8 1.2-18 1.5-2.9.1-5.8.2-8.8.2-3.1 0-6.2-.1-9.2-.2-6.2-.3-12.2-.8-18-1.5-6.3-.8-12.3-1.9-18-3.2-6.4-1.5-12.5-3.3-18-5.3-6.8-2.5-12.9-5.4-18-8.6-8.9-5.6-15.1-12-17.6-19.1v24.2c2.9 6.6 9 12.8 17.6 18.1 5.2 3.2 11.2 6.2 18 8.7 5.6 2.1 11.6 3.9 18 5.4 5.7 1.4 11.8 2.5 18 3.3 5.8.8 11.8 1.3 18 1.6 3 .1 6.1.2 9.2.2 3 0 5.9-.1 8.8-.2 6.2-.3 12.2-.8 18-1.6 6.3-.8 12.3-1.9 18-3.3 6.4-1.5 12.5-3.3 18-5.4 6.8-2.5 12.8-5.4 18-8.6 8.8-5.4 15.1-11.7 18-18.4V296c-2.5 7.4-8.8 14-18 19.6z"/>

<path style="fill:#e8a302" d="M489.3 326.7c-40.1 0-82.6-12.4-82.6-35.2 0-22.8 42.6-35.1 82.6-35.1 40.1 0 82.6 12.4 82.6 35.1 0 22.8-42.6 35.1-82.6 35.2zm-.1-60.6c-42.9.1-72.9 13.4-72.9 25.4 0 12 29.9 25.3 72.9 25.4 42.9-.1 72.9-13.4 72.9-25.4 0-11.9-29.9-25.3-72.9-25.4z"/>

<path style="fill:#e8a302" d="m520.3 291.6-13.1-5.8 1.9-.9c2-.9 3.2-1.6 3.5-2 .3-.4 0-.8-.9-1.2-.8-.3-1.6-.5-2.5-.4-.9.1-1.9.4-3 .9-1.8.8-2.7 1.6-2.7 2.3 0 .7.9 2.4 2.5 5.1 1.5 2.4 2.3 4.1 2.6 5.2.2 1.1-.1 2.2-1.1 3.6-1 1.3-2.9 2.7-5.8 4.1-4.6 2.3-9.5 3.6-14.6 3.8-5.1.2-10.2-.8-15.3-2.8l-5.3 2.5-5.8-3.1 5.4-2.5c-2.9-1.9-4.3-4-4.3-6.3s3-4.6 8.8-7.1l2.5-1.1 12.1 5.8-3.1 1.4c-3.5 1.6-5.6 2.7-6.2 3.2-.6.5-.4 1 .6 1.5.9.4 1.8.6 2.8.5 1-.1 2.1-.4 3.3-.9 2.9-1.4 4.8-2.4 5.6-3.2.8-.8.8-2-.1-3.8-1.4-2.8-2.2-4.8-2.4-5.9-.2-1.1.2-2.3 1.2-3.6 1-1.3 2.7-2.4 5.1-3.5 3.4-1.5 7.1-2.2 11-2.2 3.9 0 8.2.8 12.8 2.3l3.5-1.6 5.8 2.4-3.5 1.6c3.5 1.9 5.4 3.7 5.6 5.4.2 1.8-1.4 3.5-4.8 5.2-.3.3-1.1.7-2.1 1.1z"/>

<path style="fill:currentColor" d="M432.4 471.9c0-50.4-40.9-91.3-91.3-91.3s-91.3 40.9-91.3 91.3 40.9 91.3 91.3 91.3c50.4.1 91.3-40.8 91.3-91.3"/>

<path style="fill:#969696" d="M293.8 552.9c-14.5-8.1-25.9-19.3-34.2-33.5-8.3-14.2-12.5-30-12.5-47.5s4.1-33.3 12.5-47.5c8.3-14.2 19.7-25.3 34.2-33.5 14.5-8.1 30.8-12.2 48.8-12.2 18 0 34.3 4 48.8 12.1s26 19.2 34.3 33.4c8.3 14.2 12.5 30.1 12.5 47.8 0 17.7-4.2 33.6-12.5 47.8-8.3 14.2-19.7 25.3-34.3 33.3-14.5 8.1-30.8 12.1-48.8 12.1-18-.1-34.3-4.1-48.8-12.3zm90.6-10.6c12.4-7 22.2-16.7 29.4-29 7.2-12.3 10.8-26.1 10.8-41.4 0-15.2-3.6-29-10.8-41.3-7.2-12.3-17-22-29.4-29-12.4-7-26.3-10.5-41.7-10.5-15.4 0-29.4 3.5-41.9 10.5s-22.4 16.7-29.5 29-10.7 26.1-10.7 41.3c0 15.2 3.6 29 10.7 41.4s17 22 29.5 29 26.5 10.5 41.9 10.5c15.3 0 29.2-3.5 41.7-10.5z"/>

<path style="fill:#969696" d="M326.8 487.1v7.5h27.3v4.1h-27.3v17h-6.3v-17h-12.9v-4.1h12.9v-63.2h30.4c10.6 0 18.9 2.4 24.9 7.3s9 11.7 9 20.5-3 15.7-9 20.6c-6 4.9-14.3 7.3-24.9 7.3h-24.1zm0-50.2v44.8H351c8.8 0 15.6-1.9 20.4-5.8 4.7-3.9 7.1-9.4 7.1-16.6 0-7.2-2.4-12.8-7-16.6-4.7-3.9-11.5-5.8-20.4-5.8h-24.3z"/>

<path d="M580.3 291.8c0-23.2-42-42.1-93.8-42.1s-93.8 18.9-93.8 42.1c0 23.3 42 42.1 93.8 42.1 51.9 0 93.8-18.9 93.8-42.1" style="fill:currentColor"/>

<path style="fill:#949494" d="M438 329.1c-14.9-3.8-26.6-8.9-35.2-15.4-8.6-6.5-12.8-13.8-12.8-21.9 0-8.1 4.3-15.4 12.8-21.9 8.5-6.5 20.2-11.7 35.2-15.4s31.6-5.6 50.1-5.6 35.2 1.9 50.1 5.6c14.9 3.7 26.6 8.8 35.2 15.4 8.5 6.5 12.8 13.9 12.8 22s-4.3 15.5-12.8 22-20.3 11.7-35.2 15.4c-14.9 3.7-31.6 5.6-50.1 5.6-18.4-.2-35.1-2-50.1-5.8zm93-4.9c12.8-3.2 22.8-7.7 30.2-13.4 7.4-5.7 11.1-12 11.1-19.1 0-7-3.7-13.4-11.1-19.1-7.4-5.7-17.4-10.1-30.2-13.4-12.7-3.2-27-4.8-42.8-4.8-15.8 0-30.2 1.6-43 4.8-12.9 3.2-23 7.7-30.3 13.4s-11 12-11 19.1c0 7 3.7 13.4 11 19.1 7.4 5.7 17.5 10.1 30.3 13.4 12.8 3.2 27.2 4.8 43 4.8 15.8.1 30.1-1.6 42.8-4.8z"/>

<path style="fill:#949494" d="M471.9 298.8v3.4H500v1.9h-28.1v7.8h-6.4v-7.8h-13.2v-1.9h13.2v-29.1h31.2c10.9 0 19.4 1.1 25.5 3.4 6.1 2.2 9.2 5.4 9.2 9.5s-3.1 7.2-9.2 9.5-14.7 3.4-25.5 3.4h-24.8zm0-23.2v20.7h24.8c9.1 0 16-.9 20.9-2.7s7.3-4.3 7.3-7.6-2.4-5.9-7.2-7.7-11.8-2.7-21-2.7h-24.8z"/></svg>