<svg version="1.1" id="Objects" xmlns="http://www.w3.org/2000/svg" x="0" y="0" viewBox="0 0 155.39 126.95" style="enable-background:new 0 0 155.39 126.95" xml:space="preserve">

<style>.st0{fill:#fff}.st1{fill:#969696}.st2,.st3,.st4,.st5{fill:#ffc500}</style>

<path style="fill:#fff" d="M73.57 15.15 1.59 56.99l39.7 22.92 71.99-41.83z"/>

<path style="fill:#969696" d="M41.28 75.67 8.91 56.98 73.58 19.4l32.38 18.69-64.68 37.58zm-25.05-18.7 25.05 14.46L98.63 38.1 73.59 23.63 16.23 56.97z"/>

<path style="fill:#fff" d="m41.29 79.91-.08 19.99 71.98-41.83.09-19.99z"/>

<path style="fill:#fff" d="m41.29 79.91-.08 19.99 71.98-41.83.09-19.99z"/>

<path style="fill:#fff" d="M1.59 56.99 1.5 76.98 41.21 99.9l.08-19.99z"/>

<path style="fill:#fff" d="M1.59 56.99 1.5 76.98 41.21 99.9l.08-19.99z"/>

<path style="fill:#969696" d="m114.78 37.21-1.51-.87-39.7-22.92L1.58 55.25l-1.49.87-.01 1.73L0 77.84l39.7 22.92 1.51.87 1.49-.87 71.99-41.84.08-19.99.01-1.72zm-41.2-20.32 36.71 21.19-69 40.1-36.71-21.2 69-40.09zM39.73 94.57l-.01 2.74L3.01 76.12l.07-16.54 36.71 21.2-.06 13.79zM111.7 57.2 42.72 97.29l.01-3.38.05-13.14 68.98-40.09-.06 16.52z"/>

<path style="fill:currentColor" d="M45.67 31.34 29.49 40.8l39.7 22.92 16.18-9.46z"/>

<path style="fill:currentColor" d="m69.19 82.1 16.18-7.87V54.29L69.19 63.7z"/>

<path style="fill:#fff" d="M113.56 38.34 41.57 80.18l39.7 22.92 71.99-41.83z"/>

<path style="fill:#969696" d="M81.27 98.86 48.89 80.17l64.67-37.58 32.38 18.69-64.67 37.58zm-25.06-18.7 25.05 14.46 57.36-33.33-25.05-14.46-57.36 33.33z"/>

<path style="fill:#fff" d="m81.27 103.1-.08 19.99 71.99-41.83.08-19.99z"/>

<path style="fill:#fff" d="m81.27 103.1-.08 19.99 71.99-41.83.08-19.99z"/>

<path style="fill:#fff" d="m41.57 80.18-.08 19.99 39.7 22.92.08-19.99z"/>

<path style="fill:#fff" d="m41.57 80.18-.08 19.99 39.7 22.92.08-19.99z"/>

<path style="fill:#969696" d="m154.76 60.4-1.51-.87-39.7-22.92-71.98 41.84-1.49.87-.01 1.73-.08 19.99 39.7 22.92 1.51.87 1.49-.87 71.99-41.84.08-19.99V60.4zm-41.2-20.32 36.71 21.19-69 40.1-36.71-21.2 69-40.09zm-33.85 77.68-.01 2.74-36.71-21.2.07-16.54 36.71 21.2-.06 13.8zm71.97-37.37L82.7 120.48l.01-3.38.05-13.14 68.98-40.09-.06 16.52z"/>

<path style="fill:currentColor" d="m85.66 54.53-16.19 9.46 39.71 22.92 16.18-9.45z"/>

<path style="fill:currentColor" d="m109.18 105.29 16.18-7.86V77.48l-16.18 9.41z"/>

<path style="fill:#969696" d="M133.35 103.76c-12.18.02-22.04 4.51-22.04 10.05 0 5.54 9.86 10.03 22.04 10.05 12.18-.02 22.04-4.51 22.04-10.05 0-5.54-9.86-10.03-22.04-10.05z"/>

<path style="fill:currentColor" d="M133.35 105.43c-10.15.01-18.36 3.36-18.36 7.48 0 4.12 8.21 7.47 18.36 7.48 10.15-.01 18.36-3.36 18.36-7.48 0-4.12-8.21-7.46-18.36-7.48z"/>

<path style="fill:currentColor" d="m133.35 120.54-.02-.15v-.15h.02c.29 0 .58 0 .86-.01v.29c-.28.01-.57.02-.86.02zm-.9-.01-.89-.03.01-.29.88.03v.29zm2.66-.03-.01-.29c.29-.01.59-.03.88-.04l.02.29c-.3.02-.6.03-.89.04zm-4.43-.04-.88-.06.02-.29.88.06-.02.29zm6.2-.06-.02-.29c.29-.02.59-.05.88-.08l.03.29c-.3.03-.6.05-.89.08zm-7.97-.09c-.3-.03-.59-.06-.88-.1l.04-.29c.29.03.58.07.87.1l-.03.29zm9.73-.09-.04-.29c.29-.04.59-.08.87-.12l.04.29c-.28.04-.57.08-.87.12zm-11.49-.12c-.3-.04-.59-.09-.88-.14l.05-.29c.29.05.58.09.87.14l-.04.29zm13.24-.14-.05-.29c.29-.05.58-.1.86-.16l.06.29c-.28.06-.57.12-.87.16zm-14.99-.16-.87-.18.06-.29c.28.06.57.12.86.18l-.05.29zm16.74-.17-.06-.29c.29-.06.58-.13.86-.2l.07.28-.87.21zm-18.47-.22c-.29-.07-.58-.15-.86-.23l.08-.28c.28.08.56.16.85.23l-.07.28zm20.19-.22-.08-.28c.29-.08.57-.17.84-.25l.09.28c-.28.08-.56.17-.85.25zm-21.9-.26c-.29-.09-.57-.19-.84-.29l.1-.28c.27.1.55.19.83.28l-.09.29zm23.59-.28-.1-.28c.28-.1.55-.21.82-.31l.11.27c-.27.11-.54.22-.83.32zm-25.26-.33c-.28-.11-.55-.23-.82-.36l.12-.27c.26.12.53.24.8.35l-.1.28zm26.91-.34-.12-.27c.27-.12.54-.26.78-.39l.14.26c-.26.14-.53.27-.8.4zm-28.52-.41a9.9 9.9 0 0 1-.78-.45l.16-.25c.24.15.49.3.76.44l-.14.26zm30.09-.43-.15-.25c.26-.16.5-.32.72-.49l.17.24c-.23.17-.48.34-.74.5zm-31.61-.52c-.25-.19-.48-.38-.69-.57l.2-.22c.2.19.43.37.67.55l-.18.24zm33.05-.54-.2-.22c.22-.2.42-.41.6-.62l.22.19c-.18.22-.39.44-.62.65zm-34.37-.68c-.2-.24-.38-.49-.52-.75l.25-.14c.13.23.3.47.49.7l-.22.19zm35.52-.71-.25-.14c.15-.26.26-.52.34-.78l.28.08c-.09.28-.21.56-.37.84zm-36.39-.88c-.08-.3-.13-.6-.13-.9l.29-.01v.01c0 .27.04.55.11.82l-.27.08zm36.89-.87h-.29.15l-.15-.03c0-.27-.04-.54-.11-.8l.28-.08c.08.29.12.59.12.88v.03zm-36.6-.86-.28-.08c.08-.28.2-.57.36-.84l.25.14c-.14.26-.26.52-.33.78zm35.87-.75c-.13-.24-.29-.47-.48-.7l.23-.19c.2.24.38.49.52.75l-.27.14zm-35.05-.73-.22-.19c.18-.22.39-.44.63-.65l.2.22c-.23.2-.44.41-.61.62zm33.97-.6c-.2-.19-.43-.37-.67-.55l.17-.23c.25.19.48.38.69.57l-.19.21zm-32.7-.57-.17-.23c.23-.17.48-.34.74-.5l.15.25c-.26.15-.5.32-.72.48zm31.31-.47c-.24-.15-.49-.3-.76-.44l.14-.26c.27.14.53.3.77.45l-.15.25zm-29.83-.45-.14-.26c.26-.14.52-.27.8-.4l.12.27c-.27.13-.53.26-.78.39zm28.29-.37c-.26-.12-.53-.24-.8-.35l.11-.27c.28.11.55.23.82.36l-.13.26zm-26.7-.37-.11-.27c.27-.11.55-.22.83-.32l.1.28c-.28.1-.56.2-.82.31zm25.08-.3c-.27-.1-.55-.19-.83-.28l.09-.28c.29.09.57.19.84.29l-.1.27zm-23.43-.3-.09-.28c.28-.09.56-.17.85-.26l.08.28c-.29.09-.57.18-.84.26zm21.76-.24c-.28-.08-.56-.16-.85-.23l.07-.28c.29.07.58.15.86.23l-.08.28zm-20.07-.24-.07-.28c.28-.07.57-.14.86-.21l.06.29c-.29.07-.57.13-.85.2zm18.37-.19c-.28-.06-.57-.12-.86-.18l.06-.29.87.18-.07.29zm-16.65-.19-.06-.29c.29-.06.58-.11.87-.16l.05.29c-.29.05-.58.11-.86.16zm14.92-.15c-.29-.05-.58-.1-.87-.14l.04-.29c.3.04.59.09.88.14l-.05.29zm-13.19-.14-.04-.29.88-.12.04.29-.88.12zm11.45-.12c-.29-.04-.58-.07-.88-.1l.03-.29c.3.03.59.06.88.1l-.03.29zm-9.7-.1-.03-.29c.29-.03.59-.06.88-.08l.02.29c-.29.03-.58.05-.87.08zm7.95-.08-.88-.06.02-.29.88.06-.02.29zm-6.2-.06-.02-.29c.29-.02.59-.03.88-.04l.01.29c-.28.01-.58.02-.87.04zm4.44-.04-.88-.03.01-.29c.3.01.59.01.89.03l-.02.29zm-2.68-.03-.01-.29c.29-.01.59-.01.89-.01h.04v.29h-.04c-.29 0-.59.01-.88.01zM135.97 110.96c-.05-.91-.95-1.41-2-1.41-.43 0-1.03.21-1.03.64.01 1.28 6.09.97 6.42 4.06.23 2.22-2.14 3.06-4.15 3.06-.2 0-.41-.01-.59-.03l.03.98h-1.09l-.02-1.2c-.82-.25-1.44-.7-1.84-1.1l-.2 1.13h-2.95l.2-3.58h2.97c-.01 1.15 1.35 1.35 2.04 1.37.57 0 1.38-.11 1.36-.7-.04-1.05-6.16-.61-5.98-3.88.09-1.75 2.17-2.51 3.6-2.51.22 0 .44.01.65.03l-.01-.82h.92l.03.99c.62.18 1.16.48 1.51.96l.09-.96h2.51l.3 2.97h-2.77z"/>

<path style="fill:currentColor" d="M151.37 117.55c-1.15.71-2.5 1.34-4.02 1.9-1.24.45-2.58.84-4.02 1.16-1.27.29-2.62.53-4.01.7-1.3.16-2.64.27-4.02.33-.65.02-1.3.04-1.96.04-.69 0-1.38-.02-2.05-.04-1.38-.06-2.72-.17-4.02-.34-1.4-.18-2.74-.42-4.02-.71-1.43-.33-2.78-.72-4.02-1.18-1.52-.56-2.87-1.2-4.01-1.92-1.98-1.24-3.36-2.68-3.92-4.25v5.38c.64 1.47 2.01 2.84 3.92 4.04 1.15.72 2.5 1.37 4.01 1.94 1.24.47 2.59.87 4.02 1.21 1.28.3 2.62.55 4.02.74a46.545 46.545 0 0 0 6.07.41c.66 0 1.31-.02 1.96-.04 1.38-.06 2.72-.18 4.02-.35 1.4-.18 2.74-.43 4.01-.73 1.43-.34 2.78-.74 4.02-1.2 1.51-.56 2.86-1.21 4.02-1.92 1.96-1.21 3.36-2.6 4.02-4.09v-5.38c-.57 1.58-1.98 3.05-4.02 4.3z"/>

<path style="fill:#969696" d="M133.35 96.46c-12.18.02-22.04 4.51-22.04 10.05 0 5.54 9.86 10.03 22.04 10.05 12.18-.02 22.04-4.51 22.04-10.05 0-5.54-9.86-10.03-22.04-10.05z"/>

<path style="fill:currentColor" d="M133.35 98.14c-10.15.01-18.36 3.36-18.36 7.48 0 4.12 8.21 7.47 18.36 7.48 10.15-.01 18.36-3.36 18.36-7.48 0-4.12-8.21-7.47-18.36-7.48z"/>

<path style="fill:currentColor" d="m133.35 113.24-.02-.15v-.15h.02c.29 0 .58 0 .86-.01v.29c-.28.02-.57.02-.86.02zm-.9-.01-.89-.03.01-.29.88.03v.29zm2.66-.02-.01-.29c.29-.01.59-.03.88-.04l.02.29c-.3.01-.6.03-.89.04zm-4.43-.05-.88-.06.02-.29.88.06-.02.29zm6.2-.06-.02-.29c.29-.02.59-.05.88-.08l.03.29c-.3.03-.6.06-.89.08zm-7.97-.08c-.3-.03-.59-.06-.88-.1l.04-.29c.29.03.58.07.87.1l-.03.29zm9.73-.1-.04-.29c.29-.03.59-.08.87-.12l.04.29c-.28.05-.57.09-.87.12zm-11.49-.12c-.3-.04-.59-.09-.88-.14l.05-.29c.29.05.58.09.87.14l-.04.29zm13.24-.13-.05-.29c.29-.05.58-.1.86-.16l.06.29c-.28.06-.57.11-.87.16zm-14.99-.17-.87-.18.06-.29c.28.06.57.12.86.18l-.05.29zm16.74-.17-.06-.29c.29-.06.58-.13.86-.2l.07.28c-.29.08-.58.15-.87.21zm-18.47-.21c-.29-.07-.58-.15-.86-.23l.08-.28c.28.08.56.16.85.23l-.07.28zm20.19-.22-.08-.28c.29-.08.57-.17.84-.25l.09.28c-.28.08-.56.17-.85.25zm-21.9-.27c-.29-.09-.57-.19-.84-.29l.1-.28c.27.1.55.19.83.28l-.09.29zm23.59-.27-.1-.28c.28-.1.55-.21.82-.31l.11.27c-.27.11-.54.21-.83.32zm-25.26-.33c-.28-.11-.55-.23-.82-.35l.12-.27c.26.12.53.24.8.35l-.1.27zm26.91-.35-.12-.27c.27-.13.54-.26.78-.39l.14.26c-.26.14-.53.28-.8.4zm-28.52-.41a9.9 9.9 0 0 1-.78-.45l.16-.25c.24.15.49.29.76.44l-.14.26zm30.09-.42-.15-.25c.26-.16.5-.32.72-.49l.17.24c-.23.17-.48.34-.74.5zm-31.61-.52c-.25-.19-.48-.38-.69-.57l.2-.22c.2.19.43.37.67.55l-.18.24zm33.05-.55-.2-.22c.22-.2.42-.41.6-.62l.22.19c-.18.22-.39.44-.62.65zm-34.37-.68c-.2-.24-.38-.49-.52-.74l.25-.14c.13.23.3.47.49.7l-.22.18zm35.52-.71-.25-.15c.15-.25.26-.52.34-.78l.28.08c-.09.3-.21.58-.37.85zm-36.39-.87c-.08-.3-.13-.6-.13-.9l.29-.01v.01c0 .27.04.55.11.82l-.27.08zm36.89-.87-.29-.01h.15l-.15-.03c0-.27-.04-.54-.11-.8l.28-.08c.08.29.12.59.12.88v.04zm-36.6-.87-.28-.08c.08-.28.2-.57.36-.84l.25.14c-.14.26-.26.52-.33.78zm35.87-.74c-.13-.24-.29-.47-.48-.7l.23-.19c.2.24.38.5.52.75l-.27.14zm-35.05-.73-.22-.19c.18-.22.39-.44.63-.65l.2.22c-.23.2-.44.41-.61.62zm33.97-.6c-.2-.19-.43-.37-.67-.55l.17-.23c.25.18.48.38.69.57l-.19.21zm-32.7-.57-.17-.24c.23-.17.48-.34.74-.5l.15.25c-.26.16-.5.32-.72.49zm31.31-.47c-.24-.15-.49-.3-.76-.44l.14-.26c.27.15.53.3.77.45l-.15.25zm-29.83-.46-.14-.26c.26-.14.52-.27.8-.4l.12.27c-.27.13-.53.26-.78.39zm28.29-.37c-.26-.12-.53-.24-.8-.35l.11-.27c.28.11.55.24.82.36l-.13.26zm-26.7-.36-.11-.27c.27-.11.55-.22.83-.32l.1.28c-.28.09-.56.2-.82.31zm25.08-.3c-.27-.1-.55-.19-.83-.28l.09-.28c.29.09.57.19.84.29l-.1.27zm-23.43-.3-.09-.28c.28-.09.56-.17.85-.26l.08.28c-.29.09-.57.17-.84.26zm21.76-.24c-.28-.08-.56-.15-.85-.23l.07-.28c.29.07.58.15.86.23l-.08.28zm-20.07-.24-.07-.28c.28-.07.57-.14.86-.21l.06.29c-.29.06-.57.13-.85.2zm18.37-.2c-.28-.06-.57-.12-.86-.18l.06-.29.87.18-.07.29zm-16.65-.18-.06-.29c.29-.06.58-.11.87-.16l.05.29c-.29.05-.58.1-.86.16zm14.92-.15c-.29-.05-.58-.09-.87-.14l.04-.29c.3.04.59.09.88.14l-.05.29zm-13.19-.15-.04-.29.88-.12.04.29-.88.12zm11.45-.11c-.29-.04-.58-.07-.88-.1l.03-.29c.3.03.59.06.88.1l-.03.29zm-9.7-.1-.03-.29c.29-.03.59-.06.88-.08l.02.29c-.29.02-.58.05-.87.08zm7.95-.08-.88-.06.02-.29.88.06-.02.29zm-6.2-.06-.02-.29c.29-.02.59-.03.88-.04l.01.29c-.28 0-.58.02-.87.04zm4.44-.05-.88-.03.01-.29c.3.01.59.01.89.03l-.02.29zm-2.68-.02V98c.29-.01.59-.01.89-.01h.04v.29h-.04c-.3.01-.6.01-.89.02zM135.97 103.66c-.05-.91-.95-1.41-2-1.41-.43 0-1.03.22-1.03.64.01 1.27 6.09.97 6.42 4.06.23 2.22-2.14 3.06-4.15 3.06-.2 0-.41-.01-.59-.03l.03.98h-1.09l-.02-1.2c-.82-.25-1.44-.7-1.84-1.1l-.2 1.13h-2.95l.2-3.58h2.97c-.01 1.15 1.35 1.35 2.04 1.38.57 0 1.38-.11 1.36-.7-.04-1.05-6.16-.61-5.98-3.88.09-1.75 2.17-2.51 3.6-2.51.22 0 .44.01.65.03l-.01-.82h.92l.03.99c.62.18 1.16.48 1.51.96l.09-.96h2.51l.3 2.97h-2.77z"/>

<path d="M151.37 111.24c-1.15.71-2.5 1.34-4.02 1.9-1.24.45-2.58.84-4.02 1.16-1.27.29-2.62.53-4.01.7-1.3.16-2.64.27-4.02.33-.65.03-1.3.04-1.96.04-.69 0-1.38-.02-2.05-.04-1.38-.06-2.72-.17-4.02-.34-1.4-.18-2.74-.42-4.02-.71-1.43-.33-2.78-.72-4.02-1.18-1.52-.56-2.87-1.2-4.01-1.92-1.98-1.24-3.36-2.68-3.92-4.25v5.38c.64 1.47 2.01 2.84 3.92 4.03 1.15.72 2.5 1.37 4.01 1.94 1.24.47 2.59.87 4.02 1.21 1.28.3 2.62.55 4.02.74a46.545 46.545 0 0 0 6.07.41c.66 0 1.31-.02 1.96-.04 1.38-.06 2.72-.18 4.02-.35 1.4-.18 2.74-.43 4.01-.73 1.43-.34 2.78-.74 4.02-1.2 1.51-.56 2.86-1.21 4.02-1.92 1.96-1.21 3.36-2.6 4.02-4.09v-5.38c-.57 1.59-1.98 3.06-4.02 4.31z" style="fill:currentColor"/>

<path style="fill:#969696" d="M133.35 90.35c-12.18.02-22.04 4.51-22.04 10.05 0 5.54 9.86 10.04 22.04 10.05 12.18-.02 22.04-4.51 22.04-10.05 0-5.53-9.86-10.03-22.04-10.05z"/>

<path style="fill:currentColor" d="M133.35 92.03c-10.15.01-18.36 3.36-18.36 7.48 0 4.12 8.21 7.47 18.36 7.48 10.15-.01 18.36-3.36 18.36-7.48 0-4.12-8.21-7.46-18.36-7.48z"/>

<path style="fill:currentColor" d="m133.35 107.14-.02-.15v-.15h.02c.29 0 .58 0 .86-.01v.29c-.28.01-.57.02-.86.02zm-.9-.01-.89-.03.01-.29.88.03v.29zm2.66-.03-.01-.29c.29-.01.59-.03.88-.04l.02.29c-.3.01-.6.03-.89.04zm-4.43-.04-.88-.06.02-.29.88.06-.02.29zm6.2-.06-.02-.29c.29-.02.59-.05.88-.08l.03.29c-.3.03-.6.05-.89.08zm-7.97-.09c-.3-.03-.59-.06-.88-.1l.04-.29c.29.04.58.07.87.1l-.03.29zm9.73-.09-.04-.29c.29-.04.59-.08.87-.12l.04.29c-.28.04-.57.08-.87.12zm-11.49-.13c-.3-.04-.59-.09-.88-.14l.05-.29c.29.05.58.09.87.14l-.04.29zm13.24-.13-.05-.29c.29-.05.58-.1.86-.16l.06.29c-.28.06-.57.11-.87.16zm-14.99-.16-.87-.18.06-.29c.28.06.57.12.86.18l-.05.29zm16.74-.18-.06-.29c.29-.06.58-.13.86-.2l.07.28c-.29.08-.58.15-.87.21zm-18.47-.21c-.29-.07-.58-.15-.86-.23l.08-.28c.28.08.56.16.85.23l-.07.28zm20.19-.22-.08-.28c.29-.08.57-.16.84-.25l.09.28c-.28.08-.56.17-.85.25zm-21.9-.27c-.29-.09-.57-.19-.84-.29l.1-.28c.27.1.55.19.83.28l-.09.29zm23.59-.27-.1-.28c.28-.1.55-.21.82-.31l.11.27c-.27.11-.54.22-.83.32zm-25.26-.33c-.28-.11-.55-.23-.82-.36l.12-.26c.26.12.53.24.8.35l-.1.27zm26.91-.34-.12-.26c.27-.13.54-.26.78-.39l.14.26c-.26.13-.53.26-.8.39zm-28.52-.42a9.9 9.9 0 0 1-.78-.45l.16-.25c.24.15.49.3.76.44l-.14.26zm30.09-.42-.15-.25c.26-.16.5-.32.72-.49l.17.24c-.23.17-.48.34-.74.5zm-31.61-.52c-.25-.19-.48-.38-.69-.57l.2-.22c.2.19.43.37.67.55l-.18.24zm33.05-.55-.2-.22c.22-.2.42-.41.6-.62l.22.19c-.18.23-.39.44-.62.65zm-34.37-.67c-.2-.24-.38-.5-.52-.75l.25-.14c.13.24.3.47.49.7l-.22.19zm35.52-.71-.25-.15c.15-.26.26-.52.34-.78l.28.08c-.09.29-.21.57-.37.85zm-36.39-.88c-.08-.3-.13-.6-.13-.9l.29-.01v.01c0 .27.04.55.11.82l-.27.08zm36.89-.87h-.29.15l-.15-.03c0-.27-.04-.54-.11-.8l.28-.08c.08.29.12.59.12.88v.03zm-36.6-.86-.28-.08c.08-.28.2-.57.36-.84l.25.15c-.14.24-.26.5-.33.77zm35.87-.75c-.13-.24-.29-.47-.48-.7l.23-.19c.2.24.38.5.52.75l-.27.14zm-35.05-.73-.22-.19c.18-.22.39-.44.63-.65l.2.22c-.23.2-.44.41-.61.62zm33.97-.6c-.2-.19-.43-.37-.67-.55l.17-.23c.25.19.48.38.69.57l-.19.21zm-32.7-.57-.17-.24c.23-.17.48-.34.74-.5l.15.25c-.26.16-.5.32-.72.49zm31.31-.47c-.24-.15-.49-.3-.76-.44l.14-.26c.27.15.53.29.77.45l-.15.25zm-29.83-.45-.14-.26c.26-.13.52-.27.8-.4l.12.27c-.27.12-.53.26-.78.39zm28.29-.38c-.26-.12-.53-.24-.8-.35l.11-.27c.28.11.55.23.82.36l-.13.26zm-26.7-.36-.11-.27c.27-.11.55-.22.83-.32l.1.28c-.28.1-.56.2-.82.31zm25.08-.3c-.27-.1-.55-.19-.83-.28l.09-.28c.29.09.57.19.84.29l-.1.27zm-23.43-.3-.09-.28c.28-.09.56-.17.85-.26l.08.28c-.29.09-.57.17-.84.26zm21.76-.24c-.28-.08-.56-.15-.85-.23l.07-.28c.29.07.58.15.86.23l-.08.28zm-20.07-.24-.07-.28c.28-.07.57-.14.86-.2l.06.29c-.29.05-.57.12-.85.19zm18.37-.19c-.28-.06-.57-.12-.86-.18l.06-.29.87.18-.07.29zm-16.65-.19-.06-.29c.29-.06.58-.11.87-.16l.05.29c-.29.05-.58.1-.86.16zm14.92-.15c-.29-.05-.58-.1-.87-.14l.04-.29c.3.04.59.09.88.14l-.05.29zm-13.19-.14-.04-.29.88-.12.04.29c-.3.03-.59.07-.88.12zm11.45-.12c-.29-.03-.58-.07-.88-.1l.03-.29c.3.03.59.06.88.1l-.03.29zm-9.7-.1-.03-.29c.29-.03.59-.06.88-.08l.02.29c-.29.02-.58.05-.87.08zm7.95-.08-.88-.06.02-.29.88.06-.02.29zm-6.2-.06-.02-.29c.29-.02.59-.03.88-.04l.01.29c-.28.01-.58.02-.87.04zm4.44-.04-.88-.03.01-.29c.3.01.59.01.89.03l-.02.29zm-2.68-.03-.01-.29c.29-.01.59-.01.89-.01h.04v.29h-.04c-.29 0-.59 0-.88.01zM135.97 97.55c-.05-.91-.95-1.41-2-1.41-.43 0-1.03.21-1.03.64.01 1.27 6.09.97 6.42 4.06.23 2.22-2.14 3.06-4.15 3.06-.2 0-.41-.01-.59-.03l.03.98h-1.09l-.02-1.2c-.82-.25-1.44-.7-1.84-1.1l-.2 1.13h-2.95l.2-3.58h2.97c-.01 1.15 1.35 1.35 2.04 1.37.57 0 1.38-.11 1.36-.69-.04-1.06-6.16-.61-5.98-3.88.09-1.75 2.17-2.51 3.6-2.51.22 0 .44.01.65.03l-.01-.82h.92l.03.99c.62.18 1.16.48 1.51.96l.09-.96h2.51l.3 2.97h-2.77z"/>

<path style="fill:currentColor" d="M151.37 105.13c-1.15.71-2.5 1.34-4.02 1.9-1.24.45-2.58.84-4.02 1.16-1.27.29-2.62.53-4.01.7-1.3.16-2.64.27-4.02.33-.65.03-1.3.04-1.96.04-.69 0-1.38-.02-2.05-.04-1.38-.06-2.72-.17-4.02-.34-1.4-.18-2.74-.42-4.02-.71-1.43-.33-2.78-.72-4.02-1.18-1.52-.56-2.87-1.2-4.01-1.92-1.98-1.24-3.36-2.68-3.92-4.25v5.38c.64 1.47 2.01 2.84 3.92 4.03 1.15.72 2.5 1.37 4.01 1.94 1.24.47 2.59.87 4.02 1.21 1.28.3 2.62.55 4.02.74 1.3.17 2.64.29 4.02.36.68.03 1.36.05 2.05.05.66 0 1.31-.02 1.96-.04 1.38-.06 2.72-.18 4.02-.35 1.4-.18 2.74-.43 4.01-.73 1.43-.34 2.78-.74 4.02-1.2 1.51-.56 2.86-1.2 4.02-1.92 1.96-1.21 3.36-2.6 4.02-4.09v-5.38c-.57 1.6-1.98 3.06-4.02 4.31z"/>

<path style="fill:#969696" d="M133.35 84.05c-12.18.02-22.04 4.51-22.04 10.05 0 5.54 9.86 10.04 22.04 10.05 12.18-.02 22.04-4.51 22.04-10.05 0-5.54-9.86-10.03-22.04-10.05z"/>

<path style="fill:currentColor" d="M151.37 98.83c-1.15.71-2.5 1.34-4.02 1.89-1.24.45-2.58.84-4.02 1.16-1.27.29-2.62.52-4.01.7-1.3.16-2.64.27-4.02.33-.65.02-1.3.04-1.96.04-.69 0-1.38-.02-2.05-.04-1.38-.06-2.72-.17-4.02-.34-1.4-.18-2.74-.42-4.02-.71-1.43-.33-2.78-.72-4.02-1.18-1.52-.56-2.87-1.2-4.01-1.92-1.98-1.24-3.36-2.68-3.92-4.25v5.38c.64 1.47 2.01 2.84 3.92 4.03 1.15.72 2.5 1.37 4.01 1.94 1.24.47 2.59.87 4.02 1.21 1.28.3 2.62.55 4.02.74 1.3.17 2.64.29 4.02.36.68.03 1.36.05 2.05.05.66 0 1.31-.02 1.96-.04 1.38-.06 2.72-.18 4.02-.35 1.4-.18 2.74-.43 4.01-.73 1.43-.34 2.78-.74 4.02-1.2 1.51-.56 2.86-1.21 4.02-1.92 1.96-1.21 3.36-2.6 4.02-4.09v-5.38c-.57 1.6-1.98 3.07-4.02 4.32z"/>

<path d="M133.35 77.75c-12.18.02-22.04 4.51-22.04 10.05 0 5.54 9.86 10.03 22.04 10.05 12.18-.02 22.04-4.51 22.04-10.05 0-5.54-9.86-10.04-22.04-10.05z" style="fill:currentColor"/>

<path d="M133.35 79.42c-10.15.01-18.36 3.36-18.36 7.48 0 4.12 8.21 7.47 18.36 7.48 10.15-.01 18.36-3.36 18.36-7.48 0-4.12-8.21-7.47-18.36-7.48z" style="opacity:.2;fill:#fff"/>

<path style="fill:currentColor" d="M151.37 92.52c-1.15.71-2.5 1.34-4.02 1.89-1.24.45-2.58.84-4.02 1.16-1.27.29-2.62.52-4.01.7-1.3.16-2.64.27-4.02.33a45.992 45.992 0 0 1-4.01-.01c-1.38-.06-2.72-.17-4.02-.34-1.4-.18-2.74-.42-4.02-.71-1.43-.33-2.78-.72-4.02-1.18-1.52-.56-2.87-1.2-4.01-1.92-1.98-1.24-3.36-2.68-3.92-4.25v5.38c.64 1.47 2.01 2.84 3.92 4.04 1.15.72 2.5 1.37 4.01 1.94 1.24.47 2.59.87 4.02 1.21 1.28.3 2.62.55 4.02.74a46.545 46.545 0 0 0 6.07.41c.66 0 1.31-.02 1.96-.04 1.38-.06 2.72-.18 4.02-.35 1.4-.18 2.74-.43 4.01-.73 1.43-.34 2.78-.74 4.02-1.2 1.51-.56 2.86-1.21 4.02-1.92 1.96-1.21 3.36-2.6 4.02-4.09V88.2c-.57 1.61-1.98 3.07-4.02 4.32z"/>

<path d="M133.38 94.98c-8.92-.01-18.4-2.76-18.4-7.83s9.48-7.82 18.4-7.83c8.92.01 18.4 2.76 18.4 7.83s-9.48 7.82-18.4 7.83zm0-13.48c-9.56.01-16.23 2.99-16.23 5.65s6.66 5.64 16.23 5.65c9.56-.01 16.23-2.99 16.23-5.65s-6.67-5.64-16.23-5.65z" style="fill:currentColor"/>

<path style="fill:currentColor" d="M153.67 87.21c0-5.18-9.35-9.38-20.88-9.38s-20.88 4.2-20.88 9.38c0 5.18 9.35 9.38 20.88 9.38s20.88-4.2 20.88-9.38"/>

<path style="fill:#969696" d="M121.98 95.53c-3.32-.84-5.93-1.98-7.83-3.44-1.9-1.46-2.85-3.08-2.85-4.88 0-1.8.95-3.42 2.85-4.88 1.9-1.46 4.51-2.6 7.83-3.44 3.32-.84 7.04-1.25 11.17-1.25 4.12 0 7.84.41 11.16 1.24 3.32.83 5.93 1.97 7.83 3.42 1.9 1.46 2.85 3.09 2.85 4.9 0 1.81-.95 3.45-2.85 4.91s-4.51 2.6-7.83 3.42c-3.32.83-7.04 1.24-11.16 1.24-4.13.01-7.85-.41-11.17-1.24zm20.7-1.09c2.84-.72 5.08-1.71 6.73-2.98 1.64-1.27 2.46-2.68 2.46-4.25 0-1.56-.82-2.98-2.46-4.24-1.64-1.27-3.88-2.26-6.73-2.98-2.84-.72-6.02-1.08-9.54-1.08-3.52 0-6.72.36-9.57 1.08-2.86.72-5.11 1.71-6.76 2.98s-2.46 2.68-2.46 4.24.82 2.98 2.46 4.25 3.89 2.26 6.76 2.98c2.86.72 6.05 1.08 9.57 1.08 3.52-.01 6.7-.37 9.54-1.08z"/>

<path style="fill:#969696" d="M129.52 88.77v.77h6.25v.42h-6.25v1.74h-1.43v-1.74h-2.94v-.42h2.94v-6.49h6.94c2.42 0 4.32.25 5.69.75s2.05 1.2 2.05 2.11-.68 1.61-2.05 2.11c-1.37.5-3.26.75-5.69.75h-5.51zm0-5.15v4.6h5.53c2.02 0 3.57-.2 4.65-.6 1.08-.4 1.62-.97 1.62-1.7 0-.74-.54-1.31-1.61-1.71-1.07-.4-2.63-.59-4.67-.59h-5.52z"/>

<path style="fill:#fff" d="M85.66 1.73 13.67 43.57l39.7 22.92 71.99-41.83z"/>

<path style="fill:#969696" d="M53.37 62.25 20.99 43.56 85.66 5.97l32.38 18.69-64.67 37.59zm-25.06-18.7 25.05 14.46 57.36-33.33-25.05-14.46-57.36 33.33z"/>

<path style="fill:#fff" d="m53.37 66.49-.08 19.99 71.99-41.83.08-19.99z"/>

<path style="fill:#fff" d="m53.37 66.49-.08 19.99 71.99-41.83.08-19.99z"/>

<path style="fill:#fff" d="m13.67 43.57-.08 19.99 39.7 22.92.08-19.99z"/>

<path style="fill:#fff" d="m13.67 43.57-.08 19.99 39.7 22.92.08-19.99z"/>

<path style="fill:#969696" d="m126.86 23.79-1.51-.87L85.65 0 13.67 41.83l-1.49.87-.01 1.73-.08 19.99 39.7 22.92 1.51.87 1.49-.87 71.99-41.84.08-19.99v-1.72zM85.66 3.47l36.71 21.19-69 40.1-36.71-21.2 69-40.09zM51.81 81.15l-.01 2.74L15.09 62.7l.07-16.54 36.71 21.2-.06 13.79zm71.97-37.37L54.8 83.87l.01-3.38.05-13.14 68.98-40.09-.06 16.52z"/>

<path style="fill:currentColor" d="m57.75 17.92-16.18 9.46 39.7 22.92 16.19-9.45z"/>

<path style="fill:currentColor" d="m81.27 68.49 16.19-9.41V40.87l-16.19 9.41z"/></svg>